<svg width="20" height="20" viewBox="0 0 20 20" fill="none" xmlns="http://www.w3.org/2000/svg">
<path d="M2.29168 12.4916C2.29168 12.65 2.35001 12.8083 2.47502 12.9333L6.65002 17.1083C6.89168 17.35 7.29168 17.35 7.53335 17.1083C7.77502 16.8666 7.77502 16.4666 7.53335 16.225L3.35835 12.05C3.11668 11.8083 2.71668 11.8083 2.47502 12.05C2.35835 12.175 2.29168 12.3333 2.29168 12.4916Z" fill="#7E7E7E"/>
<path d="M2.29171 12.4917C2.29171 12.8334 2.57504 13.1167 2.91671 13.1167L17.0834 13.1167C17.425 13.1167 17.7084 12.8334 17.7084 12.4917C17.7084 12.15 17.425 11.8667 17.0834 11.8667H2.91671C2.57504 11.8667 2.29171 12.15 2.29171 12.4917Z" fill="#7E7E7E"/>
<path d="M12.2834 3.32513C12.2834 3.48346 12.3417 3.6418 12.4667 3.7668L16.6417 7.9418C16.8834 8.18346 17.2834 8.18346 17.525 7.9418C17.7667 7.70013 17.7667 7.30013 17.525 7.05846L13.35 2.88346C13.1084 2.6418 12.7084 2.6418 12.4667 2.88346C12.3417 3.00846 12.2834 3.1668 12.2834 3.32513Z" fill="#292D32"/>
<path d="M2.29171 7.5083C2.29171 7.84997 2.57504 8.1333 2.91671 8.1333L17.0834 8.1333C17.425 8.1333 17.7084 7.84997 17.7084 7.5083C17.7084 7.16663 17.425 6.8833 17.0834 6.8833L2.91671 6.8833C2.57504 6.8833 2.29171 7.1583 2.29171 7.5083Z" fill="#292D32"/>
</svg>
