<svg width="60" height="60" viewBox="0 0 60 60" fill="none" xmlns="http://www.w3.org/2000/svg">
<path d="M30 5.00098C16.225 5.00098 5 16.226 5 30.001C5 43.776 16.225 55.001 30 55.001C43.775 55.001 55 43.776 55 30.001C55 16.226 43.775 5.00098 30 5.00098ZM41.95 24.251L27.775 38.426C27.425 38.776 26.95 38.976 26.45 38.976C25.95 38.976 25.475 38.776 25.125 38.426L18.05 31.351C17.325 30.626 17.325 29.426 18.05 28.701C18.775 27.976 19.975 27.976 20.7 28.701L26.45 34.451L39.3 21.601C40.025 20.876 41.225 20.876 41.95 21.601C42.675 22.326 42.675 23.501 41.95 24.251Z" fill="#122121"/>
</svg>
