<svg width="359" height="296" viewBox="0 0 359 296" fill="none" xmlns="http://www.w3.org/2000/svg">
<path d="M340.404 196.958C332.122 251.544 252.527 284.736 162.625 271.095C72.7218 257.454 6.55526 202.146 14.8374 147.561C23.1195 92.9752 172.234 -0.712969 192.617 73.4238C213 147.561 348.686 142.373 340.404 196.958Z" fill="#EFEFEF"/>
<g style="mix-blend-mode:multiply">
<path d="M90.632 221.57L72 211.066L102.913 192.384L136.374 175.1L137.458 234.012L90.632 221.57Z" fill="#A9A9AB"/>
</g>
<g style="mix-blend-mode:multiply">
<path d="M247.389 233.171C265.934 233.171 280.968 224.896 280.968 214.688C280.968 204.481 265.934 196.206 247.389 196.206C228.845 196.206 213.811 204.481 213.811 214.688C213.811 224.896 228.845 233.171 247.389 233.171Z" fill="#A9A9AB"/>
</g>
<path d="M244.154 14.7683C244.154 14.7683 244.686 15.2847 251.08 15.9225C257.473 16.5604 259.782 15.9225 259.782 15.9225L251.626 12.7637C251.626 12.7637 244.686 12.7636 244.154 14.7683Z" fill="#DB9405"/>
<path d="M245.111 199.304C244.379 199.496 243.693 199.837 243.098 200.304C242.502 200.772 242.009 201.357 241.649 202.023C240.221 204.392 239.006 206.199 238.201 206.579C236.097 207.789 234.201 209.327 232.582 211.135C231.949 211.865 231.627 212.814 231.686 213.778C231.686 213.778 231.306 213.929 231.382 214.78C231.463 215.526 231.765 216.232 232.249 216.806C232.734 217.379 233.378 217.795 234.101 218C235.433 218.488 236.859 218.666 238.27 218.519C239.681 218.371 241.039 217.903 242.241 217.149C245.278 215.281 247.298 212.137 248.771 211.864C250.245 211.591 258.233 208.417 258.597 207.187C258.962 205.956 261.635 196.146 258.187 196.1C254.74 196.055 245.111 199.304 245.111 199.304Z" fill="#3B3B30"/>
<path d="M248.771 209.662C247.253 210.011 245.294 213.079 242.241 214.962C241.036 215.708 239.678 216.172 238.268 216.32C236.859 216.467 235.434 216.294 234.101 215.813C233.574 215.651 233.088 215.381 232.672 215.02C232.256 214.659 231.92 214.215 231.686 213.717C231.686 213.717 231.306 213.869 231.382 214.719C231.463 215.466 231.765 216.171 232.249 216.745C232.734 217.318 233.378 217.734 234.101 217.939C235.433 218.428 236.859 218.605 238.27 218.458C239.681 218.31 241.039 217.842 242.241 217.088C245.278 215.22 247.298 212.077 248.771 211.803C250.245 211.53 258.233 208.356 258.597 207.126C258.688 206.822 258.901 206.032 259.144 205C257.959 206.321 254.527 208.265 248.771 209.662Z" fill="#BDBDB9"/>
<path d="M231.686 137.57C231.686 137.57 233.205 160.031 237.67 172.09C242.135 184.148 240.616 189.372 241.573 192.668C242.529 195.964 243.805 200.155 243.805 200.155C243.805 200.155 248.361 204.271 250.609 204.316C252.856 204.362 255.939 203.147 256.243 202.555C256.547 201.962 264.976 172.682 264.611 170.936C264.247 169.189 276.411 136.446 257.853 133.151C239.295 129.855 231.686 137.57 231.686 137.57Z" fill="#055F8C"/>
<path d="M256.243 202.554C255.089 198.604 254.461 194.519 254.375 190.405C254.033 182.526 253.017 174.692 251.338 166.987C250.624 165.119 242.545 145.497 242.545 145.497L260.481 132.345V190.602C260.481 190.602 257.99 201.567 256.243 202.554Z" fill="#00396A"/>
<path d="M259.873 208.052L257.899 207.809C257.405 209.366 256.806 210.888 256.107 212.365C255.605 213.094 249.667 219.958 248.984 221.006C248.581 221.577 248.297 222.222 248.149 222.905C248.149 222.905 247.587 223.193 247.404 224.56C247.222 225.927 247.207 229.222 251.961 229.936C253.996 230.223 256.071 229.989 257.991 229.256C259.912 228.523 261.615 227.315 262.941 225.745C265.31 223.087 266.92 220.794 267.907 219.837C269.392 218.442 270.749 216.918 271.962 215.281C271.962 215.281 274.088 210.391 273.237 208.599C272.387 206.806 259.873 208.052 259.873 208.052Z" fill="#3B3B30"/>
<path d="M272.023 213.094C270.81 214.731 269.453 216.256 267.968 217.65C266.98 218.607 265.371 220.9 263.001 223.558C261.675 225.128 259.972 226.337 258.052 227.07C256.132 227.803 254.057 228.037 252.021 227.75C248.878 227.279 247.815 225.669 247.465 224.241C247.457 224.348 247.457 224.454 247.465 224.56C247.283 225.927 247.268 229.223 252.021 229.937C254.057 230.224 256.132 229.99 258.052 229.257C259.972 228.524 261.675 227.315 263.001 225.745C265.371 223.087 266.98 220.794 267.968 219.837C269.453 218.443 270.81 216.918 272.023 215.281C272.023 215.281 274.012 210.725 273.374 208.796C273.064 210.269 272.611 211.709 272.023 213.094Z" fill="#BDBDB9"/>
<path d="M277.915 129.566C277.915 129.566 277.915 130.781 277.824 132.755C277.626 138.481 277.171 150.615 276.396 157.525C275.379 166.789 274.877 170.313 275.242 174.914C275.606 179.516 276.123 180.047 275.12 190.496C274.525 196.871 274.358 203.279 274.619 209.677C273.74 210.28 272.785 210.766 271.779 211.12C270.316 211.64 268.777 211.917 267.223 211.94C264.223 211.817 261.327 210.807 258.901 209.039C258.901 209.039 256.441 196.753 257.2 191.392C257.959 186.031 254.922 168.612 254.922 168.612C254.922 168.612 252.72 156.113 251.429 150.281C250.138 144.449 256.562 117.523 260.981 115.351C265.401 113.179 277.915 129.566 277.915 129.566Z" fill="#368CC2"/>
<path d="M276.396 157.525C275.379 166.789 274.877 170.313 275.242 174.914C275.606 179.516 276.123 180.047 275.12 190.496C274.525 196.871 274.358 203.279 274.619 209.677C273.74 210.281 272.785 210.766 271.779 211.12C271.779 203.709 273.009 190.982 273.192 186.456C273.435 180.852 271.673 177.025 271.354 170.495C271.035 163.965 274.3 134.851 274.3 134.851C275.388 134.016 276.571 133.313 277.824 132.755C277.626 138.557 277.171 150.615 276.396 157.525Z" fill="#2A6D9C"/>
<path d="M289.047 83.884C288.227 90.2169 279.16 123.841 278.629 122.884C278.097 121.927 241.102 127.835 241.102 127.835C241.102 127.835 235.498 77.7181 235.194 72.6457C234.89 67.5733 240.753 45.5067 242.454 42.363C242.802 41.6931 243.327 41.1312 243.972 40.738C245.992 39.4926 249.045 39.9634 251.945 40.3887C254.227 40.7176 256.544 40.7176 258.825 40.3887L262.409 40.6469C268.043 41.1025 278.553 42.0592 280.314 43.1223C282.76 44.641 295.152 58.6889 295.152 58.6889C296.048 62.7286 289.867 77.5055 289.047 83.884Z" fill="#BE1513"/>
<path d="M261.711 53.176C260.742 56.1933 259.981 59.2733 259.433 62.3945C259.032 66.0972 258.367 69.7666 257.443 73.3746C257.109 74.0732 260.481 63.2753 261.711 62.3185C262.941 61.3618 261.225 58.1877 261.711 53.176Z" fill="#AB0000"/>
<path d="M247.146 46.0381C244.152 51.0628 242.34 56.7027 241.846 62.5311C240.753 72.9038 240.327 72.3115 240.327 72.3115C240.327 72.3115 239.447 55.6514 247.146 46.0381Z" fill="#AB0000"/>
<path d="M244.686 40.3281C243.866 40.5711 243.501 41.6798 242.985 42.2265C242.314 43.6014 241.77 45.035 241.36 46.5092C241.087 47.3597 240.844 48.0279 240.722 48.4076C240.474 49.4078 240.286 50.4221 240.16 51.445C240.061 52.3182 239.836 53.1724 239.492 53.9811C238.933 55.5589 238.551 57.1939 238.353 58.8561C238.041 59.572 237.812 60.3209 237.67 61.0886C237.212 62.798 236.633 64.4728 235.938 66.1003C235.938 66.1003 199.232 70.1552 195.04 68.2265C190.848 66.2977 193.916 55.9554 193.916 55.9554C195.421 55.6681 196.967 55.6681 198.472 55.9554C199.109 56.1437 199.782 56.1699 200.431 56.0314C201.081 55.8026 201.762 55.6746 202.451 55.6517C204.796 55.593 207.089 54.9454 209.118 53.7685C209.981 53.3098 210.943 53.0699 211.92 53.0699C212.897 53.0699 213.859 53.3098 214.722 53.7685C215.618 53.966 216.362 54.7253 217.911 53.9052C219.46 53.0851 221.663 54.2849 222.133 53.9052C222.604 53.5256 224.366 51.8094 225.171 51.0501C225.976 50.2907 227.51 50.3667 228.497 49.5314C229.524 48.782 230.617 48.1263 231.762 47.5723C232.123 47.1108 232.566 46.7196 233.068 46.418C234.161 45.6283 235.786 45.1727 236.105 44.6868C236.424 44.2008 239.325 43.1681 240.494 41.8013C241.664 40.4344 244.686 40.3281 244.686 40.3281Z" fill="#DA3F3C"/>
<path d="M244.686 40.3281C243.866 40.5711 243.502 41.6798 242.985 42.2265C242.314 43.6014 241.77 45.035 241.36 46.5092C240.616 46.2207 240.586 42.9555 240.282 43.077C239.764 43.7189 239.504 44.5313 239.553 45.355C239.553 46.3877 239.629 48.0279 240.722 48.3924C241.482 48.6505 240.844 50.5034 240.161 51.4298C239.842 51.8702 239.508 52.1132 239.31 51.9005C238.672 51.2171 239.963 49.577 239.082 48.6354C238.735 48.2941 238.458 47.8878 238.268 47.4396C238.078 46.9914 237.978 46.5101 237.974 46.0232C237.974 45.4765 236.804 44.8538 236.804 44.8538C236.48 45.6197 236.056 46.3397 235.544 46.9952C234.769 47.9216 237.199 53.5407 237.336 53.8445C236.495 52.6843 235.763 51.4489 235.149 50.1541C234.799 49.0454 234.131 46.9952 234.131 46.9952C233.424 47.8074 232.822 48.7054 232.339 49.6681C231.913 51.2619 231.614 52.8869 231.443 54.5279C231.443 54.5279 231.033 54.1938 231.033 52.5536C231.033 50.9134 230.35 49.8655 229.59 50.2148C228.674 50.8756 227.904 51.7183 227.328 52.6902C226.719 53.4103 226.002 54.0304 225.201 54.5279C225.201 54.5279 224.032 54.5279 223.212 54.5279C222.392 54.5279 218.656 53.6167 220.934 54.5279C222.492 55.4009 223.687 56.8009 224.305 58.4765C223.98 57.8772 223.588 57.3168 223.136 56.8059C221.83 55.2872 218.808 55.2872 218.762 55.1809C217.219 54.9473 215.696 54.597 214.206 54.133C213.7 53.9888 213.169 53.9495 212.647 54.0174C212.124 54.0853 211.622 54.259 211.169 54.5279C209.474 54.9887 207.755 55.3588 206.02 55.6365C203.271 56.1073 204.502 57.3678 204.851 57.7323C204.322 57.3356 203.709 57.0655 203.059 56.9426C202.143 56.6844 201.25 56.3543 200.386 55.9554C201.036 55.7266 201.717 55.5986 202.406 55.5757C204.751 55.517 207.044 54.8695 209.073 53.6926C209.936 53.2339 210.898 52.994 211.875 52.994C212.852 52.994 213.814 53.2339 214.677 53.6926C215.573 53.89 216.317 54.6494 217.866 53.8293C219.415 53.0092 221.617 54.2089 222.088 53.8293C222.559 53.4496 224.321 51.7335 225.125 50.9741C225.93 50.2148 227.464 50.2907 228.451 49.4554C229.479 48.706 230.572 48.0504 231.717 47.4963C232.078 47.0349 232.52 46.6436 233.023 46.3421C234.116 45.5524 235.741 45.0968 236.06 44.6108C236.379 44.1249 239.28 43.0921 240.449 41.7253C241.618 40.3585 244.686 40.3281 244.686 40.3281Z" fill="#A8020B"/>
<path d="M195.268 64.6875C195.268 64.6875 197.789 66.7529 197.682 63.9586C197.576 61.1642 195.45 56.6537 193.749 58.1268C192.048 59.5999 195.268 64.6875 195.268 64.6875Z" fill="#E09C63"/>
<path d="M202.299 57.4131C203.111 57.7155 203.783 58.3036 204.192 59.067C204.6 59.8304 204.715 60.7165 204.517 61.5591C203.962 63.5203 203.171 65.4071 202.163 67.1783C202.163 67.1783 208.526 60.5416 202.299 57.4131Z" fill="#A8020B"/>
<path d="M284.142 80.1936L249.941 97.127L238.338 158.664L269.805 140.881L284.142 80.1936Z" fill="#D9AF6A"/>
<path d="M264.793 89.8523L254.375 149.643L259.584 146.712L270.929 86.8909L264.793 89.8523Z" fill="#9C480C"/>
<path d="M265.219 89.564L254.8 149.355L260.01 146.424L271.354 86.6025L265.219 89.564Z" fill="#D6D6D6"/>
<path d="M284.142 80.1935L235.574 53.1912L193.248 66.3278L249.941 97.1269L284.142 80.1935Z" fill="#EFD995"/>
<path d="M181.159 127.227L193.248 66.3276L249.941 97.1267L238.338 158.664L181.159 127.227Z" fill="#B76F3F"/>
<path d="M252.674 62.6831L214.57 78.2952L223.758 83.1702L259.812 66.6621L252.674 62.6831Z" fill="#9C480C"/>
<path d="M220.25 57.5649L271.354 86.6023L264.794 89.8523L213.599 59.3873L220.25 57.5649Z" fill="#9C480C"/>
<path d="M220.66 57.2915L271.764 86.3289L265.219 89.5637L214.024 59.114L220.66 57.2915Z" fill="#E6E1E4"/>
<path d="M223.759 83.1702L213.052 144.753L203.439 139.468L214.571 78.2952L223.759 83.1702Z" fill="#9C480C"/>
<path d="M252.113 62.3945L214.024 78.0067L223.212 82.8665L259.25 66.3583L252.113 62.3945Z" fill="#F1F1F1"/>
<path d="M223.212 82.8661L212.49 144.449L202.876 139.164L214.024 78.0063L223.212 82.8661Z" fill="#B3A4AD"/>
<path d="M193.992 59.4634L198.002 115.078L198.928 115.351L217.897 72.3267L193.992 59.4634Z" fill="#2B252B"/>
<path d="M193.066 59.1902L173.46 99.6785L198.002 115.078L216.955 72.0535L193.066 59.1902Z" fill="#575257"/>
<path d="M193.765 62.8955L176.816 97.9165L198.032 111.235L211.321 80.1934L214.024 72.5392L193.765 62.8955Z" fill="#474247"/>
<path d="M193.354 61.4224L176.406 96.4434L197.622 109.747L214.024 72.5392L193.354 61.4224Z" fill="#EBEBEB"/>
<path d="M202.786 61.8476L201.859 61.6501L206.582 69.7904L207.266 69.927L210.576 66.0847L202.786 61.8476Z" fill="#939393"/>
<path d="M196.316 63.7764C196.316 63.7764 196.134 67.1783 195.951 68.4691C195.769 69.76 193.856 69.0311 193.856 69.0311C193.856 69.0311 194.797 71.5369 193.764 72.2355C193.411 72.423 193.018 72.521 192.618 72.521C192.218 72.521 191.824 72.423 191.471 72.2355C191.432 72.3796 191.432 72.5317 191.471 72.6759C191.562 72.8733 190.681 73.6175 189.634 73.6934C188.586 73.7694 187.826 72.1747 187.826 71.871C187.826 71.5673 187.644 72.3114 187.644 72.3114C187.469 72.6768 187.202 72.9907 186.87 73.2227C186.715 73.3201 186.536 73.3727 186.353 73.3745C185.548 73.3745 183.528 70.5801 182.951 69.2893C182.502 67.7736 182.352 66.1847 182.511 64.6117C182.557 63.7393 182.919 62.9135 183.528 62.2881C183.832 61.8325 183.999 60.6782 184.348 60.0859C184.698 59.4937 185.685 59.4026 186.171 58.1117C186.657 56.8208 187.416 57.0637 188.434 57.003C189.451 56.9423 189.132 56.8815 190.408 56.0614C190.721 55.849 191.08 55.7137 191.456 55.6666C192.284 55.5745 193.118 55.779 193.81 56.2437C194.581 57.284 195.209 58.423 195.678 59.6304L196.316 63.7764Z" fill="#F9C48E"/>
<path d="M191.532 55.6816C191.274 55.835 191.043 56.03 190.848 56.2588C190.438 56.684 189.892 56.9573 189.664 57.4889C189.521 58.0597 189.454 58.647 189.466 59.2354C189.36 58.8629 189.162 58.5233 188.889 58.2482C188.665 57.9773 188.392 57.7507 188.084 57.58C187.538 57.3522 186.566 58.2027 186.323 58.6127C185.928 59.2657 186.323 60.1314 186.216 60.8148C185.639 60.1466 185.017 62.1209 184.941 62.4854C184.83 63.3902 184.855 64.3066 185.017 65.2039C184.936 65.1388 184.843 65.0915 184.743 65.0652C184.643 65.039 184.538 65.0343 184.436 65.0516C184.334 65.0688 184.237 65.1075 184.151 65.1652C184.065 65.2229 183.993 65.2982 183.938 65.3861C183.734 65.7671 183.654 66.2027 183.711 66.6314C183.638 68.0167 183.981 69.392 184.698 70.58C185.139 71.0845 185.616 71.5565 186.125 71.9924C186.492 72.338 186.773 72.7644 186.945 73.2377C186.791 73.3352 186.612 73.3878 186.429 73.3896C185.624 73.3896 183.604 70.5952 183.027 69.3043C182.577 67.7886 182.428 66.1997 182.587 64.6268C182.633 63.7544 182.994 62.9285 183.604 62.3032C183.908 61.8475 184.075 60.6933 184.424 60.101C184.774 59.5087 185.761 59.4176 186.247 58.1268C186.733 56.8359 187.492 57.0788 188.51 57.0181C189.527 56.9573 189.208 56.8966 190.484 56.0765C190.797 55.8641 191.156 55.7288 191.532 55.6816Z" fill="#E09C63"/>
<path d="M190.317 58.9624C191.087 60.5462 191.777 62.1683 192.382 63.8222C192.647 65.257 193.008 66.6725 193.461 68.0593C193.901 68.8946 193.855 69.0313 193.855 69.0313L194.098 69.8666C193.741 69.5398 193.456 69.1414 193.263 68.6972C192.8 67.4104 192.414 66.0969 192.109 64.7638L190.681 60.9823C190.489 60.3237 190.367 59.6466 190.317 58.9624Z" fill="#E09C63"/>
<path d="M186.535 62.3945C186.535 62.3945 189.223 66.9506 189.573 68.0744C190.145 69.4675 190.862 70.7962 191.714 72.0382L192.154 72.4938L191.41 72.2508V72.6913C191.113 71.9871 190.763 71.3068 190.362 70.6562C189.649 69.4261 187.416 64.6877 187.325 64.4144L186.535 62.3945Z" fill="#E09C63"/>
<path d="M187.872 71.8864C187.872 71.8864 186.11 69.092 185.761 68.4693C185.365 67.4463 185.046 66.3955 184.804 65.3256C184.683 64.9156 184.455 63.8829 184.349 63.9588C184.56 65.5779 184.9 67.1776 185.366 68.7427C185.685 69.4716 187.158 71.203 187.234 71.6586C187.31 72.1142 187.523 72.6609 187.356 72.8583C187.188 73.0557 187.872 72.6153 187.872 71.8864Z" fill="#E09C63"/>
<path d="M186.292 71.5068C186.292 71.5068 185.7 71.765 185.685 71.9928C185.651 72.1612 185.584 72.3212 185.488 72.4636C185.488 72.4636 185.806 73.147 186.292 73.1166C186.778 73.0863 187.052 72.8888 187.052 72.6914C187.048 72.4429 186.975 72.2004 186.841 71.9911C186.707 71.7819 186.517 71.6141 186.292 71.5068Z" fill="#FFE1C9"/>
<path d="M190.18 71.5065C190.18 71.5065 188.966 71.3395 188.844 72.3114C188.723 73.2834 189.376 73.3289 189.376 73.3289C189.376 73.3289 190.226 73.5568 190.606 73.1163L191.001 72.6911C191.001 72.6911 190.651 71.5065 190.18 71.5065Z" fill="#FFE1C9"/>
<path d="M193.127 69.8665C193.127 69.8665 191.866 69.8665 191.897 70.7169C191.897 71.8104 192.2 72.0382 192.2 72.0382C192.432 72.1253 192.679 72.1609 192.926 72.1425C193.172 72.1242 193.412 72.0523 193.628 71.9319C194.205 71.4915 193.992 71.1878 193.992 71.1878C193.992 71.1878 193.522 69.8665 193.127 69.8665Z" fill="#FFE1C9"/>
<path d="M194.782 66.3276C194.782 66.3276 193.81 66.3276 193.81 66.9655C193.81 68.1652 193.719 68.1652 193.719 68.1652C193.886 68.3129 194.081 68.4253 194.292 68.4957C194.503 68.5662 194.727 68.5933 194.949 68.5753C195.197 68.5018 195.451 68.4509 195.708 68.4234C195.708 68.4234 196.088 66.3276 194.782 66.3276Z" fill="#FFE1C9"/>
<path d="M263.761 140.197C262.71 139.855 261.568 139.931 260.572 140.409C258.916 141.214 256.35 142.414 256.35 142.414C256.35 142.414 252.416 142.688 251.9 143.675C251.384 144.662 251.9 146.424 253.069 146.363C254.239 146.302 256.486 145.953 256.486 145.953C256.373 146.58 256.302 147.214 256.274 147.851C256.298 148.073 256.298 148.297 256.274 148.519L248.559 152.878C248.559 152.878 254.634 153.47 255.575 153.47H256.729C256.729 153.47 256.912 155.171 258.172 154.761C259.433 154.351 268.074 146.621 268.074 146.621C268.074 146.621 267.816 138.557 263.761 140.197Z" fill="#F9C48E"/>
<path d="M299.025 74.1491C297.688 82.0918 296.762 83.4738 296.853 88.4247C296.816 93.4114 296.389 98.3876 295.577 103.308C295.213 105.054 293.679 113.316 291.674 117.417C289.67 121.517 286.237 126.848 284.901 130.234C284.029 132.694 282.757 134.993 281.135 137.038C280.938 137.257 280.725 137.46 280.497 137.646C279.759 138.206 279.273 139.036 279.145 139.954C278.03 140.662 276.803 141.176 275.515 141.473H275.06C274.761 141.489 274.462 141.489 274.164 141.473H273.799L272.493 142.855H272.417L267.558 147.897C267.518 147.255 267.359 146.626 267.087 146.044C266.775 145.289 266.333 144.595 265.781 143.994C264.019 142.065 262.151 139.756 262.151 139.756C262.151 139.756 263.67 139.757 263.67 139.164C263.816 138.5 264.101 137.874 264.505 137.327C264.763 136.871 266.297 134.654 266.464 134.426C266.3 133.581 266.238 132.719 266.282 131.859C266.464 131.495 267.482 131.54 268.013 130.933C269.038 129.54 269.875 128.018 270.504 126.407C270.795 125.075 271.309 123.802 272.022 122.641C273.138 120.669 274.152 118.642 275.06 116.566C275.06 116.566 275.166 114.82 275.546 114.516C275.926 114.212 276.472 113.65 276.472 113.65C276.446 113.535 276.446 113.416 276.472 113.301C276.539 112.83 276.764 112.397 277.11 112.071L277.338 111.828C277.618 111.571 277.877 111.291 278.112 110.993C278.338 110.751 278.514 110.467 278.629 110.157C278.617 110.026 278.617 109.894 278.629 109.762C278.615 109.511 278.654 109.26 278.743 109.024C278.832 108.789 278.969 108.575 279.145 108.396C279.874 107.743 279.419 104.827 279.662 104.128C279.677 104.089 279.677 104.046 279.662 104.007C279.768 102.488 278.143 90.2472 277.945 88.5311C277.748 86.8149 276.032 75.4855 281.985 66.829C287.938 58.1724 293.876 57.489 295.122 58.6888C295.903 59.4806 296.482 60.4497 296.808 61.5135C299.127 65.29 299.92 69.8085 299.025 74.1491Z" fill="#DA3F3C"/>
<path d="M292.692 59.5846C292.889 59.5846 284.81 64.4292 284.142 67.178C283.473 69.9268 281.59 75.4093 281.727 80.6184C281.826 83.6854 280.812 86.6846 278.872 89.0624C278.872 89.0624 274.316 80.8766 274.194 78.7049C274.073 76.5331 275.713 79.5857 275.713 79.5857C276.202 75.6279 277.014 71.7167 278.143 67.8918C279.791 63.9734 281.826 60.229 284.218 56.7142C284.651 56.0771 285.257 55.5767 285.964 55.2715C284.845 56.7463 283.912 58.353 283.185 60.0554L281.894 63.0016C283.224 61.6863 284.673 60.4966 286.222 59.4479C286.886 59.1908 287.572 58.9975 288.273 58.8708C288.273 58.8708 282.684 61.6652 280.816 66.2364C279.447 69.9783 278.375 73.8224 277.611 77.7329L279.57 78.8568C279.743 76.1388 280.337 73.4643 281.332 70.9292C282.744 67.5577 284.385 62.6219 292.692 59.5846Z" fill="#AB0000"/>
<path d="M274.179 85.0838L284.142 80.1936L278.735 103.095L274.179 85.0838Z" fill="#D9AF6A"/>
<path d="M279.403 120.044L277.475 119.103C277.475 119.103 275.652 119.027 275.409 119.315C274.892 119.923 274.579 120.677 274.513 121.472C274.513 122.368 277.551 126.028 277.551 126.028C277.551 126.028 275.045 124.995 274.361 124.509C273.678 124.023 273.389 122.368 273.01 122.656C272.63 122.945 272.22 124.676 272.022 125.269C271.825 125.861 274.938 127.319 275.652 127.668L274.346 127.167C273.158 126.912 271.919 127.039 270.808 127.531C270.808 127.714 269.577 129.475 270.337 130.341C271.034 130.968 271.873 131.416 272.782 131.647C272.782 131.647 271.734 131.966 271.855 132.543C272.276 133.35 272.824 134.084 273.48 134.715C272.88 134.295 272.226 133.958 271.536 133.712C270.519 133.378 269.304 131.905 268.651 131.677C267.998 131.45 268.15 132.194 267.755 132.224C267.36 132.255 266.965 133.606 266.965 133.606C268.897 134.052 270.691 134.965 272.19 136.264C273.734 137.605 274.8 139.412 275.227 141.412C274.928 141.428 274.629 141.428 274.331 141.412C274.11 140.378 273.811 139.363 273.435 138.375C272.964 137.251 271.491 136.583 269 135.14C268.316 134.671 267.488 134.456 266.661 134.533C266.497 133.688 266.436 132.826 266.479 131.966C266.661 131.602 267.679 131.647 268.211 131.04C269.175 129.603 269.946 128.045 270.504 126.408C270.795 125.076 271.309 123.803 272.022 122.641C273.138 120.67 274.152 118.642 275.06 116.566C275.06 116.566 275.166 114.82 275.546 114.516C275.926 114.213 276.472 113.651 276.472 113.651C276.446 113.536 276.446 113.416 276.472 113.301C276.677 113.556 276.794 113.87 276.806 114.197C276.806 115.503 279.464 116.794 280.011 117.052L277.505 116.187C277.204 116.2 276.912 116.292 276.658 116.455C276.405 116.618 276.199 116.845 276.062 117.113C275.88 117.66 279.024 119.771 279.403 120.044Z" fill="#A8020B"/>
<path d="M283.595 114.258C283.291 114.182 280.907 113.468 279.434 112.906L277.171 112.01L277.414 111.767C277.694 111.51 277.953 111.231 278.189 110.932C278.553 111.63 283.124 114.03 283.595 114.258Z" fill="#A8020B"/>
<path d="M278.674 109.702C278.66 109.453 278.698 109.203 278.787 108.97C278.876 108.737 279.014 108.526 279.19 108.35C279.919 107.682 279.464 104.766 279.692 104.067C279.707 104.028 279.707 103.985 279.692 103.946C280.024 104.091 280.37 104.203 280.724 104.28C283.99 105.07 283.625 105.495 282.835 106.755C282.046 108.016 279.115 107.408 279.434 108.38C279.752 109.352 285.615 111.585 286.344 111.873C285.858 111.752 283.2 110.993 280.77 110.051C280.123 109.724 279.392 109.603 278.674 109.702Z" fill="#A8020B"/>
<path d="M292.965 114.06C292.965 114.06 294.028 109.611 291.34 107.484C288.652 105.358 286.784 105.465 286.784 105.844C286.784 106.224 288.88 107.864 289.427 108.487C289.973 109.109 291.386 108.958 291.963 111.403C292.54 113.848 292.768 114.698 292.965 114.06Z" fill="#A8020B"/>
<path d="M267.102 146.15C268.957 145.229 270.739 144.168 272.433 142.976L267.573 148.003C267.524 147.363 267.365 146.736 267.102 146.15Z" fill="#A8020B"/>
<path d="M281.135 137.038C280.934 137.249 280.721 137.446 280.497 137.631C280.126 137.905 279.814 138.25 279.58 138.646C279.345 139.043 279.192 139.482 279.13 139.939C278.018 140.653 276.789 141.167 275.5 141.458C274.944 141.493 274.386 141.493 273.83 141.458L272.509 142.825C273.359 141.853 274.194 139.483 275.182 139.954C275.783 140.103 276.409 140.116 277.016 139.992C277.623 139.869 278.194 139.612 278.69 139.241C278.842 138.83 280.36 136.78 280.709 136.932L281.135 137.038Z" fill="#A8020B"/>
<path d="M261.225 48.1035C260.094 47.6366 259.105 46.8828 258.354 45.9166C257.261 44.3979 256.152 45.5673 254.983 45.5673C253.814 45.5673 251.718 46.357 250.518 45.5673C249.175 44.9858 247.801 44.4788 246.402 44.0486C245.4 43.4867 245.689 41.0112 244.732 40.9201C244.46 40.8931 244.201 40.7876 243.988 40.6164C246.007 39.3711 249.06 39.8418 251.961 40.2671C254.242 40.5961 256.559 40.5961 258.84 40.2671L262.424 40.5253C262.517 40.6623 262.579 40.8177 262.607 40.9809C263.184 44.1245 261.225 48.1035 261.225 48.1035Z" fill="#900000"/>
<path d="M279.084 49.6831C279.084 49.6831 272.357 56.3805 270.23 59.1749C268.104 61.9693 264.459 66.9202 264.459 66.9202C267.55 59.872 272.634 53.8808 279.084 49.6831Z" fill="#AB0000"/>
<path d="M275.986 54.5427C275.312 56.7646 274.804 59.0338 274.468 61.3313C274.316 63.5334 274.468 68.7425 274.468 68.7425C273.404 66.4617 272.983 63.9337 273.251 61.4312C273.518 58.9288 274.464 56.547 275.986 54.5427Z" fill="#AB0000"/>
<path d="M278.629 43.7754C278.884 44.5282 278.966 45.3288 278.869 46.1176C278.771 46.9064 278.497 47.6632 278.067 48.3315C277.333 49.3248 276.39 50.1441 275.303 50.731C273.296 51.8482 271.105 52.5942 268.833 52.9331C267.865 51.6989 266.619 50.7105 265.196 50.0481C263.774 49.3858 262.216 49.0682 260.648 49.1212H260.465C260.465 47.9366 260.222 45.7041 260.01 43.9728C259.858 42.5756 259.721 41.5277 259.721 41.5277L259.296 40.9354L258.825 40.2824L259.402 39.4319L261.498 36.3946L280.3 20.9495C278.392 25.162 277.329 29.7076 277.171 34.3291C277.171 41.2392 278.629 43.7754 278.629 43.7754Z" fill="#E2A46F"/>
<path d="M278.629 43.7754C278.884 44.5282 278.966 45.3288 278.869 46.1176C278.771 46.9064 278.497 47.6632 278.067 48.3315C277.333 49.3248 276.39 50.1441 275.303 50.731C275.052 49.908 274.915 49.0548 274.893 48.1948C274.772 38.0347 274.483 41.6948 265.781 44.3525C264.843 44.7031 263.841 44.8518 262.841 44.789C261.842 44.7262 260.867 44.4533 259.98 43.988C259.828 42.5908 259.691 41.5429 259.691 41.5429L259.266 40.9506C259.266 40.9506 259.266 40.4039 259.372 39.432L261.468 36.3946L280.269 20.9495C278.362 25.162 277.299 29.7076 277.141 34.3291C277.171 41.2392 278.629 43.7754 278.629 43.7754Z" fill="#C4734E"/>
<path d="M278.705 41.634C278.474 42.6788 278.034 43.6663 277.413 44.5377C276.792 45.4092 276.002 46.1467 275.09 46.7064C271.856 48.9085 268.454 50.5184 266.343 50.0627L264.232 49.6223C264.232 49.6223 263.913 54.5732 265.158 54.877C266.403 55.1807 272.752 54.5277 275.789 52.0218C278.826 49.516 282.79 46.1749 282.562 45.2485L282.319 44.3221C282.319 44.3221 280.406 40.9354 278.705 41.634Z" fill="#FFD15B"/>
<path d="M261.513 41.2698C261.513 41.2698 259.129 44.9146 260.617 46.7066C261.654 47.8696 262.875 48.8546 264.232 49.6226C264.232 49.6226 262.531 52.5232 261.3 52.6599C260.07 52.7966 259.357 50.8983 258.4 48.7873C257.443 46.6763 259.205 42.7125 259.645 41.9076C260.085 41.1027 261.513 41.2698 261.513 41.2698Z" fill="#FFD15B"/>
<path d="M281.605 23.4856C281.15 27.3431 276.472 35.7263 273.222 38.3232C271.809 39.3827 270.281 40.2794 268.666 40.9961C266.155 42.24 263.524 43.2271 260.815 43.9424C259.174 44.1854 256.76 43.7146 255.985 42.1807C255.211 40.6468 254.178 27.905 254.284 26.6597C254.504 25.3092 254.545 23.9356 254.406 22.5744C253.966 21.29 253.76 19.9372 253.798 18.5802C253.798 17.8361 253.798 16.9553 253.905 15.8466C253.941 15.1067 254.1 14.378 254.375 13.6901C254.772 12.7159 255.368 11.8349 256.123 11.1029C256.879 10.3709 257.778 9.80385 258.764 9.43774C263.031 10.8797 267.597 11.1987 272.023 10.3641C278.523 8.67838 282.076 19.5978 281.605 23.4856Z" fill="#F9C48E"/>
<path d="M281.605 23.4856C281.15 27.3431 276.472 35.7263 273.222 38.3232C271.809 39.3827 270.281 40.2794 268.666 40.9961C271.215 37.3875 272.723 33.1478 273.025 28.7403C272.819 26.2189 272.134 23.7601 271.005 21.4962C270.595 21.2228 265.067 23.8653 257.079 20.4483C255.89 20.0106 254.781 19.3794 253.798 18.5802C253.798 17.8361 253.798 16.9553 253.905 15.8466C253.941 15.1067 254.1 14.378 254.375 13.6901C254.772 12.7159 255.368 11.8349 256.123 11.1029C256.879 10.3709 257.778 9.80385 258.764 9.43774C263.031 10.8797 267.597 11.1987 272.023 10.3641C278.523 8.67838 282.076 19.5978 281.605 23.4856Z" fill="#EAA671"/>
<path d="M280.74 24.0476L277.884 32.1271C277.884 32.1271 282.304 27.738 282.441 26.2345C282.577 24.731 280.74 24.0476 280.74 24.0476Z" fill="#89310B"/>
<path d="M265.386 19.3701C265.386 19.3701 272.25 19.1727 272.979 23.015C273.362 24.7149 273.561 26.4512 273.571 28.1937L275.53 26.8724C275.53 26.8724 275.53 23.8351 276.594 23.182C277.128 22.9396 277.715 22.8374 278.3 22.8853C278.884 22.9331 279.447 23.1293 279.935 23.4554C280.102 23.911 284.126 20.418 281.666 17.3806C279.206 14.3432 265.386 19.3701 265.386 19.3701Z" fill="#89310B"/>
<path d="M272.964 20.0988C272.964 20.0988 281.135 24.989 281.651 25.9761L282.183 26.9481C282.183 26.9481 284.764 24.6853 284.764 13.9633C284.764 3.24134 273.936 0.67478 272.296 0.416603C270.656 0.158425 263.472 0.21918 259.66 4.03109C257.358 6.34151 255.541 9.08833 254.315 12.1105C254.315 12.1105 264.824 16.5755 272.964 20.0988Z" fill="#EDA40F"/>
<path d="M276.244 1.60132C276.244 1.60132 266.464 0.0826012 262.728 5.03353C260.57 8.04819 258.65 11.2269 256.987 14.5406C254.967 13.5382 253.737 12.87 253.737 12.87C253.737 12.87 255.059 8.57209 260.921 2.90738C266.783 -2.75734 276.244 1.60132 276.244 1.60132Z" fill="#DB9405"/>
<path d="M279.722 4.06152C280.42 6.71251 280.162 9.52464 278.993 12.0043C277.613 14.8949 276.051 17.6949 274.316 20.3874C274.316 20.3874 280.74 24.0475 282.228 25.7636C282.653 26.2648 288.728 10.3185 279.722 4.06152Z" fill="#DB9405"/>
<path d="M244.155 14.7685C244.155 14.7685 246.326 12.1412 250.761 14.7685C255.196 17.3959 257.14 20.8433 260.8 21.3141C264.058 21.6733 267.355 21.447 270.534 20.6459C271.324 20.3655 272.137 20.1571 272.964 20.0232C272.964 20.0232 264.657 14.3129 261.361 13.022C259.101 12.2285 256.706 11.8929 254.315 12.0349C254.315 12.0349 243.805 12.6575 244.155 14.7685Z" fill="#FFAB00"/>
<path d="M277.338 24.0171C277.338 24.0171 279.981 21.7391 281.317 23.3945C282.653 25.0498 281.15 27.0697 280.634 28.0568C280.117 29.044 278.052 32.947 276.715 32.6129C275.379 32.2788 276.715 29.3781 276.715 28.9984C276.715 28.6187 276.685 24.4879 277.338 24.0171Z" fill="#F9C48E"/>
<path d="M273.177 74.1038L284.142 80.1937L274.179 85.0839L273.177 74.1038Z" fill="#EFD995"/>
<path d="M201.859 61.6501L200.371 66.2518L206.582 69.7904L209.65 65.9025L201.859 61.6501Z" fill="#D1D1D1"/>
<path d="M196.811 103.021L186.731 96.8276L186.238 97.6299L196.318 103.824L196.811 103.021Z" fill="#A4A4A4"/>
<g style="mix-blend-mode:multiply">
<path d="M200.371 66.252L201.859 67.8769L207.767 71.2333L209.194 67.6491L207.266 69.9272L206.582 69.7905L200.371 66.252Z" fill="#CECECE"/>
</g>
<path d="M266.115 215.342C266.115 215.342 264.201 217.832 260.572 221.948C258.795 223.953 258.704 224.666 256.335 225.456C252.34 226.793 247.875 224.97 247.997 223.193C248.118 221.416 249.136 221.143 251.733 217.711C253.859 214.901 256.289 212.471 256.836 210.953C257.397 211.791 258.06 212.556 258.81 213.231C261.392 214.765 263.867 215.858 266.115 215.342Z" fill="#54544A"/>
<path d="M242.104 200.99C242.104 200.99 240.388 205.045 238.657 206.184C236.925 207.323 232.126 210.163 232.172 211.758C232.218 213.352 235.209 215.281 238.429 214.522C241.649 213.762 246.159 209.069 246.569 208.158L247.997 204.999L242.104 200.99Z" fill="#54544A"/>
<path d="M260.997 13.28C260.997 13.28 257.398 13.5382 256.334 13.7508C254.892 14.0242 251.627 14.9202 251.627 14.9202C251.627 14.9202 257.838 19.8863 259.903 20.5545C264.049 21.891 271.658 19.8104 271.658 19.8104C271.658 19.8104 262.91 13.3256 260.997 13.28Z" fill="#DB9405"/>
<path d="M137.728 234.064L94.8663 209.308V164.583L137.728 189.329V234.064Z" fill="#B76F3F"/>
<path d="M94.8663 164.583V209.308L137.728 234.064L96.1051 208.604L94.8663 164.583Z" fill="#8C4320"/>
<path d="M112.873 219.853V174.979L119.682 178.904V224.164L112.873 219.853Z" fill="#9C480C"/>
<path d="M137.728 189.329L94.8663 164.583L137.728 139.827L180.59 164.583L137.728 189.329Z" fill="#EFD995"/>
<path d="M177.439 164.583L137.847 187.357L94.8663 164.583L137.728 189.329L180.59 164.583L137.728 139.827L177.439 164.583Z" fill="#FFEDB4"/>
<path d="M114.003 153.672L163.713 182.223L171.245 177.942L114.191 153.484L114.003 153.672Z" fill="#AB774D"/>
<path d="M121 149.55L138.779 159.49L131.723 163.543L114.201 153.474L121 149.55Z" fill="#E6E1E4"/>
<path d="M171.443 177.754L163.911 182.025L138.848 167.635L146.102 163.582L171.443 177.754Z" fill="#E6E1E4"/>
<path d="M119.097 178.636L163.415 153.939L163.306 154.594L119.682 178.903L119.097 178.636Z" fill="#C39055"/>
<path d="M146.102 163.582L138.848 167.635L131.723 163.543L138.779 159.489L146.102 163.582Z" fill="#F9F9F9"/>
<path d="M131.723 163.542L138.848 167.635L119.097 178.646L112.289 174.701L131.723 163.542Z" fill="#F1F1F1"/>
<path d="M163.416 153.94L146.102 163.582L138.779 159.489L155.884 149.668L163.416 153.94Z" fill="#F1F1F1"/>
<path d="M112.289 219.585V174.711L119.097 178.636V223.896L112.289 219.585Z" fill="#B3A4AD"/>
<path d="M137.728 234.064L180.59 209.308V164.583L137.728 189.329V234.064Z" fill="#D9AF6A"/>
<path d="M137.728 234.064L180.59 209.308V208.545L137.728 233.291V234.064Z" fill="#9D6F40"/>
<path d="M140.265 202.292L152.475 195.236V185.028L140.503 191.44L140.265 192.094V202.292Z" fill="#9C480C"/>
<path d="M164.209 218.752V174.037L156.855 178.279V222.994L164.209 218.752Z" fill="#9C480C"/>
<path d="M164.486 218.921V173.869L157.142 178.111V223.163L164.486 218.921Z" fill="#D6D6D6"/>
<path d="M107.76 189.488L97.8494 183.74V169.082L107.76 174.83V189.488ZM98.7215 183.204L106.848 187.902V175.365L98.7215 170.668V183.204Z" fill="#A45823"/>
<path d="M100.892 182.342L104.271 184.295V180.281L100.892 178.329V182.342Z" fill="#A45823"/>
<path d="M99.2366 177.407L105.926 181.272L102.576 174.276L99.2366 177.407Z" fill="#A45823"/>
<path d="M140.751 191.638L152.96 184.572L152.712 184.384L140.503 191.44L140.751 191.638Z" fill="#FEFEFE"/>
<path d="M140.751 201.836V191.638L140.503 191.44V201.647L140.751 201.836Z" fill="#8B8B8B"/>
<path d="M140.751 201.836L152.96 194.78V184.572L140.751 191.638V201.836Z" fill="#D6D6D6"/>
<path d="M141.435 193.026L152.277 186.752V186.108L141.435 192.371V193.026Z" fill="#6F6F6F"/>
<path d="M145.914 193.283L152.276 189.616V188.972L145.914 192.639V193.283Z" fill="#8E8E8E"/>
<path d="M141.474 200.151L144.784 198.238V192.748L141.474 194.661V200.151Z" fill="#8E8E8E"/>
<path d="M145.914 194.691L152.276 191.024V190.38L145.914 194.046V194.691Z" fill="#8E8E8E"/>
<path d="M145.914 196.088L152.276 192.431V191.787L145.914 195.444V196.088Z" fill="#8E8E8E"/>
<path d="M145.914 197.495L152.276 193.838V193.184L145.914 196.851V197.495Z" fill="#8E8E8E"/>
<path d="M158.639 170.589L163.554 173.869L157.142 177.576V178.111L164.486 173.869L158.639 170.589Z" fill="#F1F1F1"/>
<path d="M137.462 180.709L104.37 161.596V127.066L137.462 146.171V180.709Z" fill="#B76F3F"/>
<path d="M104.37 127.066V161.596L137.462 180.709L105.326 161.053L104.37 127.066Z" fill="#8C4320"/>
<path d="M118.272 169.737V135.092L123.529 138.122V173.066L118.272 169.737Z" fill="#9C480C"/>
<path d="M137.462 146.171L104.37 127.066L137.462 107.953L170.554 127.066L137.462 146.171Z" fill="#EFD995"/>
<path d="M168.121 127.066L137.554 144.649L104.37 127.066L137.462 146.171L170.554 127.066L137.462 107.953L168.121 127.066Z" fill="#FFEDB4"/>
<path d="M119.145 118.642L157.524 140.685L163.339 137.38L119.29 118.497L119.145 118.642Z" fill="#AB774D"/>
<path d="M124.546 115.459L138.273 123.133L132.825 126.263L119.298 118.489L124.546 115.459Z" fill="#E6E1E4"/>
<path d="M163.492 137.235L157.677 140.532L138.326 129.423L143.927 126.293L163.492 137.235Z" fill="#E6E1E4"/>
<path d="M123.077 137.915L157.294 118.848L157.21 119.353L123.529 138.122L123.077 137.915Z" fill="#C39055"/>
<path d="M143.927 126.293L138.326 129.423L132.825 126.263L138.273 123.133L143.927 126.293Z" fill="#F9F9F9"/>
<path d="M132.825 126.262L138.326 129.422L123.077 137.923L117.821 134.878L132.825 126.262Z" fill="#F1F1F1"/>
<path d="M157.294 118.848L143.927 126.293L138.273 123.133L151.479 115.551L157.294 118.848Z" fill="#F1F1F1"/>
<path d="M117.821 169.531V134.886L123.077 137.916V172.859L117.821 169.531Z" fill="#B3A4AD"/>
<path d="M137.462 180.709L170.554 161.596V127.066L137.462 146.171V180.709Z" fill="#D9AF6A"/>
<path d="M137.462 180.709L170.554 161.596V161.007L137.462 180.112V180.709Z" fill="#9D6F40"/>
<path d="M139.421 156.179L148.847 150.732V142.851L139.604 147.801L139.421 148.306V156.179Z" fill="#9C480C"/>
<path d="M157.906 168.888V134.365L152.229 137.64V172.163L157.906 168.888Z" fill="#9C480C"/>
<path d="M158.12 169.018V134.235L152.451 137.51V172.293L158.12 169.018Z" fill="#D6D6D6"/>
<path d="M114.324 146.294L106.673 141.856V130.54L114.324 134.978V146.294ZM107.346 141.443L113.62 145.07V135.391L107.346 131.764V141.443Z" fill="#A45823"/>
<path d="M109.022 140.777L111.631 142.284V139.186L109.022 137.678V140.777Z" fill="#A45823"/>
<path d="M107.744 136.967L112.909 139.951L110.323 134.549L107.744 136.967Z" fill="#A45823"/>
<path d="M139.795 147.954L149.222 142.498L149.031 142.353L139.604 147.801L139.795 147.954Z" fill="#FEFEFE"/>
<path d="M139.795 155.827V147.954L139.604 147.801V155.682L139.795 155.827Z" fill="#8B8B8B"/>
<path d="M139.795 155.827L149.222 150.38V142.499L139.795 147.954V155.827Z" fill="#D6D6D6"/>
<path d="M140.323 149.025L148.694 144.182V143.685L140.323 148.52V149.025Z" fill="#6F6F6F"/>
<path d="M143.782 149.224L148.694 146.393V145.896L143.782 148.727V149.224Z" fill="#8E8E8E"/>
<path d="M140.354 154.526L142.91 153.05V148.811L140.354 150.287V154.526Z" fill="#8E8E8E"/>
<path d="M143.782 150.311L148.694 147.48V146.982L143.782 149.813V150.311Z" fill="#8E8E8E"/>
<path d="M143.782 151.389L148.694 148.566V148.069L143.782 150.892V151.389Z" fill="#8E8E8E"/>
<path d="M143.782 152.476L148.694 149.653V149.148L143.782 151.979V152.476Z" fill="#8E8E8E"/>
<path d="M153.606 131.703L157.401 134.235L152.451 137.097V137.51L158.12 134.235L153.606 131.703Z" fill="#F1F1F1"/>
<g opacity="0.4">
<path d="M187.012 81.9216L194.709 79.6009L204.666 84.9446L196.969 87.2652L187.012 81.9216Z" fill="black"/>
<path d="M193.131 82.4685L189.866 83.453L187.012 81.9216L194.709 79.6009L196.341 85.0121L194.116 85.7338L193.131 82.4685Z" fill="#FFAB00"/>
<path d="M198.547 84.3979L197.563 81.1326L201.812 83.4134L198.547 84.3979Z" fill="#FFAA00"/>
<path d="M184.12 86.4083L184.426 85.172L183.593 84.725L182.729 85.6621L182.473 85.5245L184.938 82.8537L185.235 83.0129L184.374 86.5448L184.12 86.4083ZM184.496 84.9179L184.836 83.604C184.851 83.5521 184.865 83.4998 184.879 83.4471C184.894 83.3952 184.909 83.345 184.924 83.2967C184.939 83.2483 184.954 83.1996 184.967 83.1505C184.936 83.1919 184.904 83.2322 184.872 83.2715C184.841 83.3093 184.808 83.3482 184.774 83.3881C184.74 83.428 184.704 83.4686 184.665 83.5098L183.761 84.5232L184.496 84.9179ZM184.717 86.7291L186.38 83.6304L186.624 83.7612L185.082 86.6352L186.046 87.1528L185.925 87.3775L184.717 86.7291ZM186.951 87.928L186.705 87.7961L188.249 84.9199L187.586 84.5639L187.705 84.3414L189.28 85.1865L189.16 85.409L188.495 85.0519L186.951 87.928ZM189.281 87.2453L190.698 85.9475L190.954 86.0851L189.245 87.6059L188.598 88.8118L188.352 88.6799L188.996 87.4803L189.32 85.2081L189.577 85.3458L189.281 87.2453ZM191.389 90.3099L191.099 90.1541L191.311 86.7928L191.301 86.7871C191.271 86.8494 191.24 86.912 191.208 86.9749C191.178 87.0386 191.145 87.1048 191.11 87.1733C191.076 87.2405 191.039 87.3101 191.001 87.3822L189.868 89.4932L189.635 89.3681L191.298 86.2694L191.586 86.4241L191.387 89.7599L191.398 89.7656C191.436 89.69 191.474 89.6153 191.51 89.5418C191.546 89.4668 191.582 89.3957 191.616 89.3285C191.65 89.2613 191.681 89.2016 191.709 89.1493L192.817 87.085L193.052 87.2112L191.389 90.3099Z" fill="#FFAB00"/>
<path d="M194.198 89.8842L195.615 88.5865L195.871 88.7241L194.163 90.2448L193.515 91.4508L193.269 91.3189L193.913 90.1192L194.237 87.8471L194.494 87.9847L194.198 89.8842ZM196.063 87.6039L196.045 87.6379C195.987 87.6706 195.919 87.7042 195.841 87.7385C195.763 87.7714 195.68 87.8034 195.593 87.8346C195.506 87.8666 195.422 87.895 195.339 87.9199C195.258 87.9455 195.184 87.9667 195.117 87.9834L194.969 87.9038L194.995 87.855C195.094 87.812 195.189 87.7692 195.279 87.7266C195.37 87.6826 195.457 87.6374 195.54 87.591C195.624 87.5446 195.703 87.4981 195.779 87.4515L196.063 87.6039ZM197.244 91.451C197.127 91.6701 196.998 91.8669 196.859 92.0415C196.721 92.2147 196.574 92.3543 196.419 92.4603C196.266 92.5657 196.104 92.6263 195.934 92.6421C195.763 92.658 195.587 92.6174 195.406 92.5204C195.224 92.4225 195.092 92.2971 195.011 92.1441C194.93 91.9896 194.891 91.8178 194.894 91.6284C194.897 91.4391 194.933 91.2389 195.001 91.0278C195.069 90.8167 195.16 90.6044 195.274 90.3911C195.462 90.0421 195.656 89.7704 195.856 89.576C196.059 89.381 196.266 89.2636 196.477 89.2237C196.688 89.1825 196.902 89.2199 197.118 89.3359C197.35 89.4603 197.501 89.6304 197.571 89.8462C197.641 90.0606 197.645 90.3057 197.583 90.5816C197.521 90.856 197.408 91.1458 197.244 91.451ZM195.528 90.5297C195.371 90.8222 195.265 91.0856 195.21 91.3201C195.156 91.5531 195.155 91.7529 195.208 91.9195C195.26 92.086 195.366 92.2117 195.524 92.2967C195.688 92.3846 195.851 92.4052 196.015 92.3582C196.178 92.3113 196.341 92.2001 196.502 92.0247C196.666 91.8487 196.828 91.6115 196.988 91.3134C197.227 90.8683 197.348 90.4977 197.353 90.2015C197.358 89.9039 197.239 89.6903 196.998 89.5606C196.832 89.4719 196.666 89.4509 196.499 89.4977C196.333 89.5453 196.169 89.6564 196.006 89.8311C195.844 90.0043 195.685 90.2372 195.528 90.5297ZM199.52 92.6339C199.333 92.9815 199.135 93.2513 198.927 93.4433C198.72 93.6346 198.503 93.7457 198.276 93.7764C198.048 93.8071 197.81 93.7557 197.561 93.6223L196.981 93.3106L198.644 90.2119L199.25 90.5373C199.491 90.6669 199.661 90.8318 199.76 91.032C199.858 91.2321 199.887 91.4661 199.847 91.734C199.807 92.0019 199.698 92.3019 199.52 92.6339ZM199.258 92.5102C199.41 92.2276 199.509 91.9728 199.554 91.746C199.601 91.5199 199.588 91.324 199.517 91.1584C199.447 90.9914 199.313 90.8551 199.117 90.7497L198.769 90.5632L197.343 93.221L197.667 93.395C197.968 93.5566 198.249 93.5607 198.509 93.4075C198.77 93.2544 199.02 92.9552 199.258 92.5102ZM200.55 95.2261L200.856 93.9898L200.023 93.5428L199.159 94.4799L198.903 94.3423L201.368 91.6715L201.665 91.8307L200.804 95.3626L200.55 95.2261ZM200.927 93.7357L201.266 92.4219C201.281 92.3699 201.295 92.3176 201.309 92.2649C201.324 92.213 201.339 92.1628 201.354 92.1145C201.369 92.0661 201.384 92.0174 201.397 91.9683C201.366 92.0097 201.334 92.05 201.302 92.0893C201.271 92.1271 201.239 92.166 201.204 92.2059C201.17 92.2458 201.134 92.2864 201.095 92.3276L200.191 93.341L200.927 93.7357Z" fill="black"/>
</g>
</svg>
