<svg width="17" height="17" viewBox="0 0 17 17" fill="none" xmlns="http://www.w3.org/2000/svg">
<path d="M14.4751 3.91554C13.4017 3.80887 12.3284 3.72887 11.2484 3.66887V3.66221L11.1017 2.79554C11.0017 2.18221 10.8551 1.26221 9.29508 1.26221H7.54841C5.99508 1.26221 5.84841 2.14221 5.74174 2.78887L5.60174 3.64221C4.98174 3.68221 4.36174 3.72221 3.74174 3.78221L2.38174 3.91554C2.10174 3.94221 1.90174 4.18887 1.92841 4.46221C1.95508 4.73554 2.19508 4.93554 2.47508 4.90887L3.83508 4.77554C7.32841 4.42887 10.8484 4.56221 14.3817 4.91554C14.4017 4.91554 14.4151 4.91554 14.4351 4.91554C14.6884 4.91554 14.9084 4.72221 14.9351 4.46221C14.9551 4.18887 14.7551 3.94221 14.4751 3.91554Z" fill="white"/>
<path d="M13.2484 5.85522C13.0884 5.68855 12.8684 5.59521 12.6417 5.59521H4.21505C3.98838 5.59521 3.76171 5.68855 3.60838 5.85522C3.45505 6.02188 3.36838 6.24855 3.38171 6.48188L3.79505 13.3219C3.86838 14.3352 3.96171 15.6019 6.28838 15.6019H10.5684C12.895 15.6019 12.9884 14.3419 13.0617 13.3219L13.475 6.48855C13.4884 6.24855 13.4017 6.02188 13.2484 5.85522ZM9.53505 12.2619H7.31505C7.04171 12.2619 6.81505 12.0352 6.81505 11.7619C6.81505 11.4885 7.04171 11.2619 7.31505 11.2619H9.53505C9.80838 11.2619 10.035 11.4885 10.035 11.7619C10.035 12.0352 9.80838 12.2619 9.53505 12.2619ZM10.095 9.59521H6.76171C6.48838 9.59521 6.26171 9.36855 6.26171 9.09521C6.26171 8.82188 6.48838 8.59521 6.76171 8.59521H10.095C10.3684 8.59521 10.595 8.82188 10.595 9.09521C10.595 9.36855 10.3684 9.59521 10.095 9.59521Z" fill="white"/>
</svg>
