<svg width="45" height="45" viewBox="0 0 45 45" fill="none" xmlns="http://www.w3.org/2000/svg">
<path d="M22.5001 32.5312C24.188 32.5312 25.5563 31.1629 25.5563 29.475C25.5563 27.7871 24.188 26.4187 22.5001 26.4187C20.8122 26.4187 19.4438 27.7871 19.4438 29.475C19.4438 31.1629 20.8122 32.5312 22.5001 32.5312Z" fill="#015C9E"/>
<path d="M34.275 17.8687V15.525C34.275 10.4625 33.0562 3.75 22.5 3.75C11.9437 3.75 10.725 10.4625 10.725 15.525V17.8687C5.475 18.525 3.75 21.1875 3.75 27.7313V31.2188C3.75 38.9062 6.09375 41.25 13.7812 41.25H31.2188C38.9062 41.25 41.25 38.9062 41.25 31.2188V27.7313C41.25 21.1875 39.525 18.525 34.275 17.8687ZM22.5 35.1375C19.3687 35.1375 16.8375 32.5875 16.8375 29.475C16.8375 26.3438 19.3875 23.8125 22.5 23.8125C25.6125 23.8125 28.1625 26.3625 28.1625 29.475C28.1625 32.6063 25.6313 35.1375 22.5 35.1375ZM13.7812 17.7C13.6312 17.7 13.5 17.7 13.35 17.7V15.525C13.35 10.0312 14.9062 6.375 22.5 6.375C30.0938 6.375 31.65 10.0312 31.65 15.525V17.7188C31.5 17.7188 31.3687 17.7188 31.2188 17.7188H13.7812V17.7Z" fill="#015C9E"/>
</svg>
