<svg width="24" height="25" viewBox="0 0 24 25" fill="none" xmlns="http://www.w3.org/2000/svg">
<path d="M20.04 7.32018L14.28 3.29018C12.71 2.19018 10.3 2.25018 8.78999 3.42018L3.77999 7.33018C2.77999 8.11018 1.98999 9.71018 1.98999 10.9702V17.8702C1.98999 20.4202 4.05999 22.5002 6.60999 22.5002H17.39C19.94 22.5002 22.01 20.4302 22.01 17.8802V11.1002C22.01 9.75018 21.14 8.09018 20.04 7.32018Z" fill="#FFAB00"/>
<path d="M12 19.25C11.59 19.25 11.25 18.91 11.25 18.5V15.5C11.25 15.09 11.59 14.75 12 14.75C12.41 14.75 12.75 15.09 12.75 15.5V18.5C12.75 18.91 12.41 19.25 12 19.25Z" fill="#DDDDE6"/>
</svg>
