<svg width="360" height="273" viewBox="0 0 360 273" fill="none" xmlns="http://www.w3.org/2000/svg">
<path d="M340.563 174.116C332.281 228.702 252.686 261.894 162.783 248.253C72.8805 234.612 6.71394 179.304 14.9961 124.719C23.2782 70.1333 65.3923 112.506 192.776 50.5819C320.159 -11.342 348.845 119.531 340.563 174.116Z" fill="#EFEFEF"/>
<path d="M328.852 148.898C328.852 148.898 334.472 153.13 334.022 155.368C331.686 166.838 295.964 180.168 279.168 182.868C277.477 183.136 219.035 149.846 176.915 124.803C150.486 109.077 129.955 95.4545 129.955 94.6031C129.955 92.3774 184.237 62.98 184.237 62.98L328.852 148.898Z" fill="#A9A9AB"/>
<path d="M252.312 158.518L258.977 154.261L268.562 147.329C268.562 147.329 262.76 139.581 260.814 140.359C258.868 141.138 251.826 149.287 251.826 149.287L252.312 158.518Z" fill="#000002"/>
<path d="M165.008 108.761L171.673 104.504L181.245 97.559C181.245 97.559 175.443 89.8235 173.497 90.5898C171.551 91.356 164.509 99.5294 164.509 99.5294L165.008 108.761Z" fill="#000002"/>
<path d="M188.433 95.4911C185.83 93.9951 183.459 93.7275 181.634 94.4816C179.445 95.4059 169.265 100.453 169.265 100.453L183.726 125.813C183.726 125.813 193.748 121.106 195.609 120.145C197.47 119.184 198.82 116.776 198.82 113.382C198.796 106.815 194.162 98.7994 188.433 95.4911Z" fill="#040406"/>
<path d="M184.288 125.523C188.312 123.17 188.271 115.612 184.197 108.641C180.122 101.671 173.556 97.9274 169.531 100.28C165.507 102.633 165.547 110.191 169.622 117.161C173.697 124.132 180.263 127.875 184.288 125.523Z" fill="#414143"/>
<path d="M183.353 124.808C187.088 122.625 187.051 115.613 183.271 109.147C179.491 102.681 173.4 99.2092 169.665 101.392C165.93 103.576 165.967 110.587 169.747 117.053C173.527 123.519 179.619 126.991 183.353 124.808Z" fill="#2B2B2D"/>
<path d="M181.818 121.649C184.602 120.022 184.574 114.796 181.757 109.977C178.94 105.158 174.4 102.57 171.616 104.198C168.833 105.825 168.86 111.051 171.677 115.87C174.494 120.689 179.035 123.276 181.818 121.649Z" fill="#161618"/>
<path d="M170.481 109.186C170.607 111.411 171.255 113.574 172.373 115.501C173.491 117.429 175.047 119.065 176.915 120.279C180.467 122.322 183.337 120.68 183.337 116.63C183.215 114.408 182.569 112.246 181.453 110.321C180.337 108.395 178.782 106.761 176.915 105.55C173.364 103.446 170.481 105.112 170.481 109.186Z" fill="#D5D6D5"/>
<path d="M171.028 109.527C171.143 111.563 171.735 113.544 172.758 115.308C173.781 117.073 175.205 118.572 176.915 119.683C180.163 121.556 182.802 120.048 182.802 116.326C182.688 114.29 182.095 112.309 181.073 110.544C180.05 108.78 178.625 107.281 176.915 106.17C173.656 104.26 171.028 105.769 171.028 109.527Z" fill="#ADAFAE"/>
<path d="M172.78 110.524C172.86 111.946 173.274 113.329 173.988 114.561C174.702 115.793 175.697 116.839 176.891 117.615C179.153 118.917 181.002 117.87 181.002 115.268C180.921 113.848 180.507 112.467 179.793 111.237C179.078 110.007 178.084 108.963 176.891 108.189C174.641 106.875 172.78 107.921 172.78 110.524Z" fill="#7E8180"/>
<path d="M177.742 119.379C176.03 118.27 174.604 116.772 173.581 115.007C172.558 113.242 171.967 111.26 171.856 109.223C171.77 108.476 171.896 107.72 172.221 107.042C172.546 106.365 173.056 105.792 173.692 105.392C172.087 105.671 171.028 107.131 171.028 109.503C171.143 111.539 171.735 113.52 172.758 115.284C173.781 117.049 175.205 118.547 176.915 119.659C177.494 120.07 178.168 120.329 178.874 120.412C179.579 120.495 180.294 120.399 180.953 120.133C179.828 120.263 178.692 119.996 177.742 119.379Z" fill="#7E8180"/>
<path d="M176.915 106.146C175.042 105.063 173.376 105.1 172.293 106.048C172.95 105.796 173.659 105.71 174.357 105.797C175.055 105.884 175.72 106.142 176.295 106.547C178.007 107.656 179.433 109.154 180.456 110.919C181.479 112.684 182.07 114.666 182.182 116.703C182.236 117.332 182.155 117.965 181.945 118.561C181.736 119.157 181.402 119.701 180.966 120.157C181.615 119.761 182.137 119.188 182.471 118.505C182.805 117.821 182.937 117.057 182.851 116.302C182.731 114.261 182.131 112.277 181.1 110.513C180.068 108.748 178.635 107.251 176.915 106.146Z" fill="#7E8180"/>
<path d="M179.834 110.609C179.846 110.835 179.912 111.054 180.027 111.249C180.141 111.444 180.3 111.608 180.491 111.728C180.844 111.935 181.136 111.728 181.136 111.351C181.121 111.128 181.056 110.911 180.944 110.717C180.832 110.523 180.677 110.357 180.491 110.232C180.078 110.026 179.834 110.196 179.834 110.609Z" fill="#656566"/>
<path d="M172.841 114.745C172.853 114.97 172.919 115.189 173.033 115.384C173.147 115.579 173.306 115.743 173.497 115.864C173.85 116.07 174.142 115.864 174.142 115.499C174.13 115.275 174.065 115.057 173.953 114.863C173.841 114.668 173.685 114.503 173.497 114.38C173.133 114.173 172.841 114.392 172.841 114.745Z" fill="#656566"/>
<path d="M171.564 111.412C171.576 111.638 171.641 111.857 171.756 112.052C171.87 112.246 172.029 112.411 172.22 112.531C172.573 112.738 172.865 112.531 172.865 112.166C172.857 111.944 172.797 111.727 172.689 111.532C172.581 111.338 172.429 111.172 172.245 111.047C171.831 110.841 171.564 110.999 171.564 111.412Z" fill="#656566"/>
<path d="M171.564 108.311C171.573 108.535 171.637 108.754 171.749 108.949C171.861 109.144 172.019 109.309 172.208 109.43C172.561 109.636 172.853 109.43 172.853 109.065C172.84 108.839 172.776 108.62 172.664 108.423C172.552 108.227 172.396 108.059 172.208 107.934C171.831 107.678 171.564 107.848 171.564 108.311Z" fill="#656566"/>
<path d="M173.68 106.291C173.694 106.515 173.76 106.732 173.872 106.926C173.984 107.12 174.138 107.286 174.325 107.41C174.689 107.617 174.981 107.41 174.981 107.033C174.969 106.808 174.904 106.589 174.789 106.394C174.675 106.199 174.516 106.035 174.325 105.914C173.996 105.708 173.68 105.878 173.68 106.291Z" fill="#656566"/>
<path d="M177.244 107.484C177.256 107.707 177.321 107.925 177.433 108.12C177.545 108.314 177.701 108.479 177.888 108.603C178.253 108.809 178.545 108.603 178.545 108.225C178.533 108 178.467 107.781 178.353 107.586C178.239 107.391 178.079 107.227 177.888 107.107C177.535 106.9 177.244 107.094 177.244 107.484Z" fill="#656566"/>
<path d="M181.075 114.173C181.087 114.398 181.153 114.618 181.267 114.812C181.381 115.007 181.541 115.171 181.732 115.292C182.084 115.499 182.376 115.292 182.376 114.915C182.362 114.691 182.296 114.474 182.185 114.28C182.073 114.086 181.918 113.92 181.732 113.796C181.367 113.589 181.075 113.759 181.075 114.173Z" fill="#656566"/>
<path d="M180.734 117.481C180.747 117.705 180.812 117.923 180.924 118.117C181.036 118.312 181.192 118.477 181.379 118.6C181.744 118.807 182.036 118.6 182.036 118.235C182.024 118.01 181.958 117.791 181.844 117.596C181.729 117.401 181.57 117.237 181.379 117.116C181.026 116.91 180.734 117.068 180.734 117.481Z" fill="#656566"/>
<path d="M178.217 118.831C178.228 119.057 178.293 119.277 178.405 119.474C178.516 119.67 178.673 119.837 178.861 119.963C179.214 120.169 179.506 119.963 179.506 119.586C179.493 119.362 179.428 119.144 179.316 118.949C179.205 118.755 179.049 118.59 178.861 118.466C178.496 118.26 178.217 118.43 178.217 118.831Z" fill="#656566"/>
<path d="M175.212 117.481C175.225 117.705 175.29 117.923 175.402 118.117C175.514 118.312 175.67 118.477 175.857 118.6C176.222 118.807 176.514 118.6 176.514 118.235C176.502 118.01 176.436 117.791 176.322 117.596C176.207 117.401 176.048 117.237 175.857 117.116C175.504 116.91 175.212 117.068 175.212 117.481Z" fill="#656566"/>
<path d="M172.378 110.743C172.456 112.164 172.869 113.546 173.584 114.776C174.298 116.006 175.294 117.05 176.489 117.822C178.752 119.135 180.588 118.089 180.588 115.487C180.509 114.066 180.096 112.684 179.384 111.452C178.672 110.221 177.681 109.174 176.489 108.396C174.215 107.094 172.378 108.128 172.378 110.743Z" fill="#D5D6D5"/>
<path d="M173.011 111.096C173.08 112.298 173.43 113.467 174.035 114.509C174.639 115.551 175.48 116.436 176.489 117.092C178.399 118.199 179.956 117.311 179.956 115.11C179.888 113.908 179.54 112.74 178.937 111.698C178.335 110.657 177.497 109.771 176.489 109.113C174.568 108.006 173.011 108.894 173.011 111.096Z" fill="#2B2B2D"/>
<path d="M173.315 111.582C173.374 112.613 173.674 113.616 174.192 114.51C174.71 115.404 175.43 116.163 176.295 116.727C177.949 117.676 179.275 116.91 179.275 115.025C179.219 113.993 178.919 112.989 178.402 112.095C177.884 111.201 177.162 110.442 176.295 109.88C174.653 108.931 173.315 109.685 173.315 111.582Z" fill="#59595B"/>
<path style="mix-blend-mode:screen" d="M176.49 110.16C176.49 110.16 174.653 108.846 173.777 110.281C173.514 110.737 173.415 111.269 173.498 111.789C174.164 112.753 175.011 113.579 175.991 114.222C176.909 114.844 177.868 115.405 178.861 115.9C179.048 115.403 179.124 114.872 179.084 114.342C179.044 113.813 178.889 113.299 178.63 112.835C177.645 110.622 176.49 110.16 176.49 110.16Z" fill="url(#paint0_linear_708_20620)"/>
<path d="M276.394 146.222C273.792 144.726 271.42 144.458 269.595 145.213C267.406 146.137 257.226 151.184 257.226 151.184L271.663 176.544C271.663 176.544 281.697 171.837 283.558 170.876C285.419 169.915 286.769 167.507 286.769 164.113C286.769 157.546 282.123 149.53 276.394 146.222Z" fill="#040406"/>
<path d="M272.254 176.254C276.279 173.901 276.238 166.343 272.163 159.373C268.088 152.402 261.523 148.659 257.498 151.011C253.473 153.364 253.514 160.922 257.589 167.892C261.664 174.863 268.23 178.606 272.254 176.254Z" fill="#414143"/>
<path d="M271.32 175.551C275.054 173.368 275.018 166.356 271.238 159.89C267.458 153.424 261.366 149.952 257.632 152.136C253.897 154.319 253.934 161.33 257.714 167.796C261.494 174.262 267.585 177.734 271.32 175.551Z" fill="#2B2B2D"/>
<path d="M257.518 159.516C257.658 161.993 258.38 164.403 259.625 166.549C260.869 168.696 262.602 170.52 264.682 171.873C268.634 174.16 271.845 172.335 271.845 167.786C271.705 165.309 270.983 162.899 269.738 160.753C268.494 158.606 266.762 156.782 264.682 155.429C260.716 153.142 257.518 154.967 257.518 159.516Z" fill="#161618"/>
<path d="M258.442 159.917C258.568 162.142 259.216 164.305 260.334 166.232C261.452 168.159 263.008 169.796 264.876 171.01C268.428 173.053 271.31 171.411 271.31 167.361C271.185 165.138 270.538 162.976 269.42 161.05C268.302 159.125 266.745 157.491 264.876 156.281C261.325 154.201 258.442 155.843 258.442 159.917Z" fill="#D5D6D5"/>
<path d="M258.989 160.233C259.106 162.269 259.7 164.249 260.723 166.013C261.745 167.777 263.168 169.276 264.876 170.389C268.124 172.262 270.763 170.754 270.763 167.032C270.649 164.996 270.056 163.015 269.033 161.251C268.011 159.486 266.586 157.988 264.876 156.876C261.629 154.991 258.989 156.499 258.989 160.233Z" fill="#ADAFAE"/>
<path d="M260.765 161.255C260.847 162.677 261.262 164.059 261.976 165.29C262.69 166.522 263.684 167.569 264.876 168.346C267.151 169.647 268.987 168.601 268.987 165.999C268.91 164.578 268.496 163.196 267.782 161.966C267.067 160.735 266.072 159.692 264.876 158.92C262.614 157.606 260.765 158.652 260.765 161.255Z" fill="#7E8180"/>
<path d="M265.703 170.11C263.993 168.999 262.569 167.5 261.546 165.735C260.523 163.971 259.931 161.99 259.816 159.954C259.731 159.207 259.857 158.451 260.182 157.773C260.507 157.095 261.017 156.523 261.653 156.123C260.048 156.402 258.989 157.862 258.989 160.234C259.106 162.269 259.7 164.249 260.723 166.013C261.745 167.777 263.168 169.276 264.876 170.389C265.458 170.801 266.133 171.06 266.841 171.143C267.548 171.226 268.265 171.13 268.926 170.864C267.797 170.997 266.656 170.73 265.703 170.11Z" fill="#7E8180"/>
<path d="M264.876 156.877C263.003 155.794 261.337 155.831 260.266 156.779C260.923 156.527 261.632 156.441 262.33 156.528C263.028 156.615 263.693 156.873 264.268 157.278C265.978 158.389 267.403 159.888 268.425 161.652C269.448 163.417 270.041 165.398 270.155 167.434C270.201 168.067 270.111 168.704 269.89 169.299C269.67 169.895 269.325 170.437 268.878 170.888C269.527 170.492 270.049 169.919 270.383 169.235C270.717 168.552 270.849 167.788 270.763 167.033C270.649 164.996 270.056 163.016 269.033 161.251C268.011 159.486 266.586 157.988 264.876 156.877Z" fill="#7E8180"/>
<path d="M267.807 161.34C267.82 161.564 267.885 161.782 267.997 161.976C268.109 162.171 268.265 162.336 268.452 162.459C268.817 162.666 269.097 162.459 269.097 162.082C269.085 161.858 269.021 161.64 268.909 161.445C268.797 161.251 268.64 161.085 268.452 160.963C268.099 160.756 267.807 160.927 267.807 161.34Z" fill="#656566"/>
<path d="M260.814 165.475C260.826 165.699 260.891 165.917 261.003 166.111C261.115 166.306 261.271 166.471 261.458 166.594C261.811 166.801 262.103 166.594 262.103 166.23C262.09 166.006 262.026 165.788 261.914 165.593C261.802 165.399 261.646 165.234 261.458 165.111C261.106 164.904 260.814 165.062 260.814 165.475Z" fill="#656566"/>
<path d="M259.488 162.143C259.501 162.367 259.566 162.585 259.677 162.779C259.789 162.973 259.945 163.139 260.133 163.262C260.498 163.469 260.79 163.262 260.79 162.897C260.782 162.673 260.721 162.455 260.611 162.26C260.501 162.065 260.345 161.9 260.157 161.778C259.804 161.571 259.488 161.729 259.488 162.143Z" fill="#656566"/>
<path d="M259.513 158.993C259.525 159.217 259.59 159.435 259.702 159.629C259.814 159.823 259.97 159.989 260.157 160.112C260.522 160.319 260.814 160.112 260.814 159.747C260.802 159.52 260.736 159.299 260.622 159.102C260.508 158.906 260.348 158.739 260.157 158.616C259.804 158.409 259.513 158.579 259.513 158.993Z" fill="#656566"/>
<path d="M261.641 157.022C261.655 157.247 261.722 157.466 261.836 157.66C261.95 157.855 262.108 158.019 262.298 158.141C262.651 158.348 262.942 158.141 262.942 157.764C262.93 157.54 262.865 157.322 262.753 157.128C262.641 156.934 262.485 156.768 262.298 156.645C261.933 156.438 261.641 156.609 261.641 157.022Z" fill="#656566"/>
<path d="M265.217 158.178C265.229 158.403 265.295 158.623 265.409 158.817C265.523 159.012 265.683 159.177 265.874 159.297C266.226 159.504 266.518 159.297 266.518 158.92C266.504 158.696 266.438 158.479 266.326 158.285C266.215 158.091 266.06 157.926 265.874 157.801C265.497 157.631 265.217 157.801 265.217 158.178Z" fill="#656566"/>
<path d="M269.048 164.904C269.061 165.128 269.125 165.346 269.237 165.54C269.349 165.734 269.505 165.9 269.693 166.023C270.057 166.23 270.337 166.023 270.337 165.646C270.326 165.422 270.261 165.203 270.149 165.009C270.037 164.814 269.881 164.649 269.693 164.527C269.34 164.32 269.048 164.49 269.048 164.904Z" fill="#656566"/>
<path d="M268.695 168.212C268.707 168.437 268.773 168.657 268.887 168.851C269.002 169.046 269.161 169.211 269.352 169.331C269.705 169.538 269.997 169.331 269.997 168.966C269.984 168.742 269.919 168.524 269.807 168.33C269.695 168.136 269.539 167.97 269.352 167.847C268.987 167.64 268.695 167.798 268.695 168.212Z" fill="#656566"/>
<path d="M266.178 169.562C266.19 169.788 266.255 170.007 266.367 170.204C266.479 170.4 266.635 170.567 266.822 170.693C267.187 170.9 267.479 170.693 267.479 170.316C267.467 170.091 267.401 169.871 267.287 169.677C267.173 169.482 267.013 169.318 266.822 169.197C266.433 168.99 266.178 169.124 266.178 169.562Z" fill="#656566"/>
<path d="M263.174 168.212C263.186 168.436 263.251 168.654 263.363 168.848C263.475 169.042 263.631 169.208 263.818 169.331C264.183 169.538 264.475 169.331 264.475 168.966C264.463 168.741 264.397 168.521 264.283 168.327C264.169 168.132 264.009 167.967 263.818 167.847C263.465 167.64 263.174 167.798 263.174 168.212Z" fill="#656566"/>
<path d="M260.352 161.462C260.43 162.883 260.843 164.265 261.557 165.495C262.272 166.725 263.267 167.769 264.463 168.541C266.725 169.854 268.574 168.808 268.574 166.205C268.492 164.784 268.077 163.402 267.363 162.17C266.649 160.938 265.656 159.892 264.463 159.114C262.176 157.813 260.352 158.859 260.352 161.462Z" fill="#D5D6D5"/>
<path d="M266.929 168.063C268.28 167.273 268.268 164.738 266.901 162.401C265.535 160.064 263.332 158.81 261.981 159.6C260.63 160.389 260.642 162.924 262.008 165.261C263.374 167.598 265.577 168.853 266.929 168.063Z" fill="#2B2B2D"/>
<path d="M266.375 167.67C267.535 166.992 267.524 164.815 266.351 162.809C265.178 160.802 263.287 159.725 262.128 160.403C260.968 161.081 260.978 163.258 262.151 165.264C263.324 167.271 265.215 168.348 266.375 167.67Z" fill="#59595B"/>
<path style="mix-blend-mode:screen" d="M264.45 160.89C264.45 160.89 262.614 159.577 261.738 161.012C261.485 161.471 261.387 162 261.458 162.52C262.112 163.474 262.937 164.299 263.891 164.953C264.81 165.575 265.768 166.136 266.761 166.631C266.95 166.135 267.028 165.604 266.99 165.074C266.953 164.545 266.8 164.03 266.542 163.566C266.168 162.463 265.431 161.52 264.45 160.89Z" fill="url(#paint1_linear_708_20620)"/>
<path d="M327.077 131.858C327.32 132.198 327.539 132.539 327.746 132.892C328.289 133.793 328.721 134.757 329.035 135.762C329.594 134.765 330.178 133.779 330.64 132.733C331.017 131.882 331.334 131.018 331.686 130.167L331.297 117.919L322.199 105.878L321.299 105.331C320.399 104.771 318.624 103.786 318.624 103.786C318.624 103.786 306.12 80.543 303.846 76.8699C301.571 73.1967 299.297 68.0762 293.082 63.7462C286.867 59.4163 280.627 55.4999 280.627 55.4999C276.321 52.8849 237.851 30.7365 217.381 19.0116L210.144 14.8398C209.473 14.4068 208.678 14.206 207.882 14.2682H207.772C207.294 14.3542 206.862 14.6088 206.556 14.9858C206.251 15.3577 206.045 15.8015 205.96 16.275L202.822 20.6293L201.764 43.2399L201.971 59.4163L200.474 59.7204C200.474 59.7204 200.973 66.3856 201.326 68.0154C201.326 68.2465 201.435 68.4533 201.484 68.6722C201.931 70.3163 202.932 71.7556 204.318 72.7467C206.349 74.3157 214.62 80.0444 214.62 80.0444C214.68 79.0636 214.83 78.0904 215.07 77.1375C215.994 73.4035 218.792 67.9059 227.16 72.7345C231.914 75.5932 235.47 80.0787 237.17 85.3595C237.898 87.4623 238.408 89.6347 238.69 91.8422C238.838 92.9064 238.92 93.9788 238.933 95.0532L242.947 96.8289L299.467 129.449C301.996 130.975 304.433 132.648 306.765 134.461L307.75 127.966C307.837 127.358 307.992 126.763 308.212 126.19C310.024 121.495 315.777 121.909 323.379 127.856C324.803 129 326.049 130.348 327.077 131.858Z" fill="#F6B100"/>
<path d="M318.076 101.67C315.911 103.421 312.566 106.109 309.185 108.748C305.123 111.947 301.024 115.061 298.956 116.338C298.178 116.824 297.168 117.396 295.988 118.041C293.665 119.257 290.685 120.826 287.535 122.395C282.926 124.669 277.939 127.053 274.022 128.902C272.502 129.62 271.152 130.264 270.033 130.775L268.963 130.143L253.54 100.247L269.802 90.784L283.181 83.012L291.586 78.1469L301.194 72.5642L306.132 81.0781L318.076 101.67Z" fill="#D3CABB"/>
<path d="M311.849 103.993L313.953 102.071C313.953 102.071 311.764 97.0357 309.185 92.195C305.792 85.8095 302.508 79.6673 301.097 76.9428C300.516 75.8241 299.857 74.7472 299.127 73.7197L283.571 82.6958C283.953 83.2436 284.436 83.714 284.994 84.0824C287.013 85.2987 290.467 87.5488 292.668 89.2029C295.764 91.7451 298.667 94.5136 301.352 97.4857L311.849 103.993Z" fill="white"/>
<path d="M265.521 123.976L267.297 119.111L284.86 110.974L291.014 112.945L311.8 97.4006L318.076 101.658L298.823 117.907L270.033 130.775L268.951 130.143L265.521 123.976Z" fill="#9E9382"/>
<g style="mix-blend-mode:screen">
<path d="M287.536 122.395C282.926 124.67 277.939 127.053 274.023 128.902L269.802 90.7841L283.181 83.0122L287.536 122.395ZM306.12 81.0418L301.182 72.5278L291.574 78.1106L295.989 118.041C297.205 117.396 298.178 116.825 298.956 116.338C301.024 115.061 305.123 111.947 309.185 108.749L306.12 81.0418Z" fill="#616060"/>
</g>
<path d="M300.574 73.1116L299.698 73.3913L316.008 101.487C311.229 105.355 300.671 113.82 296.889 116.168C291.634 119.427 276.407 126.652 268.914 130.143L269.985 130.775C276.905 127.54 293.422 119.744 298.92 116.338C302.69 113.991 312.299 106.267 317.164 102.4L300.574 73.1116Z" fill="#6A6455"/>
<path d="M302.435 120.559L319.365 103.871L318.076 101.658C313.308 105.525 302.739 113.991 298.968 116.338C293.471 119.744 276.954 127.54 270.033 130.775L272.6 132.101L302.435 120.559Z" fill="#363638"/>
<path d="M300.574 73.1118C300.574 73.1118 296.706 77.1984 282.938 84.8123C264.694 94.8952 253.747 99.5536 253.747 99.5536L238.666 91.8303L215.046 77.1255L201.46 68.6724L160.106 42.8265L159.17 42.2427L206.544 14.9008C206.85 14.5239 207.282 14.2692 207.76 14.1832H207.869C208.347 14.1359 208.828 14.194 209.28 14.3535C209.575 14.4618 209.86 14.5961 210.132 14.7548L217.369 18.9267C237.814 30.6881 276.285 52.8365 280.615 55.415C280.615 55.415 286.854 59.3435 293.07 63.6613C299.285 67.9791 298.3 69.39 300.574 73.1118Z" fill="#FFD15A"/>
<path d="M293.082 63.6855L241.256 93.5938L252.507 100.599C252.507 100.599 263.453 95.9412 281.697 85.8583C295.466 78.2565 301.158 72.4792 301.158 72.4792C299.158 68.9801 296.398 65.9749 293.082 63.6855Z" fill="#FFAD2E"/>
<path d="M209.268 14.3289C204.719 17.1264 197.957 21.1157 189.005 26.066C175.833 33.3636 166.127 39.1045 160.058 42.8263L159.121 42.2424L206.495 14.9006C206.802 14.5236 207.233 14.269 207.711 14.1829H207.821C208.308 14.1224 208.803 14.1723 209.268 14.3289Z" fill="#FFAD2E"/>
<path d="M287.584 160.087L287.098 148.63L276.09 135.142L275.178 134.594C274.29 134.035 272.514 133.05 272.514 133.05C272.514 133.05 259.281 106.924 256.995 103.251C254.708 99.5777 253.176 97.364 246.973 93.0097C240.77 88.6555 231.964 83.5106 231.964 83.5106C226.868 80.4091 175.699 50.9631 161.505 42.8019C159.474 41.5856 157.722 42.2302 157.284 44.2492L156.068 49.7103L153.076 71.2141L153.259 87.4878L153.076 88.0351C153.076 88.0351 152.249 94.4571 152.614 96.0869C152.958 97.9933 154.031 99.6905 155.606 100.818C156.433 101.463 158.33 102.813 160.264 104.175C161.267 103.253 162.408 102.493 163.646 101.925C164.205 101.67 164.777 101.451 165.336 101.183L165.786 100.916C166.408 100.189 167.213 99.6425 168.118 99.3344C169.024 99.0262 169.995 98.9674 170.931 99.1641C172.731 98.6046 175.152 98.8965 178.435 100.794C183.187 103.647 186.74 108.129 188.433 113.407C188.604 113.881 188.762 114.355 188.895 114.818C189.716 117.504 190.158 120.292 190.209 123.1L194.235 124.876C194.235 124.876 247.471 155.393 250.755 157.509C251.619 158.08 252.3 158.579 252.3 158.579V158.518C252.372 156.276 252.782 154.058 253.516 151.938C253.711 151.306 254.647 150.272 254.842 149.749C256.654 145.054 267.005 149.968 274.619 155.916C276.018 156.995 277.248 158.278 278.267 159.722C278.818 159.93 279.358 160.166 279.885 160.428H283.157C284.3 160.428 286.416 160.695 287.621 160.1L287.584 160.087Z" fill="#E18802"/>
<path style="mix-blend-mode:screen" d="M248.262 123.21C249.955 124.963 251.803 126.558 253.784 127.978L273.731 138.584L284.361 146.757L274.874 135.142L271.298 133.05C271.298 133.05 262.784 110.062 252.58 100.052C242.375 90.0423 212.443 72.8807 212.443 72.8807L160.264 42.8022C160.264 42.8022 158.44 41.44 157.272 44.0185C157.212 44.2374 156.056 49.6863 156.056 49.6863L153.064 71.2022L216.663 107.094C216.663 107.094 245.635 120.474 248.262 123.21Z" fill="url(#paint2_linear_708_20620)"/>
<path style="mix-blend-mode:multiply" d="M286.404 160.087L285.93 148.63L272.733 139.131L252.203 128.403C252.203 128.403 250.78 126.713 248.152 123.952C245.525 121.191 223.097 111.522 223.097 111.522L153.088 71.2263L153.271 87.4879L163.767 101.816C163.767 101.816 165.957 95.3329 175.383 98.5195C184.809 101.706 187.545 111.181 187.545 111.181L258.783 153.434L261.373 149.907L269.449 151.123L286.477 163.189L289.311 161.839L286.404 160.087Z" fill="url(#paint3_linear_708_20620)"/>
<path style="mix-blend-mode:multiply" d="M254.039 149.664C253.395 152.157 252.312 158.47 252.312 158.47V158.531C252.312 158.531 251.436 157.898 250.767 157.46C247.484 155.344 194.247 124.828 194.247 124.828L190.221 123.052C190.17 120.243 189.728 117.456 188.908 114.769L254.039 149.664Z" fill="url(#paint4_linear_708_20620)"/>
<path style="mix-blend-mode:multiply" d="M250.767 157.509C251.436 157.947 252.312 158.579 252.312 158.579V158.518C252.312 158.518 252.543 157.156 252.859 155.453L190.027 120.181C190.147 121.146 190.212 122.116 190.221 123.088L194.247 124.864C194.247 124.864 247.483 155.393 250.767 157.509Z" fill="url(#paint5_linear_708_20620)"/>
<g style="mix-blend-mode:multiply">
<path d="M252.349 156.39L233.436 145.443V132.405L232.913 130.495L229.945 128.768V110.816L231.55 89.3001C231.587 88.9376 231.713 88.59 231.918 88.2892C232.124 87.9883 232.401 87.7438 232.726 87.578C233.05 87.4122 233.411 87.3304 233.775 87.3401C234.139 87.3499 234.495 87.4509 234.81 87.6338C235.771 88.2297 237.097 89.0568 238.884 90.2001C243.75 93.2529 249.016 96.9261 251.716 100.903C253.407 103.409 256.727 109.721 259.403 114.793C260.619 117.104 261.714 119.184 262.492 120.595C264.925 125.107 268.014 132.271 268.051 132.344V132.453L269.097 140.457L264.913 145.614L262.2 144.592C259.123 143.437 256.946 143.655 255.535 145.261C253.589 147.462 252.385 155.733 252.373 155.818L252.349 156.39ZM234.238 144.993L251.716 155.088C252.045 153.106 253.188 146.745 254.988 144.701C256.63 142.84 259.172 142.536 262.541 143.814L264.706 144.628L268.355 140.189L267.357 132.587C267.078 131.931 264.207 125.229 261.86 120.96C261.081 119.549 259.987 117.457 258.758 115.146C256.095 110.086 252.786 103.798 251.12 101.329C248.505 97.4735 243.287 93.8733 238.532 90.8569L234.457 88.2906C234.253 88.1766 234.022 88.1168 233.788 88.1168C233.554 88.1168 233.324 88.1766 233.119 88.2906C232.91 88.3971 232.731 88.5562 232.601 88.7523C232.471 88.9484 232.394 89.1748 232.377 89.4095L230.772 110.901V128.355L233.594 129.96L234.226 132.393L234.238 144.993Z" fill="#E0C700"/>
</g>
<path d="M253.395 149.47C253.893 149.749 253.723 150.163 254.526 150.528C256.326 145.833 262.93 146.161 270.532 152.109C271.936 153.443 273.136 154.976 274.096 156.658C274.327 156.998 274.752 156.804 274.959 157.156L276.248 156.281C274.479 152.724 271.648 149.804 268.148 147.925C261.969 144.361 260.996 144.446 258.868 144.41C256.739 144.373 254.051 146.709 253.395 149.47Z" fill="#909092"/>
<path d="M153.088 71.2263C153.088 71.2263 155.521 72.1263 155.861 74.2791C156.202 76.432 156.372 89.3245 156.372 89.3245L153.319 87.4879L153.088 71.2263Z" fill="#F63D00"/>
<path d="M154.937 73.8656C155.217 75.8846 155.424 87.4271 155.448 88.7772L156.372 89.3245C156.372 89.3245 156.166 76.432 155.861 74.2791C155.557 72.1263 153.088 71.2263 153.088 71.2263V71.2871C153.567 71.5548 153.981 71.9246 154.3 72.3703C154.62 72.8159 154.837 73.3264 154.937 73.8656Z" fill="#B02300"/>
<path d="M334.703 135.701C334.618 138.565 334.272 141.415 333.669 144.215C333.44 145.261 332.979 146.242 332.319 147.085C332.319 147.085 322.589 156.451 317.821 159.479C310.608 164.016 285.395 173.211 284.981 173.345L285.115 171.387L285.881 160.44C286.21 160.44 286.55 160.343 286.903 160.27C287.752 160.08 288.588 159.84 289.409 159.552C289.409 159.552 308.164 153.726 313.406 150.637C319.329 147.146 332.927 133.244 332.927 133.244L334.289 131.675L334.703 135.701Z" fill="#363638"/>
<path d="M286.429 169.964C286.283 170.401 286.137 170.803 286.015 171.18C285.753 171.926 285.415 172.644 285.006 173.321C284.777 173.551 284.483 173.706 284.163 173.765C283.843 173.823 283.514 173.783 283.218 173.649C282.184 173.187 277.975 171.703 277.975 171.703C278.061 167.02 276.889 162.4 274.582 158.324C274.375 157.971 274.144 157.631 273.913 157.29L274.947 155.745L277.015 157.168L283.096 160.051L286.915 159.832V160.282L287.085 163.931C287.152 165.963 286.931 167.994 286.429 169.964Z" fill="#2B2B2D"/>
<path d="M334.703 135.701C334.618 138.565 334.272 141.415 333.669 144.215C333.44 145.261 332.979 146.242 332.319 147.086C332.319 147.086 322.588 156.451 317.821 159.479C310.608 164.016 285.395 173.211 284.981 173.345C284.752 173.575 284.458 173.73 284.139 173.789C283.819 173.848 283.489 173.807 283.193 173.673C282.159 173.211 277.951 171.727 277.951 171.727C278.036 167.044 276.864 162.424 274.558 158.348C276.695 160.347 278.107 163 278.571 165.889C279.228 170.56 279.326 170.924 279.326 170.924C281.204 171.469 283.175 171.622 285.115 171.374C285.411 171.327 285.703 171.262 285.991 171.18C286.234 171.107 286.502 171.022 286.745 170.924C289.931 169.611 311.143 162.119 313.77 160.075C316.398 158.032 325.203 152.498 330.592 147.329C333.669 144.385 334.24 137.83 334.24 137.83V131.748L334.703 135.701Z" fill="#171719"/>
<path d="M253.054 150.625C253.553 150.905 255.231 149.105 256.034 149.469C257.311 147.803 262.59 147.317 270.191 153.276C271.643 154.408 272.911 155.758 273.95 157.278C274.193 157.618 274.412 157.971 274.619 158.312L275.896 157.436C274.134 153.878 271.307 150.957 267.808 149.08C261.617 145.516 260.644 145.602 258.527 145.565C256.411 145.529 253.674 147.864 253.054 150.625Z" fill="#2B2B2D"/>
<path d="M188.847 109.527C188.479 108.789 188.073 108.07 187.631 107.374C186.73 105.939 184.651 102.12 177.718 98.1181C170.785 94.1166 168.353 96.8411 168.353 96.8411L156.397 89.3366L153.319 87.4879V86.1013L150.887 88.4488C150.887 88.4488 152.298 94.445 152.663 96.087C153.004 97.9908 154.079 99.6849 155.655 100.806C156.737 101.658 159.632 103.701 162.077 105.416C163.609 103.14 165.541 101.162 167.781 99.5777C168.33 99.1842 168.965 98.9271 169.634 98.8277C170.302 98.7283 170.984 98.7894 171.624 99.006C173.339 98.6898 175.577 99.1155 178.484 100.794C183.235 103.651 186.791 108.131 188.494 113.407L253.857 148.448C254.027 148.178 254.222 147.926 254.441 147.694C254.441 147.694 254.441 147.596 254.526 147.548L188.847 109.527Z" fill="#909092"/>
<path d="M254.331 150.88C254.764 150.279 255.336 149.791 255.997 149.457L187.886 110.159C187.522 109.419 187.116 108.7 186.67 108.006C185.757 106.559 183.69 102.752 176.757 98.7507C169.824 94.7491 167.38 97.5344 167.38 97.5344L155.436 90.0299L152.322 88.1934L150.814 88.4974C150.814 88.4974 151.313 95.1627 151.677 96.7925C152.021 98.6988 153.094 100.396 154.669 101.524C156.688 103.093 164.971 108.821 164.971 108.821C165.033 107.769 165.2 106.726 165.47 105.708C166.443 101.974 169.289 96.7681 177.499 101.512C182.256 104.361 185.814 108.844 187.509 114.124L253.455 152.218C253.455 152.218 254.27 151.026 254.331 150.88Z" fill="#2B2B2D"/>
<path d="M165.482 105.647C165.213 106.665 165.046 107.709 164.983 108.76C164.983 108.76 156.701 103.044 154.682 101.463C153.107 100.335 152.033 98.6378 151.69 96.7315C151.325 95.1017 150.826 88.4365 150.826 88.4365C150.826 88.4365 151.909 96.2085 154.365 98.8357C155.497 100.028 160.41 102.862 165.482 105.647Z" fill="#1D1D1F"/>
<path d="M153.222 73.5615L154.244 74.1575L154.39 80.2754L153.259 79.6186L153.222 73.5615Z" fill="#FEF7E5"/>
<path d="M153.222 80.9565L154.244 81.5525L154.39 87.6704L153.259 87.0257L153.222 80.9565Z" fill="#FE9529"/>
<path d="M230.334 115.766L234.384 118.102C234.599 118.279 234.771 118.503 234.889 118.755C235.006 119.007 235.067 119.283 235.065 119.561V122.967C235.065 122.967 235.065 123.757 234.311 123.307L230.334 121.009V115.766Z" fill="#2B2B2D"/>
<path d="M233.521 122.225L231.867 121.264V117.372L233.521 118.333V122.225Z" fill="#0C0C0E"/>
<path d="M263.368 127.552L261.252 129.486L251.4 124.621C251.4 124.621 250.183 123.332 248.614 121.702C246.771 119.787 244.8 117.999 242.715 116.35C241.195 115.207 239.067 113.796 237.242 112.628L235.041 111.23C234.355 110.751 233.777 110.133 233.345 109.417C232.913 108.7 232.638 107.9 232.535 107.07L233.289 90.9908C233.18 89.7015 234.007 89.1055 235.089 89.7137C236.841 90.711 237.303 91.0151 241.086 93.5693C241.645 93.9463 242.387 94.4085 243.263 95.0167C246.608 97.3343 249.317 100.454 251.144 104.09C251.643 105.051 252.361 106.425 253.261 108.104L259.233 119.33C261.811 124.122 263.368 127.552 263.368 127.552Z" fill="#7A6457"/>
<g style="mix-blend-mode:screen">
<path d="M253.261 108.092L248.615 121.69C246.771 119.775 244.8 117.987 242.716 116.338C241.195 115.195 239.067 113.784 237.242 112.616L243.324 95.0046C246.669 97.3223 249.378 100.442 251.205 104.078C251.643 105.039 252.373 106.413 253.261 108.092Z" fill="#2F2E2E"/>
</g>
<path d="M261.714 128.683L251.85 123.818C249.164 120.846 246.261 118.077 243.166 115.535C240.964 113.881 237.51 111.692 235.503 110.427C234.814 109.951 234.234 109.334 233.802 108.617C233.37 107.9 233.096 107.099 232.997 106.267L233.752 90.1759C233.727 89.9903 233.727 89.8021 233.752 89.6165C233.551 89.7749 233.399 89.9867 233.313 90.2276C233.227 90.4686 233.21 90.7288 233.265 90.9787L232.535 107.094C232.635 107.925 232.91 108.726 233.342 109.443C233.774 110.16 234.353 110.777 235.041 111.254C237.06 112.47 240.514 114.72 242.715 116.362C245.808 118.908 248.711 121.676 251.4 124.645L261.252 129.51L263.368 127.589L263.246 127.321L261.714 128.683Z" fill="#6A6455"/>
<path d="M331.285 117.907C331.285 117.907 317.456 131.651 311.934 134.935C305.22 138.961 282.61 145.942 282.61 145.942L271.59 132.454C271.59 132.454 293.848 122.176 300.781 117.859C305.731 114.794 319.365 103.823 319.365 103.823L331.285 117.907Z" fill="#FFC03B"/>
<path d="M283.084 160.039C283.084 160.039 307.215 151.963 313.904 147.949C319.475 144.604 332.148 131.688 332.148 131.688L331.346 117.907C331.346 117.907 317.517 131.651 311.995 134.935C305.281 138.961 282.67 145.942 282.67 145.942L283.084 160.039Z" fill="#363638"/>
<path d="M289.445 159.552C289.445 159.552 308.188 153.714 313.43 150.625C319.353 147.146 333.194 133.706 333.194 133.706L334.313 131.675L332.003 130.337L332.088 131.687C332.088 131.687 318.952 144.884 313.345 148.156C307.738 151.427 287.073 157.886 287.073 157.886C285.804 158.311 284.462 158.47 283.128 158.353C281.795 158.236 280.501 157.845 279.326 157.205L274.947 153.994V155.745L275.117 156.025L280.882 159.503C284.191 160.939 286.003 160.695 289.445 159.552Z" fill="#909092"/>
<path d="M296.84 141.868L297.716 153.495C297.716 153.495 311.533 148.63 313.527 147.219C316.398 145.224 324.024 138.292 324.024 138.292L323.16 126.129C323.16 126.129 315.863 133.937 310.839 136.406C306.306 138.552 301.628 140.377 296.84 141.868Z" fill="#7F7F81"/>
<path d="M322.588 132.174L322.284 132.478L322.126 132.636L321.457 133.293L320.995 133.743C320.957 133.769 320.924 133.802 320.898 133.84L320.569 134.144C319.122 135.531 317.079 137.416 315.133 139.009L314.415 139.581L313.746 140.092C313.536 140.262 313.317 140.42 313.089 140.566C312.945 140.68 312.795 140.785 312.639 140.882C312.588 140.93 312.531 140.97 312.469 141.004L311.885 141.369C311.316 141.678 310.731 141.958 310.134 142.208L309.903 142.305L308.528 142.865H308.419L307.312 143.303L306.728 143.522L305.257 144.093L303.31 144.811L302.982 144.945L301.887 145.346L301.523 145.48L298.895 146.441L298.689 146.514L298.397 146.623L298.312 145.869L297.959 142.476C302.025 141.219 306.01 139.712 309.891 137.963C310.255 137.805 310.608 137.635 310.949 137.465C312.079 136.879 313.154 136.191 314.16 135.409C316.782 133.363 319.261 131.141 321.579 128.756C321.871 128.452 322.09 128.209 322.224 128.087L322.284 128.014L322.588 132.174Z" fill="#373739"/>
<path d="M323.501 137.72C323.501 137.72 316.677 144.592 312.785 146.915C312.426 147.117 312.057 147.3 311.678 147.463L311.192 147.682C307.409 149.311 299.248 152.23 299.248 152.23L298.822 148.095C302.711 146.885 306.528 145.456 310.255 143.814C310.803 143.571 311.314 143.315 311.8 143.084C312.765 142.588 313.689 142.015 314.561 141.369C317.637 139.002 320.524 136.399 323.197 133.585L323.501 137.72Z" fill="#373739"/>
<path d="M322.588 132.174C319.991 134.779 317.263 137.252 314.415 139.581C313.612 140.231 312.767 140.829 311.885 141.369C311.316 141.678 310.731 141.958 310.134 142.208C306.302 143.85 298.348 146.696 298.348 146.696L298.263 145.942C300.562 145.127 307.3 142.658 310.085 141.393C310.406 141.247 310.718 141.085 311.022 140.907C312.185 140.176 313.295 139.363 314.342 138.474C317.894 135.555 321.737 131.687 321.737 131.687L321.53 128.805L322.284 128.014L322.588 132.174Z" fill="#131315"/>
<path d="M314.415 139.581L313.746 140.092C313.536 140.262 313.317 140.42 313.089 140.566C312.945 140.68 312.795 140.785 312.639 140.883C312.588 140.93 312.531 140.971 312.469 141.004L311.885 141.369C311.316 141.678 310.731 141.958 310.134 142.208V141.394L309.891 138.037C310.256 137.878 310.608 137.708 310.949 137.538C312.079 136.952 313.154 136.264 314.16 135.482L314.391 138.499L314.415 139.581Z" fill="#131315"/>
<path d="M314.804 144.641L311.679 147.462L311.338 147.779L311.192 147.681L310.499 147.292L310.255 143.814C310.803 143.57 311.314 143.315 311.8 143.084C312.765 142.588 313.689 142.015 314.561 141.369L314.804 144.641Z" fill="#131315"/>
<path d="M323.197 133.585L322.442 134.375L322.649 137.258C322.649 137.258 315.826 144.142 311.934 146.465C310.28 147.45 301.802 150.552 299.175 151.501L299.248 152.23C299.248 152.23 310.827 148.095 312.785 146.915C316.677 144.592 323.501 137.72 323.501 137.72L323.197 133.585Z" fill="#131315"/>
<path d="M288.594 149.664C291.251 148.88 293.862 147.946 296.414 146.867L296.171 142.354C294.075 143.298 291.922 144.11 289.725 144.787C285.966 146.003 283.339 146.648 283.339 146.648L283.546 151.014C284.434 150.722 286.015 150.333 288.594 149.664Z" fill="#BEBB7F"/>
<path d="M288.594 150.783C285.954 151.513 284.458 151.878 283.607 152.06L283.802 156.123C283.802 156.123 286.234 156.123 291.562 154.164C296.889 152.206 296.706 152.206 296.706 152.206L296.475 147.961C293.902 149.046 291.271 149.988 288.594 150.783Z" fill="#BEBB7F"/>
<path d="M292.875 145.565L292.778 143.668C291.914 143.984 290.892 144.325 289.725 144.69C285.966 145.906 283.339 146.551 283.339 146.551L283.449 148.801L285.054 148.363C287.713 147.581 290.324 146.647 292.875 145.565Z" fill="#FCFCF9"/>
<path d="M293.191 150.953L293.094 149.287C291.561 149.859 289.992 150.394 288.606 150.783C285.966 151.513 284.47 151.877 283.619 152.06L283.728 154.261C285.186 153.882 286.623 153.427 288.034 152.899C293.191 151.014 293.191 150.953 293.191 150.953Z" fill="#FCFCF9"/>
<path d="M326.298 128.343C327.983 126.852 329.582 125.268 331.09 123.599L330.957 118.929C329.662 120.365 328.285 121.726 326.833 123.003C324.401 125.168 323.708 125.959 323.708 125.959L324.024 130.374C324.596 129.948 324.644 129.729 326.298 128.343Z" fill="#BEBB7F"/>
<path d="M326.347 129.522C324.656 130.945 324.656 131.128 324.109 131.541L324.401 135.64C324.401 135.64 325.021 135.64 328.427 132.235C331.832 128.829 331.504 128.987 331.504 128.987L331.394 124.584C329.802 126.32 328.117 127.969 326.347 129.522Z" fill="#BEBB7F"/>
<path d="M329.582 122.492L329.521 120.461C328.84 121.142 327.952 122.006 326.833 123.003C324.401 125.168 323.708 125.959 323.708 125.959L323.854 128.039C324.097 127.82 324.389 127.564 324.79 127.236C326.471 125.742 328.071 124.158 329.582 122.492Z" fill="#FCFCF9"/>
<path d="M329.996 127.929V126.129C328.779 127.345 327.563 128.561 326.347 129.522C324.656 130.945 324.656 131.128 324.109 131.541L324.255 133.585C324.863 133.074 325.714 132.368 326.918 131.152C330.214 127.868 329.996 127.929 329.996 127.929Z" fill="#FCFCF9"/>
<path d="M309.757 158.725V162.86C309.756 163.004 309.792 163.145 309.862 163.271C309.931 163.397 310.032 163.502 310.154 163.578C310.276 163.654 310.415 163.697 310.559 163.703C310.702 163.71 310.845 163.679 310.973 163.615L319.743 159.175C320.159 158.971 320.512 158.657 320.763 158.267C321.014 157.877 321.153 157.425 321.166 156.962V152.717C321.168 152.573 321.132 152.431 321.063 152.305C320.993 152.179 320.892 152.073 320.769 151.998C320.647 151.923 320.506 151.882 320.362 151.878C320.219 151.874 320.076 151.907 319.949 151.975L311.156 156.524C310.747 156.732 310.402 157.046 310.156 157.433C309.91 157.821 309.772 158.267 309.757 158.725Z" fill="#FAEABD"/>
<path d="M310.791 163.384C310.695 163.385 310.601 163.368 310.512 163.333C310.424 163.297 310.343 163.245 310.275 163.178C310.207 163.111 310.153 163.031 310.117 162.943C310.08 162.856 310.061 162.761 310.061 162.666V158.689C310.058 158.254 310.176 157.828 310.401 157.456C310.627 157.084 310.951 156.783 311.338 156.585L319.779 152.206C319.882 152.159 319.994 152.134 320.107 152.133C320.203 152.132 320.297 152.149 320.386 152.184C320.474 152.22 320.555 152.272 320.623 152.339C320.691 152.406 320.744 152.485 320.781 152.573C320.818 152.661 320.837 152.755 320.837 152.851V156.962C320.83 157.399 320.706 157.826 320.477 158.199C320.248 158.571 319.923 158.875 319.536 159.078L311.119 163.335C311.014 163.374 310.902 163.391 310.791 163.384Z" fill="#F4CC5E"/>
<path d="M272.6 132.101L271.59 132.49L268.027 130.398L252.507 100.612L253.541 100.247L268.951 130.143L272.6 132.101Z" fill="#F0960A"/>
<path d="M301.182 72.54L300.574 73.1117L317.164 102.4L318.794 104.333L319.365 103.871L318.076 101.658L301.182 72.54Z" fill="#F0960A"/>
<path d="M281.284 128.039L288.107 134.594L295.161 139.837L296.889 140.36L288.387 133.585L282.257 127.285L281.284 128.039Z" fill="#E18802"/>
<path d="M282.257 127.285L288.387 133.585L296.889 140.36L312.129 133.816L322.589 124.925L316.507 116.107L311.338 110.099L282.257 127.285Z" fill="#FFD54D"/>
<path d="M312.116 136.589L310.596 137.428L311.338 147.779L312.712 147.305L315.644 145.127L314.865 134.789L312.116 136.589Z" fill="#7F7F81"/>
<path d="M311.022 112.519L310.633 112.13C310.438 111.923 309.927 111.984 309.538 112.251L303.59 116.131C302.849 116.63 302.63 117.348 303.128 117.591L303.53 117.822C303.703 117.88 303.888 117.895 304.068 117.865C304.248 117.836 304.418 117.762 304.564 117.652L310.414 113.881C311.083 113.443 311.35 112.847 311.022 112.519Z" fill="black"/>
<path d="M308.845 112.483L309.295 112.251L311.095 113.699L310.693 114.003L308.845 112.483Z" fill="#FFD54D"/>
<path d="M307.604 113.2L308.054 112.981L309.854 114.429L309.453 114.72L307.604 113.2Z" fill="#FFD54D"/>
<path d="M306.364 113.93L306.814 113.699L308.614 115.146L308.212 115.45L306.364 113.93Z" fill="#FFD54D"/>
<path d="M305.123 114.647L305.573 114.428L307.373 115.876L306.96 116.18L305.123 114.647Z" fill="#FFD54D"/>
<path d="M303.931 115.426L304.393 115.195L306.181 116.642L305.78 116.946L303.931 115.426Z" fill="#FFD54D"/>
<path d="M302.885 116.301L303.347 116.07L305.135 117.53L304.733 117.834L302.885 116.301Z" fill="#FFD54D"/>
<path d="M293.191 123.125L292.826 122.687C292.68 122.584 292.506 122.529 292.328 122.529C292.149 122.529 291.975 122.584 291.829 122.687L285.893 125.776C285.066 126.226 284.677 126.993 285.152 127.443L285.529 127.832C285.694 127.937 285.886 127.993 286.082 127.993C286.278 127.993 286.47 127.937 286.635 127.832L292.644 124.439C293.191 124.122 293.447 123.502 293.191 123.125Z" fill="black"/>
<path d="M291.148 122.76L291.561 122.614L293.264 124.329L292.899 124.584L291.148 122.76Z" fill="#FFD54D"/>
<path d="M290.004 123.283L290.43 123.125L292.109 124.901L291.731 125.168L290.004 123.283Z" fill="#FFD54D"/>
<path d="M288.801 123.818L289.251 123.66L290.917 125.497L290.515 125.776L288.801 123.818Z" fill="#FFD54D"/>
<path d="M287.572 124.378L288.022 124.22L289.664 126.117L289.25 126.409L287.572 124.378Z" fill="#FFD54D"/>
<path d="M286.331 125.022L286.806 124.852L288.423 126.822L287.985 127.126L286.331 125.022Z" fill="#FFD54D"/>
<path d="M285.139 125.849L285.638 125.667L287.243 127.735L286.781 128.051L285.139 125.849Z" fill="#FFD54D"/>
<path d="M202.773 96.367L219.582 106.097C221.175 107.022 223.353 105.708 223.644 103.665L225.882 88.145C226.121 86.8929 225.977 85.5979 225.469 84.4286C224.962 83.2594 224.114 82.27 223.036 81.5893L206.215 71.8591C204.622 70.9347 202.457 72.2361 202.153 74.2916L199.915 89.8113C199.679 91.0646 199.826 92.3599 200.336 93.5289C200.845 94.6979 201.695 95.6867 202.773 96.367Z" fill="#E18802"/>
<path d="M220.215 105.501L203.406 95.7707C202.327 95.0904 201.478 94.1016 200.968 92.9326C200.458 91.7636 200.312 90.4683 200.548 89.215L202.786 73.6953C202.876 73.1076 203.119 72.554 203.491 72.0898C203.141 72.3493 202.847 72.6752 202.623 73.0487C202.4 73.4223 202.253 73.8363 202.19 74.267L199.952 89.7866C199.716 91.04 199.862 92.3352 200.372 93.5042C200.882 94.6733 201.731 95.662 202.81 96.3423L219.619 106.073C220.187 106.355 220.837 106.426 221.452 106.272C222.067 106.118 222.608 105.75 222.976 105.233C222.592 105.543 222.126 105.734 221.635 105.782C221.145 105.829 220.651 105.732 220.215 105.501Z" fill="#FFC54D"/>
<path d="M199.915 91.3803L202.153 75.8606C202.457 73.793 204.585 72.4915 206.215 73.4281L223.036 83.1583C223.845 83.6478 224.527 84.3217 225.026 85.1249C225.525 85.9281 225.827 86.838 225.907 87.7801C226.078 86.5812 225.898 85.3583 225.389 84.2595C224.879 83.1607 224.062 82.2332 223.036 81.5893L206.215 71.8591C204.622 70.9347 202.457 72.2361 202.153 74.2916L199.915 89.8113C199.83 90.4491 199.83 91.0952 199.915 91.733C199.903 91.6114 199.903 91.5019 199.915 91.3803Z" fill="#C47000"/>
<path d="M204.038 94.725L218.998 103.373C219.379 103.541 219.794 103.616 220.21 103.591C220.625 103.566 221.028 103.441 221.386 103.228C221.743 103.015 222.044 102.719 222.264 102.365C222.483 102.012 222.615 101.611 222.647 101.196L224.642 87.3787C224.852 86.2647 224.722 85.113 224.269 84.0739C223.816 83.0347 223.06 82.1562 222.1 81.5528L207.14 72.9051C206.759 72.7366 206.344 72.6617 205.928 72.6869C205.513 72.7121 205.109 72.8365 204.752 73.0498C204.395 73.2631 204.094 73.5589 203.874 73.9125C203.655 74.2662 203.523 74.6673 203.491 75.0822L201.496 88.8504C201.273 89.9719 201.397 91.1346 201.851 92.184C202.305 93.2334 203.068 94.1197 204.038 94.725Z" fill="#FFC54D"/>
<path d="M203.345 95.1991L218.305 103.847C218.686 104.013 219.1 104.085 219.515 104.059C219.929 104.032 220.331 103.907 220.688 103.695C221.045 103.482 221.345 103.187 221.565 102.835C221.786 102.483 221.919 102.083 221.954 101.67L223.863 87.8528C224.075 86.74 223.947 85.5892 223.496 84.5502C223.044 83.5111 222.291 82.6319 221.333 82.0269L206.361 73.3792C205.98 73.2106 205.565 73.1358 205.15 73.161C204.734 73.1862 204.331 73.3106 203.973 73.5239C203.616 73.7371 203.315 74.033 203.096 74.3866C202.876 74.7402 202.745 75.1414 202.712 75.5563L200.754 89.3732C200.548 90.4922 200.685 91.6474 201.148 92.6871C201.61 93.7268 202.376 94.6024 203.345 95.1991Z" fill="#EEA129"/>
<path d="M167.793 76.0915L184.614 85.8217C186.207 86.746 188.372 85.4446 188.677 83.3891L190.914 67.8694C191.15 66.6161 191.004 65.3209 190.494 64.1519C189.984 62.9828 189.135 61.994 188.056 61.3137L171.247 51.5835C169.642 50.6591 167.477 51.9727 167.185 54.016L164.947 69.5357C164.708 70.7879 164.852 72.0829 165.36 73.2521C165.868 74.4213 166.715 75.4107 167.793 76.0915Z" fill="#E18802"/>
<path d="M185.21 85.2014L168.389 75.4712C167.311 74.7904 166.464 73.8011 165.956 72.6318C165.448 71.4626 165.304 70.1676 165.543 68.9154L167.781 53.3958C167.865 52.8062 168.109 52.251 168.486 51.7903C167.783 52.3161 167.315 53.0985 167.185 53.9674L164.947 69.4871C164.708 70.7392 164.852 72.0342 165.36 73.2035C165.868 74.3727 166.715 75.3621 167.793 76.0428L184.614 85.773C185.182 86.0558 185.832 86.1266 186.447 85.9727C187.063 85.8189 187.603 85.4505 187.971 84.9338C187.588 85.2453 187.122 85.4369 186.631 85.4845C186.14 85.5321 185.646 85.4336 185.21 85.2014Z" fill="#FFC54D"/>
<path d="M164.947 71.1047L167.185 55.585C167.477 53.5174 169.618 52.216 171.247 53.1525L188.056 62.8827C188.863 63.3759 189.544 64.0505 190.044 64.8528C190.544 65.6551 190.851 66.5631 190.939 67.5046C191.107 66.3045 190.925 65.0813 190.413 63.9828C189.902 62.8842 189.083 61.9571 188.056 61.3137L171.247 51.5835C169.642 50.6591 167.477 51.9727 167.185 54.016L164.947 69.5357C164.862 70.1776 164.862 70.8278 164.947 71.4696C164.935 71.348 164.923 71.2264 164.947 71.1047Z" fill="#C47000"/>
<path d="M169.058 74.4617L184.018 83.0973C184.399 83.2687 184.815 83.3458 185.231 83.3219C185.648 83.2981 186.052 83.174 186.41 82.9603C186.769 82.7465 187.07 82.4494 187.289 82.0942C187.508 81.739 187.637 81.3363 187.667 80.9202L189.662 67.1154C189.874 66.0008 189.747 64.848 189.296 63.8069C188.844 62.7657 188.091 61.8843 187.132 61.2773L172.16 52.6418C171.779 52.4703 171.363 52.3932 170.947 52.4171C170.53 52.4409 170.126 52.565 169.767 52.7788C169.409 52.9925 169.108 53.2896 168.889 53.6448C168.67 54 168.54 54.4028 168.511 54.8189L166.516 68.6236C166.306 69.7394 166.436 70.8925 166.89 71.9334C167.343 72.9743 168.098 73.8551 169.058 74.4617Z" fill="#FFC54D"/>
<path d="M168.377 74.9361L183.337 83.5717C183.717 83.7431 184.133 83.8202 184.55 83.7963C184.966 83.7725 185.371 83.6484 185.729 83.4347C186.087 83.2209 186.389 82.9238 186.608 82.5686C186.826 82.2134 186.956 81.8106 186.986 81.3945L188.981 67.5898C189.194 66.4739 189.065 65.3196 188.612 64.278C188.158 63.2364 187.401 62.3559 186.439 61.7517L171.478 53.1161C171.098 52.9447 170.682 52.8676 170.265 52.8914C169.849 52.9153 169.444 53.0394 169.086 53.2531C168.728 53.4669 168.427 53.764 168.208 54.1192C167.989 54.4744 167.859 54.8772 167.83 55.2933L165.835 69.098C165.622 70.2139 165.75 71.3682 166.204 72.4098C166.657 73.4514 167.415 74.3319 168.377 74.9361Z" fill="#EEA129"/>
<path d="M161.079 46.5115L160.933 47.3021L160.617 49.0049L160.422 50.0874L160.106 51.8023L159.887 52.9943L159.571 54.7092L159.401 55.6093L159.121 57.1661L158.987 57.908L158.939 58.3824L158.744 60.1703L158.61 61.3987L158.428 63.1745L158.282 64.4273L158.099 66.203L157.929 67.8085L157.734 69.5965L157.479 71.9682L154.73 70.4722L155.095 68.2829L155.387 66.5314L155.655 64.9624L155.947 63.2232L156.153 62.0191L156.433 60.2919L156.64 59.0878L156.652 59.0392L156.992 57.385L157.236 56.2174L157.564 54.6727L157.747 53.7849L158.099 52.0821L158.355 50.8901L158.695 49.2117L158.926 48.1535L159.279 46.4507L159.462 45.5872L161.079 46.5115Z" fill="#2B2B2D"/>
<path d="M287.183 64.5245C287.961 64.0867 287.864 63.3083 286.964 62.7853L209.219 17.7831C208.761 17.5287 208.25 17.3852 207.726 17.3641C207.202 17.3429 206.681 17.4448 206.203 17.6614C205.437 18.0993 205.534 18.8777 206.422 19.4007L284.166 64.4029C284.625 64.6573 285.136 64.8008 285.66 64.8219C286.184 64.843 286.705 64.7412 287.183 64.5245Z" fill="#E18802"/>
<path d="M280.688 68.3072C281.466 67.8572 281.369 67.091 280.469 66.568L202.724 21.5658C202.266 21.3114 201.755 21.1679 201.231 21.1468C200.707 21.1256 200.186 21.2275 199.708 21.4441C198.942 21.8941 199.039 22.6604 199.927 23.1834L277.671 68.1856C278.13 68.44 278.641 68.5835 279.165 68.6046C279.689 68.6257 280.21 68.5239 280.688 68.3072Z" fill="#E18802"/>
<path d="M274.193 72.0535C274.971 71.6035 274.874 70.8372 273.974 70.3142L196.23 25.312C195.772 25.0557 195.261 24.9101 194.737 24.8868C194.213 24.8636 193.691 24.9634 193.213 25.1782C192.447 25.6282 192.544 26.3945 193.432 26.9297L271.176 71.9319C271.635 72.1862 272.146 72.3298 272.67 72.3509C273.194 72.372 273.715 72.2701 274.193 72.0535Z" fill="#E18802"/>
<path d="M267.649 75.7994C268.428 75.3616 268.33 74.5832 267.43 74.0602L189.686 29.058C189.228 28.8036 188.716 28.6601 188.192 28.639C187.668 28.6178 187.147 28.7197 186.67 28.9363C185.891 29.3742 185.988 30.1526 186.889 30.6756L264.633 75.6778C265.091 75.9322 265.603 76.0757 266.127 76.0968C266.65 76.118 267.172 76.0161 267.649 75.7994Z" fill="#E18802"/>
<path d="M261.203 79.5579C261.969 79.1079 261.884 78.3417 260.984 77.8187L183.24 32.8165C182.782 32.5621 182.27 32.4186 181.746 32.3975C181.222 32.3764 180.701 32.4782 180.224 32.6949C179.445 33.1449 179.542 33.9112 180.442 34.4342L258.187 79.4364C258.645 79.6907 259.157 79.8342 259.681 79.8553C260.204 79.8765 260.726 79.7746 261.203 79.5579Z" fill="#E18802"/>
<path d="M254.708 83.304C255.474 82.854 255.377 82.0877 254.489 81.5647L176.745 36.5625C176.288 36.3062 175.776 36.1606 175.253 36.1373C174.729 36.1141 174.207 36.2139 173.729 36.4287C172.95 36.8787 173.047 37.645 173.947 38.1801L251.692 83.1823C252.15 83.4367 252.662 83.5802 253.186 83.6014C253.709 83.6225 254.231 83.5206 254.708 83.304Z" fill="#E18802"/>
<path d="M248.189 87.0499C248.955 86.6121 248.858 85.8337 247.97 85.3107L170.225 40.3085C169.767 40.0541 169.256 39.9106 168.732 39.8894C168.208 39.8683 167.686 39.9702 167.209 40.1868C166.431 40.6247 166.528 41.4031 167.428 41.9261L245.172 86.9283C245.63 87.1855 246.142 87.3306 246.666 87.3517C247.19 87.3729 247.712 87.2694 248.189 87.0499Z" fill="#E18802"/>
<path d="M287.183 63.9771C287.961 63.5393 287.864 62.7609 286.964 62.2379L209.219 17.2357C208.762 16.9785 208.25 16.8334 207.726 16.8123C207.202 16.7911 206.68 16.8945 206.203 17.114C205.437 17.5519 205.534 18.3303 206.422 18.8533L284.166 63.8555C284.625 64.1099 285.136 64.2534 285.66 64.2745C286.184 64.2956 286.705 64.1938 287.183 63.9771Z" fill="#FFD54D"/>
<path d="M280.688 67.7357C281.466 67.2857 281.369 66.5194 280.469 65.9842L202.724 20.9821C202.266 20.7277 201.755 20.5841 201.231 20.563C200.707 20.5419 200.186 20.6438 199.708 20.8604C198.942 21.3104 199.039 22.0767 199.927 22.5997L277.671 67.6019C278.129 67.8582 278.64 68.0038 279.164 68.027C279.688 68.0503 280.209 67.9505 280.688 67.7357Z" fill="#FFD54D"/>
<path d="M274.193 71.482C274.971 71.0319 274.874 70.2657 273.974 69.7427L196.23 24.7405C195.772 24.4842 195.261 24.3385 194.737 24.3153C194.213 24.2921 193.691 24.3919 193.213 24.6067C192.447 25.0567 192.544 25.823 193.432 26.3459L271.176 71.3481C271.634 71.6045 272.145 71.7501 272.669 71.7733C273.193 71.7966 273.714 71.6968 274.193 71.482Z" fill="#FFD54D"/>
<path d="M267.649 75.2279C268.428 74.79 268.33 74.0116 267.43 73.4886L189.686 28.4864C189.228 28.232 188.716 28.0885 188.192 28.0674C187.668 28.0463 187.147 28.1481 186.67 28.3648C185.891 28.8026 185.988 29.5811 186.889 30.1041L264.633 75.1063C265.091 75.3607 265.603 75.5041 266.127 75.5253C266.65 75.5464 267.172 75.4445 267.649 75.2279Z" fill="#FFD54D"/>
<path d="M261.203 78.9862C261.969 78.5362 261.884 77.7699 260.984 77.2347L183.24 32.2325C182.782 31.9782 182.27 31.8346 181.746 31.8135C181.222 31.7924 180.701 31.8942 180.224 32.1109C179.445 32.5609 179.542 33.3272 180.442 33.8502L258.187 78.8524C258.644 79.1087 259.155 79.2543 259.679 79.2775C260.203 79.3007 260.725 79.201 261.203 78.9862Z" fill="#FFD54D"/>
<path d="M254.708 82.7688C255.474 82.3188 255.377 81.5526 254.489 81.0296L176.745 36.0274C176.288 35.771 175.776 35.6254 175.253 35.6022C174.729 35.5789 174.207 35.6787 173.729 35.8935C172.95 36.3436 173.047 37.1099 173.947 37.6329L251.692 82.635C252.149 82.8914 252.66 83.037 253.184 83.0602C253.708 83.0834 254.23 82.9836 254.708 82.7688Z" fill="#FFD54D"/>
<path d="M248.189 86.4784C248.955 86.0405 248.858 85.2621 247.97 84.7391L170.225 39.7369C169.767 39.4825 169.256 39.339 168.732 39.3179C168.208 39.2968 167.686 39.3986 167.209 39.6153C166.431 40.0531 166.528 40.8316 167.428 41.3546L245.172 86.3568C245.631 86.6111 246.142 86.7546 246.666 86.7757C247.19 86.7969 247.711 86.695 248.189 86.4784Z" fill="#FFD54D"/>
<path d="M333.9 133.001C333.9 133.001 334.411 138.693 333.304 141.515C332.197 144.337 321.834 151.841 321.834 151.841V151.44C321.834 151.273 321.79 151.109 321.707 150.965C321.624 150.82 321.505 150.7 321.362 150.615C321.218 150.531 321.055 150.485 320.888 150.482C320.722 150.48 320.557 150.52 320.411 150.601L310.219 156.147C309.855 156.335 309.549 156.619 309.335 156.969C309.12 157.318 309.006 157.719 309.003 158.129V158.652C305.289 160.166 301.492 161.465 297.63 162.544C294.173 163.513 290.659 164.268 287.11 164.807L286.939 160.671C286.939 160.671 309.258 153.97 315.047 149.968C321.555 145.48 333.9 133.001 333.9 133.001Z" fill="#414143"/>
<path d="M286.94 160.671L287.11 164.807C287.11 164.807 284.008 164.807 282.427 164.807C280.9 164.455 279.445 163.846 278.122 163.006C277.596 161.709 276.91 160.483 276.078 159.358L274.582 157.789L273.366 155.076L271.165 151.975C272.612 152.425 275.203 156.597 275.203 156.597C275.203 156.597 281.284 160.318 282.743 160.55C284.116 160.898 285.549 160.939 286.94 160.671Z" fill="#414143"/>
<path d="M160.933 47.3023L160.617 49.0051L158.926 48.1537L159.279 46.4509L160.933 47.3023Z" fill="#5E5E5F"/>
<path d="M160.423 50.0874L160.106 51.8023L158.355 50.8901L158.696 49.2117L160.423 50.0874Z" fill="#5E5E5F"/>
<path d="M159.887 52.9945L159.571 54.7094L157.747 53.7851L158.1 52.0823L159.887 52.9945Z" fill="#5E5E5F"/>
<path d="M159.401 55.6094L159.121 57.1662L157.236 56.2175L157.564 54.6729L159.401 55.6094Z" fill="#5E5E5F"/>
<path d="M158.939 58.3824L158.744 60.1703L156.64 59.0878L156.652 59.0391L156.993 57.385L158.939 58.3824Z" fill="#5E5E5F"/>
<path d="M158.61 61.3988L158.428 63.1746L156.153 62.0191L156.433 60.292L158.61 61.3988Z" fill="#5E5E5F"/>
<path d="M158.282 64.4273L158.099 66.203L155.655 64.9624L155.946 63.2231L158.282 64.4273Z" fill="#5E5E5F"/>
<path d="M157.953 67.8329L157.771 69.6087L157.735 69.5965L155.095 68.2829L155.387 66.5315L157.929 67.8086L157.953 67.8329Z" fill="#5E5E5F"/>
<g style="mix-blend-mode:multiply">
<path d="M60.5649 192.611L32.1587 176.516L79.2982 147.905L130.301 144.702L131.965 211.674L60.5649 192.611Z" fill="#BEBEC3"/>
</g>
<path d="M131.965 211.674L64.7261 172.841V120.975L131.965 159.792V211.674Z" fill="#B76F3F"/>
<path d="M66.5005 171.82L64.7732 120.991L64.7261 120.975V172.841L131.965 211.674V211.658L66.5005 171.82Z" fill="#A45823"/>
<path d="M93.0066 189.062V136.961L103.684 143.116V195.83L93.0066 189.062Z" fill="#A45823"/>
<path d="M131.965 159.792L64.7261 120.975L131.965 82.158L199.204 120.975L131.965 159.792Z" fill="#EFD995"/>
<path d="M103.59 143.43L131.196 157.091L157.937 140.98L199.204 120.975L131.965 159.792L103.59 143.43Z" fill="#FFEDB4"/>
<path d="M94.3097 103.969L172.274 148.753L184.098 142.048L104.988 97.7979L94.3097 103.969Z" fill="#C39055"/>
<path d="M92.9124 137.259L161.282 97.9863L173.106 104.691L103.59 143.43L92.9124 137.259Z" fill="#C39055"/>
<path d="M95.0481 103.561L173.028 148.345L184.836 141.64L105.726 97.3894L95.0481 103.561Z" fill="#E6E1E4"/>
<path d="M92.0643 136.851L160.434 97.5781L172.242 104.283L102.742 143.022L92.0643 136.851Z" fill="#F1F1F1"/>
<path d="M133.614 112.983L145.108 119.421L133.708 125.765L122.496 119.374L133.614 112.983Z" fill="#F9F9F9"/>
<path d="M92.0643 188.952V136.851L102.742 143.022V195.72L92.0643 188.952Z" fill="#B3A4AD"/>
<path d="M131.965 211.674L199.204 172.841V120.975L131.965 159.792V211.674Z" fill="#D9AF6A"/>
<path d="M85.0139 160.043L69.3112 151.014V128.025L85.0139 137.054V160.043ZM70.8814 150.182L83.6163 157.562V137.887L70.8814 130.522V150.182Z" fill="#A45823"/>
<path d="M74.1791 148.831L79.4866 151.893V145.597L74.1791 142.535V148.831Z" fill="#A45823"/>
<path d="M71.5879 141.09L82.0773 147.136L76.8326 136.176L71.5879 141.09Z" fill="#A45823"/>
<path d="M121.301 146.414L81.1587 123.23V81.3428L121.301 104.518V146.414Z" fill="#B76F3F"/>
<path d="M81.1587 81.3428V123.23L121.301 146.414L82.3189 122.571L81.1587 81.3428Z" fill="#8C4320"/>
<path d="M98.0229 133.105V91.0791L104.399 94.7545V137.143L98.0229 133.105Z" fill="#9C480C"/>
<path d="M121.301 104.518L81.1587 81.3428L121.301 58.158L161.443 81.3428L121.301 104.518Z" fill="#EFD995"/>
<path d="M158.491 81.3428L121.412 102.671L81.1587 81.3428L121.301 104.518L161.443 81.3428L121.301 58.158L158.491 81.3428Z" fill="#FFEDB4"/>
<path d="M99.0811 71.1241L145.636 97.8637L152.69 93.8542L99.2574 70.9478L99.0811 71.1241Z" fill="#AB774D"/>
<path d="M105.634 67.2632L122.285 76.5724L115.676 80.3685L99.2667 70.9386L105.634 67.2632Z" fill="#E6E1E4"/>
<path d="M152.876 93.6776L145.822 97.6779L122.349 84.2014L129.143 80.4053L152.876 93.6776Z" fill="#E6E1E4"/>
<path d="M103.852 94.5037L145.358 71.3745L145.256 71.9871L104.399 94.7543L103.852 94.5037Z" fill="#C39055"/>
<path d="M129.143 80.4055L122.349 84.2016L115.676 80.3683L122.284 76.5723L129.143 80.4055Z" fill="#F9F9F9"/>
<path d="M115.676 80.3682L122.349 84.2014L103.852 94.513L97.4753 90.819L115.676 80.3682Z" fill="#F1F1F1"/>
<path d="M145.358 71.3745L129.143 80.4053L122.285 76.5721L138.304 67.3743L145.358 71.3745Z" fill="#F1F1F1"/>
<path d="M97.4753 132.854V90.8284L103.852 94.5038V136.892L97.4753 132.854Z" fill="#B3A4AD"/>
<path d="M121.301 146.414L161.443 123.23V81.3428L121.301 104.518V146.414Z" fill="#D9AF6A"/>
<path d="M121.301 146.414L161.443 123.23V122.515L121.301 145.691V146.414Z" fill="#9D6F40"/>
<path d="M123.677 116.659L135.111 110.05V100.49L123.9 106.496L123.677 107.108V116.659Z" fill="#9C480C"/>
<path d="M146.101 132.075V90.1973L139.214 94.1697V136.047L146.101 132.075Z" fill="#9C480C"/>
<path d="M146.36 132.232V90.0393L139.483 94.0117V136.205L146.36 132.232Z" fill="#D6D6D6"/>
<path d="M93.2338 104.667L83.9524 99.2838V85.5566L93.2338 90.9399V104.667ZM84.7691 98.7826L92.3799 103.182V91.4411L84.7691 87.0417V98.7826Z" fill="#A45823"/>
<path d="M86.8019 97.975L89.9668 99.8035V96.0445L86.8019 94.2161V97.975Z" fill="#A45823"/>
<path d="M85.2517 93.3531L91.5166 96.9728L88.3795 90.4202L85.2517 93.3531Z" fill="#A45823"/>
<path d="M124.131 106.681L135.566 100.063L135.334 99.887L123.899 106.495L124.131 106.681Z" fill="#FEFEFE"/>
<path d="M124.131 116.231V106.681L123.899 106.495V116.055L124.131 116.231Z" fill="#8B8B8B"/>
<path d="M124.131 116.231L135.566 109.623V100.063L124.131 106.681V116.231Z" fill="#D6D6D6"/>
<path d="M124.772 107.98L134.926 102.105V101.502L124.772 107.368V107.98Z" fill="#6F6F6F"/>
<path d="M128.967 108.222L134.926 104.788V104.184L128.967 107.618V108.222Z" fill="#8E8E8E"/>
<path d="M124.809 114.654L127.909 112.862V107.72L124.809 109.512V114.654Z" fill="#8E8E8E"/>
<path d="M128.967 109.54L134.926 106.106V105.502L128.967 108.936V109.54Z" fill="#8E8E8E"/>
<path d="M128.967 110.848L134.926 107.423V106.82L128.967 110.245V110.848Z" fill="#8E8E8E"/>
<path d="M128.967 112.166L134.926 108.742V108.129L128.967 111.563V112.166Z" fill="#8E8E8E"/>
<path d="M140.884 86.9673L145.488 90.0394L139.483 93.5106V94.0118L146.36 90.0394L140.884 86.9673Z" fill="#F1F1F1"/>
<g style="mix-blend-mode:multiply">
<path opacity="0.32" d="M176.671 207.678L204.277 191.692C204.786 191.4 205.21 190.98 205.509 190.474C205.807 189.968 205.969 189.393 205.978 188.806C205.988 188.219 205.845 187.639 205.563 187.124C205.281 186.609 204.87 186.176 204.371 185.867C202.819 184.901 201.033 184.375 199.205 184.344C197.377 184.314 195.575 184.78 193.991 185.694L166.386 201.679C165.877 201.972 165.452 202.392 165.154 202.898C164.856 203.403 164.694 203.978 164.684 204.565C164.675 205.153 164.818 205.732 165.1 206.247C165.382 206.763 165.792 207.196 166.292 207.505C167.842 208.476 169.628 209.005 171.458 209.035C173.287 209.066 175.089 208.596 176.671 207.678Z" fill="#BEBEC3"/>
</g>
<path d="M149.443 167.447C149.443 176.869 151.17 182.601 155.991 186.511C157.391 188.061 158.972 189.437 160.702 190.609C162.835 191.814 165.101 192.768 167.454 193.451C167.454 193.451 174.237 190.106 182.104 185.6C200.744 174.843 217.514 112.928 217.514 112.928C216.253 111.081 214.609 109.528 212.693 108.374C210.552 107.415 208.307 106.704 206.004 106.254C202.214 105.14 198.232 104.832 194.316 105.351C190.399 105.871 186.635 107.205 183.266 109.269C164.549 119.994 149.443 146.06 149.443 167.447Z" fill="url(#paint6_linear_708_20620)"/>
<path d="M151.123 169.191C151.123 147.804 166.229 121.753 184.868 110.981C188.237 108.917 192.001 107.583 195.917 107.063C199.834 106.544 203.815 106.851 207.606 107.966C209.906 108.433 212.149 109.149 214.295 110.101C215.157 110.617 215.962 111.223 216.698 111.907C215.552 110.493 214.171 109.287 212.615 108.343C210.473 107.384 208.229 106.673 205.926 106.223C202.135 105.108 198.154 104.801 194.237 105.32C190.321 105.84 186.557 107.174 183.188 109.238C164.549 119.994 149.443 146.061 149.443 167.448C149.443 176.398 151.013 182.083 155.378 185.993C152.285 182.177 151.123 176.869 151.123 169.191Z" fill="url(#paint7_linear_708_20620)"/>
<path d="M212.615 108.342C210.606 107.424 208.499 106.739 206.334 106.301C200.243 105.845 194.164 107.311 188.951 110.494C169.731 121.58 154.169 148.431 154.169 170.478C154.169 180.119 155.944 186.102 160.906 190.122C161.352 190.534 161.777 190.969 162.178 191.425C163.871 192.247 165.631 192.925 167.438 193.451C167.438 193.451 174.222 190.106 182.089 185.6C200.728 174.843 217.498 112.928 217.498 112.928C216.222 111.063 214.556 109.499 212.615 108.342Z" fill="url(#paint8_linear_708_20620)"/>
<path d="M156.336 186.291C151.39 180.245 150.511 176.696 150.511 167.338C150.511 145.951 165.632 119.884 184.256 109.128C188.528 106.763 193.266 105.364 198.137 105.029C192.89 105.179 187.758 106.608 183.188 109.191C164.549 119.947 149.443 146.013 149.443 167.4C149.443 176.822 151.735 182.412 155.991 186.935C157.44 188.571 159.11 189.998 160.953 191.174C162.929 192.326 165.11 193.083 167.375 193.404L168.003 193.09C166.716 192.336 163.371 192.242 160.733 190.248C159.143 189.075 157.67 187.749 156.336 186.291Z" fill="#B5B2AE"/>
<path d="M214.591 165.954C227.852 143.269 227.988 118.673 214.893 111.018C201.798 103.363 180.432 115.548 167.171 138.233C153.909 160.919 153.774 185.514 166.869 193.169C179.963 200.824 201.329 188.64 214.591 165.954Z" fill="#B3B3B5"/>
<path d="M190.882 189.777C172.4 200.455 157.388 192.054 157.137 171.059V171.593C157.137 192.98 172.243 201.585 190.882 190.829C209.521 180.073 224.627 154.006 224.627 132.619C224.627 132.446 224.627 132.274 224.627 132.101C224.36 153.394 209.364 179.115 190.882 189.777Z" fill="#98989B"/>
<path d="M157.922 172.834C157.922 151.447 173.028 125.38 191.667 114.624C204.229 107.338 215.221 108.939 221.078 117.387C215.535 107.872 204.104 105.752 190.882 113.383C172.243 124.14 157.137 150.206 157.137 171.593C157.137 178.487 158.707 184.045 161.455 188.065C158.962 183.386 157.744 178.133 157.922 172.834Z" fill="#D4D4D5"/>
<path d="M162.806 169.347C162.806 188.191 174.504 195.665 190.961 186.149C207.417 176.634 220.796 153.629 220.796 134.723C220.796 115.817 209.113 108.421 192.641 117.921C176.169 127.421 162.806 150.457 162.806 169.347Z" fill="#D4D4D5"/>
<path d="M208.092 113.823C211.327 117.78 212.128 123.637 212.316 126.841C213.51 146.689 199.519 171.892 181.775 181.894C178.005 184.195 173.718 185.513 169.307 185.726C168.575 185.73 167.844 185.667 167.124 185.537C168.191 186.86 169.551 187.917 171.096 188.625C172.641 189.334 174.329 189.674 176.027 189.62C180.44 189.415 184.729 188.097 188.495 185.788C206.255 175.802 220.231 150.583 219.053 130.735C218.755 125.961 217.09 115.315 208.092 113.823Z" fill="url(#paint9_linear_708_20620)"/>
<path d="M215.284 128.285C215.064 124.83 214.138 118.314 210.244 114.404C208.856 113.893 207.388 113.638 205.91 113.65C201.492 113.855 197.198 115.173 193.426 117.482C175.682 127.468 161.691 152.687 162.884 172.535C163.088 175.99 164.015 182.506 167.925 186.416C169.312 186.928 170.78 187.184 172.259 187.17C176.67 186.957 180.957 185.64 184.727 183.339C202.486 173.352 216.509 148.133 215.284 128.285Z" fill="#D4D099"/>
<path d="M215.52 132.996C215.331 129.855 214.499 123.967 210.966 120.434C209.711 119.963 208.38 119.729 207.04 119.743C203.041 119.936 199.154 121.129 195.734 123.213C179.655 132.274 166.983 155.105 168.066 173.085C168.255 176.225 169.087 182.114 172.62 185.647C173.883 186.105 175.218 186.334 176.561 186.322C180.558 186.138 184.442 184.944 187.852 182.852C203.947 173.823 216.603 150.975 215.52 132.996Z" fill="#FFFBD1"/>
<g style="mix-blend-mode:multiply">
<path d="M166.92 175.11C165.726 155.262 179.717 130.059 197.462 120.057C201.237 117.755 205.529 116.438 209.945 116.225C210.605 116.225 213.211 116.571 213.808 116.665C212.783 115.681 211.571 114.912 210.244 114.404C208.856 113.893 207.388 113.638 205.91 113.65C201.492 113.855 197.198 115.173 193.426 117.482C175.682 127.468 161.691 152.687 162.884 172.535C163.088 175.99 164.015 182.506 167.925 186.416C168.675 187.264 169.595 187.943 170.626 188.411C168.05 184.532 167.093 178.031 166.92 175.11Z" fill="#D2D1D4"/>
</g>
<mask id="mask0_708_20620" style="mask-type:luminance" maskUnits="userSpaceOnUse" x="162" y="113" width="58" height="76">
<path d="M219.116 128.992C219.116 120.92 215.771 117.058 210.244 114.404C208.856 113.893 207.388 113.638 205.91 113.65C201.492 113.855 197.198 115.173 193.426 117.482C175.682 127.468 161.691 152.687 162.884 172.535C163.088 175.99 164.015 182.506 167.925 186.416C169.181 186.887 171.819 188.379 173.468 188.379C177.174 188.379 184.02 187.783 188.307 185.019C213.808 168.625 219.116 148.871 219.116 128.992Z" fill="white"/>
</mask>
<g mask="url(#mask0_708_20620)">
<path d="M210.045 162.46C221.823 142.312 221.939 120.466 210.304 113.665C198.67 106.863 179.69 117.682 167.912 137.829C156.135 157.977 156.018 179.823 167.653 186.624C179.288 193.426 198.267 182.607 210.045 162.46Z" fill="#E4D9BA"/>
<path d="M213.368 116.146C215.961 120.478 217.232 125.471 217.027 130.514C217.027 149.515 203.617 172.661 187.051 182.223C176.969 188.049 168.05 187.468 162.617 181.847C167.705 189.572 177.582 191.111 188.935 184.547C205.486 175 218.896 151.854 218.896 132.854C218.943 125.427 216.901 119.758 213.368 116.146Z" fill="#D2C08C"/>
<path d="M206.66 159.548C217.765 142.978 219.473 124.658 210.475 118.627C201.477 112.597 185.181 121.14 174.076 137.71C162.971 154.279 161.263 172.6 170.261 178.63C179.259 184.661 195.556 176.117 206.66 159.548Z" fill="#F0EBD5"/>
<path d="M186.627 123.668L185.795 124.139L184.727 151.258L185.81 158.308L186.595 157.853L187.789 149.499L186.627 123.668Z" fill="#D2C08C"/>
<path d="M188.668 123.605L187.836 124.092L186.784 151.21L187.742 157.397L188.59 158.182L189.846 149.436L189.391 123.527L188.668 123.605Z" fill="#131313"/>
<path d="M189.391 123.527L188.558 124.013L187.49 151.132L188.59 158.182L189.359 157.727L190.553 149.373L189.391 123.527Z" fill="#404040"/>
<path d="M188.982 153.676C189.124 153.591 189.261 153.496 189.39 153.393L188.998 157.68L188.637 153.849L188.982 153.676Z" fill="#595959"/>
<path d="M188.982 146.704C188.778 146.819 188.584 146.95 188.401 147.097L188.935 124.375L189.328 124.092L189.642 146.406C189.412 146.482 189.191 146.582 188.982 146.704Z" fill="#595959"/>
<path d="M191.385 148.73C191.339 149.581 191.094 150.411 190.668 151.15C190.242 151.889 189.649 152.518 188.935 152.985C187.569 153.77 186.47 153.142 186.47 151.587C186.516 150.734 186.763 149.903 187.192 149.164C187.62 148.424 188.218 147.797 188.935 147.332C190.333 146.547 191.385 147.175 191.385 148.73Z" fill="#A2A2A2"/>
<path d="M190.081 149.515C190.063 149.899 189.954 150.273 189.763 150.606C189.572 150.939 189.304 151.222 188.982 151.431C188.37 151.792 187.867 151.431 187.867 150.803C187.888 150.418 188 150.044 188.194 149.71C188.388 149.377 188.658 149.095 188.982 148.887C189.595 148.604 190.081 148.808 190.081 149.515Z" fill="#C9C9C9"/>
<path d="M191.385 118.031C191.364 118.311 191.281 118.583 191.143 118.827C191.004 119.072 190.813 119.282 190.584 119.444C190.16 119.711 189.83 119.444 189.846 118.973C189.862 118.694 189.942 118.422 190.078 118.177C190.213 117.932 190.403 117.722 190.631 117.56C191.133 117.309 191.463 117.513 191.385 118.031Z" fill="black"/>
<path d="M189.814 181.925C189.799 182.21 189.717 182.488 189.575 182.736C189.433 182.984 189.236 183.196 188.998 183.354C188.527 183.621 188.166 183.354 188.166 182.883C188.178 182.593 188.26 182.31 188.405 182.059C188.55 181.807 188.753 181.595 188.998 181.438C189.437 181.187 189.814 181.391 189.814 181.925Z" fill="black"/>
<path d="M195.97 115.895C195.926 116.171 195.82 116.433 195.659 116.662C195.498 116.89 195.288 117.079 195.043 117.214C194.635 117.371 194.368 117.057 194.447 116.508C194.491 116.232 194.597 115.97 194.757 115.741C194.918 115.513 195.129 115.324 195.373 115.189C195.781 115.016 196.095 115.346 195.97 115.895Z" fill="#9A715A"/>
<path d="M184.915 184.422C184.871 184.702 184.762 184.967 184.595 185.197C184.429 185.426 184.21 185.613 183.957 185.741C183.502 185.914 183.204 185.6 183.282 185.034C183.322 184.751 183.43 184.482 183.597 184.249C183.764 184.017 183.985 183.828 184.24 183.7C184.695 183.527 184.994 183.857 184.915 184.422Z" fill="#9A715A"/>
<path d="M200.288 114.812C200.237 115.078 200.117 115.327 199.941 115.533C199.765 115.739 199.538 115.897 199.283 115.989C198.891 115.989 198.702 115.644 198.859 115.063C198.919 114.8 199.041 114.555 199.216 114.35C199.392 114.145 199.614 113.985 199.864 113.885C200.272 113.822 200.461 114.231 200.288 114.812Z" fill="#9A715A"/>
<path d="M180.142 185.882C180.086 186.154 179.959 186.406 179.774 186.613C179.59 186.82 179.353 186.974 179.089 187.06C178.65 187.06 178.43 186.714 178.587 186.118C178.644 185.844 178.773 185.591 178.961 185.384C179.149 185.177 179.388 185.023 179.655 184.94C180.079 184.877 180.299 185.285 180.142 185.882Z" fill="#9A715A"/>
<path d="M204.308 114.812C204.072 115.393 203.601 115.832 203.24 115.801C202.879 115.77 202.769 115.267 202.989 114.686C203.209 114.105 203.695 113.665 204.057 113.697C204.418 113.728 204.528 114.231 204.308 114.812Z" fill="#9A715A"/>
<path d="M175.682 186.291C175.446 186.887 174.944 187.327 174.551 187.295C174.159 187.264 174.017 186.762 174.237 186.181C174.457 185.6 174.975 185.144 175.368 185.176C175.76 185.207 175.87 185.662 175.682 186.291Z" fill="#9A715A"/>
<path d="M207.7 115.22C207.401 115.786 206.883 116.147 206.538 116.005C206.192 115.864 206.129 115.299 206.428 114.734C206.726 114.168 207.244 113.807 207.606 113.933C207.967 114.058 207.998 114.639 207.7 115.22Z" fill="black"/>
<path d="M171.552 185.521C171.254 186.102 170.736 186.448 170.39 186.322C170.045 186.196 169.982 185.615 170.28 185.034C170.578 184.453 171.097 184.108 171.442 184.249C171.788 184.39 171.85 184.956 171.552 185.521Z" fill="black"/>
<path d="M211.076 117.371C210.715 117.921 210.197 118.156 209.898 117.937C209.6 117.717 209.647 117.073 210.008 116.523C210.369 115.974 210.872 115.738 211.17 115.974C211.469 116.209 211.421 116.837 211.076 117.371Z" fill="#9A715A"/>
<path d="M167.988 183.731C167.642 184.265 167.108 184.516 166.826 184.281C166.543 184.045 166.574 183.433 166.92 182.883C167.265 182.333 167.799 182.098 168.082 182.333C168.365 182.569 168.333 183.15 167.988 183.731Z" fill="#9A715A"/>
<path d="M213.761 120.528C213.368 121.014 212.866 121.156 212.63 120.826C212.532 120.577 212.508 120.306 212.561 120.044C212.614 119.782 212.742 119.541 212.929 119.35C213.337 118.863 213.84 118.722 214.075 119.051C214.166 119.302 214.184 119.574 214.129 119.834C214.073 120.095 213.946 120.335 213.761 120.528Z" fill="#9A715A"/>
<path d="M165.067 180.905C164.659 181.407 164.156 181.533 163.921 181.219C163.826 180.968 163.806 180.696 163.861 180.435C163.917 180.173 164.047 179.933 164.235 179.743C164.627 179.256 165.13 179.114 165.365 179.428C165.46 179.678 165.482 179.948 165.429 180.21C165.376 180.471 165.251 180.712 165.067 180.905Z" fill="#9A715A"/>
<path d="M215.708 124.579C215.284 125.003 214.797 125.018 214.64 124.579C214.57 124.296 214.58 124 214.669 123.722C214.758 123.445 214.922 123.198 215.143 123.009C215.567 122.569 216.054 122.553 216.211 123.009C216.267 123.291 216.251 123.584 216.163 123.859C216.075 124.134 215.919 124.381 215.708 124.579Z" fill="#9A715A"/>
<path d="M165.067 177.167C164.674 177.591 164.235 177.607 164.093 177.167C164.054 176.899 164.08 176.625 164.167 176.369C164.254 176.112 164.401 175.88 164.596 175.691C165.004 175.267 165.444 175.236 165.57 175.691C165.61 175.959 165.585 176.234 165.498 176.49C165.411 176.747 165.263 176.979 165.067 177.167Z" fill="#9A715A"/>
<path d="M216.839 129.4C216.384 129.761 215.96 129.651 215.881 129.18C215.866 128.895 215.919 128.611 216.036 128.351C216.154 128.092 216.332 127.864 216.556 127.688C216.996 127.343 217.436 127.437 217.514 127.908C217.531 128.193 217.478 128.477 217.361 128.737C217.243 128.997 217.064 129.224 216.839 129.4Z" fill="#9A715A"/>
<path d="M163.921 172.645C163.497 172.99 163.104 172.896 163.041 172.425C163.036 172.146 163.092 171.869 163.206 171.613C163.32 171.358 163.489 171.131 163.701 170.949C164.125 170.604 164.517 170.698 164.58 171.169C164.587 171.448 164.531 171.726 164.417 171.981C164.303 172.237 164.133 172.463 163.921 172.645Z" fill="#9A715A"/>
<path d="M217.121 134.864C216.666 135.131 216.289 134.864 216.289 134.393C216.304 134.106 216.387 133.826 216.532 133.578C216.677 133.329 216.879 133.119 217.121 132.964C217.577 132.697 217.954 132.964 217.954 133.435C217.935 133.722 217.85 134 217.706 134.248C217.561 134.496 217.361 134.707 217.121 134.864Z" fill="black"/>
<path d="M163.544 167.447C163.12 167.699 162.79 167.447 162.806 166.976C162.827 166.696 162.909 166.424 163.048 166.18C163.186 165.935 163.377 165.725 163.607 165.563C164.031 165.296 164.36 165.563 164.345 166.018C164.327 166.302 164.246 166.577 164.108 166.824C163.969 167.072 163.776 167.285 163.544 167.447Z" fill="black"/>
<path d="M216.509 140.753C216.054 140.926 215.755 140.612 215.834 140.046C215.874 139.763 215.982 139.494 216.149 139.261C216.316 139.029 216.536 138.84 216.792 138.712C217.247 138.539 217.545 138.869 217.467 139.434C217.423 139.714 217.313 139.979 217.147 140.209C216.98 140.438 216.762 140.625 216.509 140.753Z" fill="#9A715A"/>
<path d="M163.418 161.465C163.01 161.637 162.743 161.323 162.821 160.758C162.865 160.484 162.972 160.224 163.133 159.998C163.293 159.772 163.504 159.586 163.748 159.455C164.156 159.282 164.423 159.596 164.345 160.161C164.301 160.435 164.194 160.695 164.034 160.921C163.873 161.147 163.662 161.333 163.418 161.465Z" fill="#9A715A"/>
<path d="M215.143 147.034C214.703 147.034 214.483 146.673 214.64 146.092C214.698 145.818 214.827 145.565 215.014 145.358C215.202 145.151 215.442 144.998 215.708 144.914C216.132 144.914 216.352 145.26 216.195 145.841C216.133 146.111 216.005 146.363 215.821 146.571C215.637 146.78 215.404 146.939 215.143 147.034Z" fill="#9A715A"/>
<path d="M165.145 155.136C164.737 155.215 164.549 154.791 164.706 154.226C164.759 153.957 164.881 153.708 165.06 153.501C165.239 153.295 165.468 153.138 165.726 153.048C166.119 153.048 166.307 153.393 166.15 153.974C166.096 154.238 165.976 154.483 165.8 154.687C165.624 154.89 165.398 155.045 165.145 155.136Z" fill="#9A715A"/>
<path d="M212.929 153.315C212.536 153.315 212.395 152.781 212.63 152.184C212.866 151.588 213.368 151.148 213.761 151.195C214.154 151.242 214.295 151.729 214.075 152.31C213.855 152.891 213.368 153.315 212.929 153.315Z" fill="#9A715A"/>
<path d="M167.14 149.452C166.779 149.452 166.669 148.918 166.904 148.337C167.14 147.756 167.595 147.317 167.956 147.348C168.317 147.379 168.427 147.882 168.208 148.463C167.988 149.044 167.501 149.484 167.14 149.452Z" fill="#9A715A"/>
<path d="M210.008 159.502C209.647 159.376 209.6 158.795 209.898 158.23C210.197 157.665 210.715 157.303 211.076 157.429C211.437 157.555 211.469 158.151 211.17 158.717C210.872 159.282 210.354 159.596 210.008 159.502Z" fill="#9A715A"/>
<path d="M169.778 143.265C169.464 143.14 169.448 142.574 169.778 142.009C170.107 141.444 170.547 141.082 170.861 141.224C171.175 141.365 171.207 141.915 170.861 142.496C170.516 143.077 170.092 143.406 169.778 143.265Z" fill="#9A715A"/>
<path d="M206.428 165.437C206.13 165.202 206.177 164.574 206.538 164.04C206.899 163.506 207.402 163.239 207.7 163.475C207.998 163.71 207.951 164.338 207.606 164.872C207.26 165.406 206.726 165.673 206.428 165.437Z" fill="black"/>
<path d="M173.028 137.314C172.761 137.078 172.824 136.45 173.17 135.916C173.515 135.382 173.986 135.147 174.253 135.367C174.52 135.586 174.457 136.215 174.112 136.748C173.766 137.282 173.295 137.612 173.028 137.314Z" fill="black"/>
<path d="M202.377 170.902C202.278 170.653 202.254 170.382 202.307 170.12C202.36 169.858 202.488 169.617 202.675 169.426C203.083 168.923 203.586 168.798 203.805 169.112C203.904 169.36 203.928 169.632 203.875 169.894C203.822 170.156 203.694 170.397 203.507 170.588C203.067 171.075 202.565 171.216 202.377 170.902Z" fill="#9A715A"/>
<path d="M176.781 131.739C176.71 131.488 176.703 131.222 176.761 130.967C176.818 130.712 176.939 130.476 177.111 130.279C177.488 129.792 177.943 129.651 178.147 129.981C178.23 130.23 178.244 130.497 178.189 130.754C178.133 131.01 178.011 131.248 177.833 131.441C177.456 131.928 176.985 132.053 176.781 131.739Z" fill="#9A715A"/>
<path d="M197.823 175.723C197.751 175.442 197.758 175.146 197.844 174.869C197.93 174.592 198.091 174.344 198.31 174.153C198.749 173.729 199.22 173.713 199.377 174.153C199.449 174.434 199.442 174.729 199.356 175.006C199.27 175.284 199.109 175.532 198.891 175.723C198.451 176.115 197.98 176.131 197.823 175.723Z" fill="#9A715A"/>
<path d="M180.927 126.746C180.873 126.463 180.891 126.171 180.979 125.897C181.066 125.623 181.221 125.375 181.429 125.175C181.838 124.751 182.277 124.736 182.403 125.175C182.46 125.458 182.443 125.751 182.355 126.026C182.267 126.301 182.111 126.548 181.9 126.746C181.508 127.123 181.068 127.138 180.927 126.746Z" fill="#9A715A"/>
<path d="M193.049 179.774C193.034 179.489 193.087 179.205 193.205 178.946C193.322 178.686 193.5 178.458 193.724 178.282C194.164 177.937 194.604 178.031 194.682 178.502C194.713 178.8 194.666 179.1 194.548 179.375C194.43 179.65 194.244 179.89 194.007 180.072C193.552 180.355 193.128 180.245 193.049 179.774Z" fill="#9A715A"/>
<path d="M185.355 122.459C185.348 122.18 185.404 121.902 185.518 121.647C185.632 121.392 185.802 121.165 186.014 120.983C186.438 120.638 186.815 120.732 186.878 121.203C186.887 121.483 186.832 121.761 186.718 122.017C186.604 122.272 186.433 122.499 186.219 122.679C185.795 123.025 185.402 122.93 185.355 122.459Z" fill="#9A715A"/>
<path d="M181.702 159.569C184.214 155.272 184.241 150.614 181.763 149.165C179.285 147.716 175.24 150.026 172.727 154.323C170.215 158.621 170.187 163.279 172.666 164.728C175.144 166.176 179.189 163.867 181.702 159.569Z" fill="#D1BDA1"/>
<path d="M182.732 153.77C182.628 155.678 182.074 157.535 181.116 159.188C180.158 160.842 178.824 162.246 177.221 163.286C174.174 165.045 171.709 163.632 171.709 160.146C171.814 158.238 172.368 156.381 173.325 154.728C174.283 153.074 175.618 151.67 177.221 150.63C180.267 148.871 182.732 150.284 182.732 153.77Z" fill="#EAE2C2"/>
<path d="M177.346 151.038L177.079 151.179L176.765 157.884L177.095 160.742L177.331 160.601L177.692 157.35L177.346 151.038Z" fill="#2A3136"/>
<path d="M177.975 156.55C177.96 156.811 177.884 157.065 177.754 157.291C177.623 157.518 177.44 157.71 177.221 157.853C176.797 158.104 176.451 157.853 176.451 157.429C176.459 157.164 176.534 156.906 176.669 156.678C176.803 156.451 176.993 156.26 177.221 156.126C177.629 155.874 177.975 156.079 177.975 156.55Z" fill="#A2A2A2"/>
<path d="M177.551 156.754C177.546 156.87 177.514 156.984 177.457 157.085C177.399 157.186 177.319 157.272 177.221 157.335C177.032 157.445 176.875 157.335 176.875 157.146C176.883 157.027 176.918 156.911 176.977 156.807C177.037 156.704 177.121 156.615 177.221 156.55C177.409 156.455 177.551 156.534 177.551 156.754Z" fill="#C9C9C9"/>
<path d="M204.057 119.413V120.857L204.857 120.386C206.129 119.648 206.946 120.041 206.946 121.218C206.918 121.939 206.704 122.641 206.324 123.255C205.944 123.868 205.412 124.373 204.779 124.72C204.156 125.106 203.417 125.261 202.691 125.16L203.083 124.013C203.343 124.1 203.62 124.126 203.892 124.091C204.163 124.056 204.424 123.959 204.653 123.809C205.01 123.628 205.311 123.355 205.526 123.018C205.741 122.681 205.863 122.293 205.878 121.894C205.878 121.218 205.423 121.061 204.669 121.501C204.308 121.705 203.523 122.192 203.099 122.475V118.926L206.648 116.869V117.874L204.057 119.413Z" fill="#736457"/>
<path d="M174.394 136.529V137.989L175.195 137.518C176.467 136.78 177.284 137.173 177.284 138.35C177.251 139.07 177.035 139.77 176.656 140.383C176.277 140.996 175.747 141.502 175.117 141.852C174.496 142.229 173.763 142.379 173.044 142.276L173.437 141.13C173.697 141.216 173.973 141.242 174.245 141.207C174.517 141.172 174.777 141.075 175.007 140.925C175.359 140.745 175.656 140.473 175.869 140.139C176.081 139.805 176.201 139.421 176.216 139.025C176.216 138.335 175.761 138.177 175.007 138.617C174.661 138.821 173.861 139.324 173.437 139.591V136.042L177.001 133.985V135.006L174.394 136.529Z" fill="#736457"/>
<path d="M179.215 133.749V135.194L180.016 134.723C181.288 134.001 182.104 134.378 182.104 135.555C182.076 136.276 181.862 136.978 181.482 137.592C181.103 138.205 180.57 138.71 179.937 139.057C179.318 139.439 178.586 139.595 177.865 139.497L178.257 138.35C178.517 138.437 178.794 138.463 179.066 138.428C179.338 138.392 179.598 138.296 179.827 138.146C180.181 137.963 180.479 137.689 180.691 137.352C180.904 137.015 181.023 136.628 181.037 136.23C181.037 135.555 180.581 135.398 179.827 135.838C179.482 136.042 178.681 136.529 178.257 136.811V133.263L181.822 131.206V132.211L179.215 133.749Z" fill="#736457"/>
<path d="M172.306 178.047C173.295 177.576 173.876 177.843 173.876 178.895C173.838 179.591 173.622 180.266 173.248 180.854C172.874 181.442 172.355 181.925 171.741 182.255C171.164 182.639 170.46 182.786 169.778 182.663L170.186 181.501C170.428 181.602 170.691 181.64 170.952 181.612C171.212 181.585 171.462 181.493 171.678 181.344C172.026 181.166 172.322 180.899 172.537 180.572C172.752 180.244 172.878 179.867 172.903 179.476C172.903 178.753 172.447 178.643 171.678 179.099L170.861 179.57V178.91L172.431 176.147L170.092 177.497V176.492L173.656 174.435V175.142L171.976 178.172L172.306 178.047Z" fill="#736457"/>
<path d="M175.886 174.168V175.613L176.703 175.142C177.975 174.404 178.791 174.796 178.791 175.974C178.759 176.694 178.543 177.394 178.163 178.007C177.784 178.62 177.254 179.125 176.624 179.476C176.001 179.862 175.262 180.017 174.536 179.915L174.928 178.769C175.19 178.848 175.465 178.871 175.735 178.835C176.006 178.8 176.266 178.708 176.498 178.565C176.852 178.38 177.15 178.106 177.365 177.77C177.58 177.434 177.703 177.047 177.723 176.649C177.723 175.974 177.252 175.817 176.498 176.241C176.153 176.445 175.352 176.948 174.928 177.215V173.729L178.493 171.656V172.676L175.886 174.168Z" fill="#736457"/>
<path d="M202.942 159.172C202.787 160.179 202.424 161.141 201.874 161.999L200.304 164.715L203.162 163.145V164.166L199.001 166.568V165.752L201.152 161.842C201.514 161.286 201.755 160.66 201.859 160.004C201.859 159.471 201.497 159.361 200.885 159.706C200.238 160.176 199.702 160.781 199.315 161.48L198.922 160.837C199.463 159.955 200.192 159.204 201.058 158.638C202.173 157.932 202.942 158.151 202.942 159.172Z" fill="#736457"/>
<path d="M205.156 157.272V158.717L205.957 158.246C207.229 157.508 208.045 157.9 208.045 159.078C208.017 159.799 207.803 160.501 207.423 161.114C207.044 161.728 206.511 162.233 205.878 162.58C205.255 162.965 204.516 163.121 203.79 163.019L204.182 161.873C204.444 161.952 204.719 161.974 204.99 161.939C205.26 161.904 205.52 161.812 205.753 161.669C206.108 161.486 206.408 161.213 206.623 160.876C206.839 160.54 206.961 160.152 206.978 159.753C206.978 159.078 206.522 158.921 205.768 159.361C205.228 159.657 204.704 159.982 204.198 160.334V156.785L207.763 154.728V155.733L205.156 157.272Z" fill="#736457"/>
<path d="M207.558 142.951V137.251L206.412 137.91V136.905L208.548 135.665V142.323L207.558 142.951Z" fill="#736457"/>
<path d="M211.107 135.21V136.654L211.908 136.183C213.18 135.445 213.996 135.838 213.996 137.015C213.965 137.736 213.75 138.436 213.371 139.05C212.991 139.663 212.46 140.168 211.829 140.517C211.21 140.899 210.478 141.055 209.757 140.957L210.149 139.811C210.411 139.889 210.686 139.912 210.956 139.877C211.227 139.842 211.487 139.75 211.72 139.606C212.071 139.42 212.367 139.146 212.579 138.81C212.791 138.474 212.912 138.088 212.929 137.691C212.929 137 212.473 136.843 211.72 137.282C211.374 137.487 210.573 137.989 210.149 138.256V134.707L213.714 132.65V133.671L211.107 135.21Z" fill="#736457"/>
<path d="M187.522 177.167C188.323 176.775 188.888 176.995 188.888 177.874C188.852 178.449 188.67 179.006 188.359 179.493C188.049 179.979 187.62 180.378 187.114 180.653C186.648 180.951 186.089 181.069 185.543 180.983L185.873 180.025C186.074 180.108 186.293 180.14 186.509 180.118C186.726 180.096 186.933 180.021 187.114 179.9C187.406 179.749 187.654 179.526 187.833 179.25C188.012 178.975 188.116 178.657 188.134 178.329C188.134 177.717 187.742 177.623 187.098 178L186.438 178.392V177.842L187.695 175.566L185.763 176.68V175.848L188.7 174.152V174.733L187.318 177.246L187.522 177.167Z" fill="#736457"/>
<path d="M193.63 174.074C193.677 174.862 193.511 175.648 193.149 176.35C192.787 177.052 192.242 177.644 191.573 178.062C190.254 178.816 189.516 178.251 189.516 176.492C189.467 175.704 189.633 174.917 189.995 174.214C190.357 173.512 190.902 172.921 191.573 172.504C192.955 171.687 193.63 172.268 193.63 174.074ZM190.348 175.958C190.348 177.371 190.756 177.795 191.573 177.324C192.012 177.022 192.36 176.603 192.576 176.115C192.792 175.628 192.869 175.089 192.798 174.561C192.798 173.147 192.39 172.723 191.573 173.195C191.132 173.496 190.784 173.914 190.568 174.402C190.352 174.89 190.275 175.429 190.348 175.958Z" fill="#736457"/>
<path d="M164.69 164.825V163.506L165.444 163.082V164.385L166.15 163.977V164.809L165.444 165.218V166.584L164.69 167.023V165.657L162.382 166.992V166.301L164.031 161.857L164.816 161.402L163.245 165.657L164.69 164.825Z" fill="#736457"/>
<path d="M167.642 160.632V161.826L168.302 161.433C169.354 160.821 170.029 161.151 170.029 162.124C170.008 162.722 169.831 163.304 169.518 163.813C169.204 164.322 168.763 164.741 168.239 165.029C167.728 165.344 167.121 165.466 166.527 165.375L166.857 164.432C167.074 164.499 167.303 164.519 167.528 164.489C167.753 164.459 167.969 164.381 168.16 164.26C168.451 164.109 168.696 163.884 168.873 163.609C169.049 163.333 169.15 163.016 169.165 162.689C169.165 162.14 168.788 161.998 168.16 162.36C167.878 162.532 167.218 162.941 166.888 163.176V160.224L169.841 158.512V159.36L167.642 160.632Z" fill="#736457"/>
</g>
<g style="mix-blend-mode:screen">
<path d="M199.492 146.502C208.305 137.254 211.637 126.124 206.935 121.643C202.232 117.162 191.276 121.026 182.464 130.274C173.651 139.522 170.319 150.651 175.021 155.132C179.724 159.614 190.68 155.749 199.492 146.502Z" fill="#818188"/>
</g>
<path d="M183.769 111.781C183.454 111.528 183.198 111.208 183.022 110.844C182.845 110.48 182.752 110.082 182.748 109.677C182.748 109.457 182.874 107.008 182.874 107.008L186.375 105.971C188.605 105.296 193.081 107.118 193.081 107.118C193.086 108.452 192.992 109.786 192.798 111.106C192.642 111.544 192.387 111.94 192.052 112.261C191.716 112.583 191.31 112.822 190.866 112.959C189.675 113.343 188.409 113.436 187.175 113.231C185.94 113.026 184.772 112.529 183.769 111.781Z" fill="url(#paint10_linear_708_20620)"/>
<path d="M184.177 108.751C182.309 107.385 182.45 105.437 184.586 104.495C185.745 103.995 187.007 103.775 188.267 103.854C189.528 103.934 190.752 104.309 191.84 104.951C193.709 106.333 193.505 108.201 191.369 109.143C190.226 109.656 188.977 109.889 187.726 109.82C186.474 109.752 185.258 109.385 184.177 108.751Z" fill="#F3F3F1"/>
<path d="M185.496 107.102C185.309 106.954 185.158 106.766 185.055 106.551C184.951 106.336 184.898 106.1 184.9 105.861C184.9 105.736 184.978 101.543 184.978 101.543L187.02 100.946C188.363 100.852 189.71 101.084 190.945 101.622C190.945 101.622 190.945 106.254 190.772 106.709C190.683 106.964 190.536 107.194 190.343 107.382C190.149 107.57 189.915 107.711 189.658 107.793C188.958 108.009 188.218 108.059 187.495 107.939C186.773 107.819 186.089 107.533 185.496 107.102Z" fill="url(#paint11_linear_708_20620)"/>
<path d="M164.533 134.126C164.271 134.253 163.984 134.318 163.693 134.318C163.402 134.318 163.115 134.253 162.853 134.126L158.142 131.661L158.613 129.085C158.912 127.437 161.518 125.191 161.518 125.191C161.518 125.191 166.575 127.766 166.983 128.19C167.211 128.429 167.38 128.719 167.475 129.035C167.571 129.352 167.59 129.686 167.532 130.012C167.392 130.885 167.046 131.713 166.525 132.428C166.004 133.143 165.322 133.725 164.533 134.126Z" fill="url(#paint12_linear_708_20620)"/>
<path d="M162.35 132.98C162.086 133.099 161.8 133.161 161.51 133.161C161.22 133.161 160.934 133.099 160.67 132.98C160.544 132.886 155.959 130.499 155.959 130.499L156.43 127.924C157.055 126.395 158.015 125.026 159.241 123.92C159.241 123.92 164.297 126.511 164.706 126.919C165.065 127.655 165.164 128.49 164.988 129.29C164.909 130.082 164.624 130.839 164.161 131.487C163.699 132.134 163.074 132.649 162.35 132.98Z" fill="url(#paint13_linear_708_20620)"/>
<path d="M160.67 133.31C159.728 133.702 159.257 133.451 157.985 133.137C157.781 133.137 155.489 132.038 155.489 132.038C155.489 132.038 155.834 129.4 155.944 128.426C156.242 126.102 159.697 122.758 159.697 122.758C160.866 123.311 161.99 123.957 163.057 124.689C163.509 125.074 163.867 125.557 164.104 126.101C164.341 126.645 164.45 127.237 164.423 127.83C164.319 128.988 163.919 130.1 163.262 131.059C162.605 132.019 161.712 132.793 160.67 133.31Z" fill="url(#paint14_linear_708_20620)"/>
<path d="M158.205 131.897C157.776 132.18 157.278 132.339 156.765 132.358C156.252 132.376 155.743 132.253 155.296 132.002C154.848 131.75 154.478 131.38 154.227 130.932C153.975 130.484 153.852 129.976 153.871 129.463C153.881 128.2 154.189 126.957 154.771 125.835C155.352 124.714 156.19 123.745 157.216 123.009C157.642 122.732 158.137 122.579 158.645 122.567C159.153 122.554 159.654 122.683 160.093 122.938C160.533 123.194 160.893 123.566 161.133 124.014C161.374 124.461 161.485 124.967 161.455 125.474C161.465 126.726 161.175 127.963 160.61 129.08C160.044 130.197 159.22 131.163 158.205 131.897Z" fill="#F3F3F1"/>
<defs>
<linearGradient id="paint0_linear_708_20620" x1="178.095" y1="107.934" x2="172.038" y2="125.399" gradientUnits="userSpaceOnUse">
<stop offset="0.12"/>
<stop offset="0.21" stop-color="#181D25"/>
<stop offset="0.35" stop-color="#364153"/>
<stop offset="0.48" stop-color="#4F5F7A"/>
<stop offset="0.61" stop-color="#637698"/>
<stop offset="0.74" stop-color="#7187AE"/>
<stop offset="0.87" stop-color="#7991BB"/>
<stop offset="0.98" stop-color="#7C94BF"/>
</linearGradient>
<linearGradient id="paint1_linear_708_20620" x1="266.056" y1="158.664" x2="260.011" y2="176.13" gradientUnits="userSpaceOnUse">
<stop offset="0.12"/>
<stop offset="0.21" stop-color="#181D25"/>
<stop offset="0.35" stop-color="#364153"/>
<stop offset="0.48" stop-color="#4F5F7A"/>
<stop offset="0.61" stop-color="#637698"/>
<stop offset="0.74" stop-color="#7187AE"/>
<stop offset="0.87" stop-color="#7991BB"/>
<stop offset="0.98" stop-color="#7C94BF"/>
</linearGradient>
<linearGradient id="paint2_linear_708_20620" x1="241.864" y1="50.1485" x2="202.372" y2="135.251" gradientUnits="userSpaceOnUse">
<stop offset="0.12"/>
<stop offset="0.38" stop-color="#512C20"/>
<stop offset="0.68" stop-color="#A65A41"/>
<stop offset="0.88" stop-color="#DB7756"/>
<stop offset="0.98" stop-color="#F0825E"/>
</linearGradient>
<linearGradient id="paint3_linear_708_20620" x1="208.867" y1="143.692" x2="255.876" y2="40.2356" gradientUnits="userSpaceOnUse">
<stop stop-color="white"/>
<stop offset="0.98" stop-color="#C28A4E"/>
</linearGradient>
<linearGradient id="paint4_linear_708_20620" x1="216.566" y1="143.777" x2="223.158" y2="132.235" gradientUnits="userSpaceOnUse">
<stop stop-color="white"/>
<stop offset="0.98" stop-color="#C28A4E"/>
</linearGradient>
<linearGradient id="paint5_linear_708_20620" x1="219.716" y1="141.928" x2="222.027" y2="137.89" gradientUnits="userSpaceOnUse">
<stop stop-color="white"/>
<stop offset="0.98" stop-color="#C28A4E"/>
</linearGradient>
<linearGradient id="paint6_linear_708_20620" x1="199.283" y1="114.058" x2="162.099" y2="178.471" gradientUnits="userSpaceOnUse">
<stop offset="0.01" stop-color="#E8E6E4"/>
<stop offset="0.02" stop-color="#E8E8E6"/>
<stop offset="0.04" stop-color="#E8E8E6"/>
<stop offset="0.16" stop-color="#E8E8E6"/>
<stop offset="0.37" stop-color="#E8E6E4"/>
<stop offset="0.38" stop-color="#D9D7D5"/>
<stop offset="0.78" stop-color="#D3D1CE"/>
<stop offset="0.79" stop-color="#CCCAC5"/>
<stop offset="0.86" stop-color="#B8B6B2"/>
<stop offset="0.93" stop-color="#ABA8A5"/>
<stop offset="1" stop-color="#A6A3A0"/>
</linearGradient>
<linearGradient id="paint7_linear_708_20620" x1="194.839" y1="111.295" x2="158.189" y2="174.796" gradientUnits="userSpaceOnUse">
<stop offset="0.01" stop-color="#D1CFCD"/>
<stop offset="0.02" stop-color="#D1D1CF"/>
<stop offset="0.04" stop-color="#D1D1CF"/>
<stop offset="0.16" stop-color="#D1D1CF"/>
<stop offset="0.37" stop-color="#D1CFCD"/>
<stop offset="0.38" stop-color="#C2C0BE"/>
<stop offset="0.78" stop-color="#BCBAB7"/>
<stop offset="0.79" stop-color="#B5B3AF"/>
<stop offset="0.86" stop-color="#A19F9C"/>
<stop offset="0.93" stop-color="#94918F"/>
<stop offset="1" stop-color="#8F8C8A"/>
</linearGradient>
<linearGradient id="paint8_linear_708_20620" x1="201.592" y1="115.377" x2="164.423" y2="179.758" gradientUnits="userSpaceOnUse">
<stop offset="0.01" stop-color="#F4F2F0"/>
<stop offset="0.02" stop-color="#F4F4F2"/>
<stop offset="0.04" stop-color="#F4F4F2"/>
<stop offset="0.16" stop-color="#F4F4F2"/>
<stop offset="0.37" stop-color="#F4F2F0"/>
<stop offset="0.38" stop-color="#E5E3E1"/>
<stop offset="0.78" stop-color="#DFDDDA"/>
<stop offset="0.79" stop-color="#D9D6D1"/>
<stop offset="0.86" stop-color="#C5C2BE"/>
<stop offset="0.93" stop-color="#B8B4B1"/>
<stop offset="1" stop-color="#B3AFAC"/>
</linearGradient>
<linearGradient id="paint9_linear_708_20620" x1="170.249" y1="205.857" x2="203.601" y2="148.086" gradientUnits="userSpaceOnUse">
<stop offset="0.01" stop-color="#E8E6E4"/>
<stop offset="0.02" stop-color="#E8E8E6"/>
<stop offset="0.04" stop-color="#E8E8E6"/>
<stop offset="0.16" stop-color="#E8E8E6"/>
<stop offset="0.37" stop-color="#E8E6E4"/>
<stop offset="0.38" stop-color="#D9D7D5"/>
<stop offset="0.78" stop-color="#D3D1CE"/>
<stop offset="0.79" stop-color="#CCCAC5"/>
<stop offset="0.86" stop-color="#B8B6B2"/>
<stop offset="0.93" stop-color="#ABA8A5"/>
<stop offset="1" stop-color="#A6A3A0"/>
</linearGradient>
<linearGradient id="paint10_linear_708_20620" x1="189.386" y1="105.43" x2="179.18" y2="105.55" gradientUnits="userSpaceOnUse">
<stop offset="0.01" stop-color="#DBDBDB"/>
<stop offset="0.02" stop-color="#DBDBDB"/>
<stop offset="0.04" stop-color="#DBDBDB"/>
<stop offset="0.16" stop-color="#DBDBDB"/>
<stop offset="0.37" stop-color="#DBDBDB"/>
<stop offset="0.38" stop-color="#CCCCCC"/>
<stop offset="0.78" stop-color="#C6C6C6"/>
<stop offset="0.79" stop-color="#BFBFBF"/>
<stop offset="0.81" stop-color="#B6B6B6"/>
<stop offset="0.88" stop-color="#9F9F9F"/>
<stop offset="0.94" stop-color="#919191"/>
<stop offset="1" stop-color="#8C8C8C"/>
</linearGradient>
<linearGradient id="paint11_linear_708_20620" x1="187.3" y1="100.289" x2="181.299" y2="100.369" gradientUnits="userSpaceOnUse">
<stop offset="0.01" stop-color="#DBDBDB"/>
<stop offset="0.02" stop-color="#DBDBDB"/>
<stop offset="0.04" stop-color="#DBDBDB"/>
<stop offset="0.16" stop-color="#DBDBDB"/>
<stop offset="0.37" stop-color="#DBDBDB"/>
<stop offset="0.38" stop-color="#CCCCCC"/>
<stop offset="0.78" stop-color="#C6C6C6"/>
<stop offset="0.79" stop-color="#BFBFBF"/>
<stop offset="0.81" stop-color="#B6B6B6"/>
<stop offset="0.88" stop-color="#9F9F9F"/>
<stop offset="0.94" stop-color="#919191"/>
<stop offset="1" stop-color="#8C8C8C"/>
</linearGradient>
<linearGradient id="paint12_linear_708_20620" x1="164.61" y1="126.747" x2="161.39" y2="133.294" gradientUnits="userSpaceOnUse">
<stop offset="0.01" stop-color="#DBDBDB"/>
<stop offset="0.02" stop-color="#DBDBDB"/>
<stop offset="0.04" stop-color="#DBDBDB"/>
<stop offset="0.16" stop-color="#DBDBDB"/>
<stop offset="0.37" stop-color="#DBDBDB"/>
<stop offset="0.38" stop-color="#CCCCCC"/>
<stop offset="0.78" stop-color="#C6C6C6"/>
<stop offset="0.79" stop-color="#BFBFBF"/>
<stop offset="0.81" stop-color="#B6B6B6"/>
<stop offset="0.88" stop-color="#9F9F9F"/>
<stop offset="0.94" stop-color="#919191"/>
<stop offset="1" stop-color="#8C8C8C"/>
</linearGradient>
<linearGradient id="paint13_linear_708_20620" x1="162.396" y1="125.508" x2="159.147" y2="132.115" gradientUnits="userSpaceOnUse">
<stop offset="0.01" stop-color="#C2C2C2"/>
<stop offset="0.02" stop-color="#C2C2C2"/>
<stop offset="0.04" stop-color="#C2C2C2"/>
<stop offset="0.16" stop-color="#C2C2C2"/>
<stop offset="0.37" stop-color="#C2C2C2"/>
<stop offset="0.38" stop-color="#B3B3B3"/>
<stop offset="0.78" stop-color="#ADADAD"/>
<stop offset="0.79" stop-color="#A6A6A6"/>
<stop offset="0.81" stop-color="#9D9D9D"/>
<stop offset="0.88" stop-color="#868686"/>
<stop offset="0.94" stop-color="#787878"/>
<stop offset="1" stop-color="#737373"/>
</linearGradient>
<linearGradient id="paint14_linear_708_20620" x1="162.091" y1="123.916" x2="158.176" y2="133.148" gradientUnits="userSpaceOnUse">
<stop offset="0.01" stop-color="#DBDBDB"/>
<stop offset="0.02" stop-color="#DBDBDB"/>
<stop offset="0.04" stop-color="#DBDBDB"/>
<stop offset="0.16" stop-color="#DBDBDB"/>
<stop offset="0.37" stop-color="#DBDBDB"/>
<stop offset="0.38" stop-color="#CCCCCC"/>
<stop offset="0.78" stop-color="#C6C6C6"/>
<stop offset="0.79" stop-color="#BFBFBF"/>
<stop offset="0.81" stop-color="#B6B6B6"/>
<stop offset="0.88" stop-color="#9F9F9F"/>
<stop offset="0.94" stop-color="#919191"/>
<stop offset="1" stop-color="#8C8C8C"/>
</linearGradient>
</defs>
</svg>
