<svg width="24" height="25" viewBox="0 0 24 25" fill="none" xmlns="http://www.w3.org/2000/svg">
<path d="M20.0402 7.32018L14.2802 3.29018C12.7102 2.19018 10.3002 2.25018 8.79023 3.42018L3.78023 7.33018C2.78023 8.11018 1.99023 9.71018 1.99023 10.9702V17.8702C1.99023 20.4202 4.06023 22.5002 6.61023 22.5002H17.3902C19.9402 22.5002 22.0102 20.4302 22.0102 17.8802V11.1002C22.0102 9.75018 21.1402 8.09018 20.0402 7.32018Z" fill="#FFAB00"/>
<path d="M12 19.25C11.59 19.25 11.25 18.91 11.25 18.5V15.5C11.25 15.09 11.59 14.75 12 14.75C12.41 14.75 12.75 15.09 12.75 15.5V18.5C12.75 18.91 12.41 19.25 12 19.25Z" fill="#070D1D"/>
</svg>
