<svg width="17" height="20" viewBox="0 0 17 20" fill="none" xmlns="http://www.w3.org/2000/svg">
<path d="M1.83148 17C1.54815 17 1.31048 16.904 1.11848 16.712C0.927149 16.5207 0.831482 16.2833 0.831482 16C0.831482 15.7167 0.927149 15.4793 1.11848 15.288C1.31048 15.096 1.54815 15 1.83148 15H2.83148V8C2.83148 6.61667 3.24815 5.38733 4.08148 4.312C4.91482 3.23733 5.99815 2.53333 7.33148 2.2V1.5C7.33148 1.08333 7.47748 0.729333 7.76948 0.438C8.06081 0.146 8.41482 0 8.83148 0C9.24815 0 9.60215 0.146 9.89348 0.438C10.1855 0.729333 10.3315 1.08333 10.3315 1.5V2.2C11.6648 2.53333 12.7481 3.23733 13.5815 4.312C14.4148 5.38733 14.8315 6.61667 14.8315 8V15H15.8315C16.1148 15 16.3521 15.096 16.5435 15.288C16.7355 15.4793 16.8315 15.7167 16.8315 16C16.8315 16.2833 16.7355 16.5207 16.5435 16.712C16.3521 16.904 16.1148 17 15.8315 17H1.83148ZM8.83148 20C8.28148 20 7.81082 19.8043 7.41948 19.413C7.02748 19.021 6.83148 18.55 6.83148 18H10.8315C10.8315 18.55 10.6358 19.021 10.2445 19.413C9.85248 19.8043 9.38148 20 8.83148 20Z" fill="#586A84"/>
</svg>
