<svg width="44" height="45" viewBox="0 0 44 45" fill="none" xmlns="http://www.w3.org/2000/svg">
<path d="M30.1 19.7199C28.29 19.7199 27.55 18.4399 28.45 16.8699C28.97 15.9599 28.66 14.7999 27.75 14.2799L26.02 13.2899C25.23 12.8199 24.21 13.0999 23.74 13.8899L23.63 14.0799C22.73 15.6499 21.25 15.6499 20.34 14.0799L20.23 13.8899C19.78 13.0999 18.76 12.8199 17.97 13.2899L16.24 14.2799C15.33 14.7999 15.02 15.9699 15.54 16.8799C16.45 18.4399 15.71 19.7199 13.9 19.7199C12.86 19.7199 12 20.5699 12 21.6199V23.3799C12 24.4199 12.85 25.2799 13.9 25.2799C15.71 25.2799 16.45 26.5599 15.54 28.1299C15.02 29.0399 15.33 30.1999 16.24 30.7199L17.97 31.7099C18.76 32.1799 19.78 31.8999 20.25 31.1099L20.36 30.9199C21.26 29.3499 22.74 29.3499 23.65 30.9199L23.76 31.1099C24.23 31.8999 25.25 32.1799 26.04 31.7099L27.77 30.7199C28.68 30.1999 28.99 29.0299 28.47 28.1299C27.56 26.5599 28.3 25.2799 30.11 25.2799C31.15 25.2799 32.01 24.4299 32.01 23.3799V21.6199C32 20.5799 31.15 19.7199 30.1 19.7199ZM22 25.7499C20.21 25.7499 18.75 24.2899 18.75 22.4999C18.75 20.7099 20.21 19.2499 22 19.2499C23.79 19.2499 25.25 20.7099 25.25 22.4999C25.25 24.2899 23.79 25.7499 22 25.7499Z" fill="#DEDEDE"/>
</svg>
