<svg width="40" height="40" viewBox="0 0 40 40" fill="none" xmlns="http://www.w3.org/2000/svg">
<path d="M28.3666 4.79992C27.5666 3.99992 25.9666 3.33325 24.8333 3.33325H15.1666C14.0333 3.33325 12.4333 3.99992 11.6333 4.79992L4.79992 11.6333C3.99992 12.4333 3.33325 14.0333 3.33325 15.1666V24.8333C3.33325 25.9666 3.99992 27.5666 4.79992 28.3666L7.34992 30.9166L30.9166 7.34992L28.3666 4.79992Z" fill="#333333"/>
<path d="M35.2 11.6334L32.6834 9.1167L9.1167 32.6834L11.6334 35.2C12.4334 36 14.0334 36.6667 15.1667 36.6667H24.8334C25.9667 36.6667 27.5667 36 28.3667 35.2L35.2 28.3667C36 27.5667 36.6667 25.9667 36.6667 24.8334V15.1667C36.6667 14.0334 36 12.4334 35.2 11.6334Z" fill="#333333"/>
<path d="M4.14985 34.1165C3.66652 34.5998 3.66652 35.3998 4.14985 35.8832C4.39985 36.1332 4.71652 36.2498 5.03319 36.2498C5.34985 36.2498 5.66652 36.1332 5.91652 35.8832L9.11652 32.6832L7.34985 30.9165L4.14985 34.1165Z" fill="#333333"/>
<path d="M35.8832 5.91652C36.3665 5.43319 36.3665 4.63319 35.8832 4.14985C35.3998 3.66652 34.5998 3.66652 34.1165 4.14985L30.9165 7.34985L32.6832 9.11652L35.8832 5.91652Z" fill="#333333"/>
</svg>
