<svg width="20" height="20" viewBox="0 0 20 20" fill="none" xmlns="http://www.w3.org/2000/svg">
<path d="M9.97506 18.3332C14.5774 18.3332 18.3084 14.6022 18.3084 9.99984C18.3084 5.39746 14.5774 1.6665 9.97506 1.6665C5.37268 1.6665 1.64172 5.39746 1.64172 9.99984C1.64172 14.6022 5.37268 18.3332 9.97506 18.3332Z" stroke="#121212" stroke-width="1.5" stroke-linecap="round" stroke-linejoin="round"/>
<path d="M10 13.75C12.0711 13.75 13.75 12.0711 13.75 10C13.75 7.92893 12.0711 6.25 10 6.25C7.92893 6.25 6.25 7.92893 6.25 10C6.25 12.0711 7.92893 13.75 10 13.75Z" stroke="#121212" stroke-width="1.5" stroke-linecap="round" stroke-linejoin="round"/>
<path d="M4.08337 4.1084L7.03337 7.05007" stroke="#121212" stroke-width="1.5" stroke-linecap="round" stroke-linejoin="round"/>
<path d="M4.08337 15.8919L7.03337 12.9502" stroke="#121212" stroke-width="1.5" stroke-linecap="round" stroke-linejoin="round"/>
<path d="M15.875 15.8919L12.925 12.9502" stroke="#121212" stroke-width="1.5" stroke-linecap="round" stroke-linejoin="round"/>
<path d="M15.875 4.1084L12.925 7.05007" stroke="#121212" stroke-width="1.5" stroke-linecap="round" stroke-linejoin="round"/>
</svg>
