<svg width="159" height="63" viewBox="0 0 159 63" fill="none" xmlns="http://www.w3.org/2000/svg">
<path d="M47.4165 27.4191C47.4165 21.7888 51.9808 17.2246 57.611 17.2246H67.8056V49.9419H57.611C51.9808 49.9419 47.4165 45.3777 47.4165 39.7474V27.4191Z" fill="white"/>
<rect y="29.0791" width="48.8389" height="8.53495" fill="white"/>
<rect x="69.7021" y="20.1211" width="22.2857" height="6.6383" rx="3.31915" fill="white"/>
<rect x="69.7021" y="40.9844" width="22.2857" height="6.6383" rx="3.31915" fill="white"/>
<rect x="99.1001" y="3" width="56.8997" height="56.8997" rx="9.48328" stroke="#FFAB00" stroke-width="4.26748"/>
<path fill-rule="evenodd" clip-rule="evenodd" d="M103.842 12.4829C103.842 9.86412 105.965 7.74121 108.583 7.74121H146.517C149.135 7.74121 151.258 9.86412 151.258 12.4829V50.416C151.258 53.0347 149.135 55.1576 146.517 55.1576H108.583C105.965 55.1576 103.842 53.0347 103.842 50.416V12.4829ZM120.437 31.6863C120.437 34.436 118.208 36.665 115.459 36.665C112.709 36.665 110.48 34.436 110.48 31.6863C110.48 28.9366 112.709 26.7076 115.459 26.7076C118.208 26.7076 120.437 28.9366 120.437 31.6863ZM139.641 36.6651C142.391 36.6651 144.62 34.436 144.62 31.6864C144.62 28.9367 142.391 26.7076 139.641 26.7076C136.891 26.7076 134.662 28.9367 134.662 31.6864C134.662 34.436 136.891 36.6651 139.641 36.6651Z" fill="#FFAB00"/>
</svg>
