<svg width="144" height="85" viewBox="0 0 144 85" fill="none" xmlns="http://www.w3.org/2000/svg">
<path d="M0 48L48 0H143.418L95.4182 48H0Z" fill="black"/>
<path d="M47.7091 27.6364L27.3455 48H0L48 0L81.7455 33.7455L68.0727 48L47.7091 27.6364Z" fill="#FFAB00"/>
<path d="M95.7091 20.3636L75.3455 0H116.073L95.7091 20.3636Z" fill="#FFAA00"/>
<path d="M12.9132 80.9092L10.7361 72.3835H4.20469L2.01094 80.9092H0L6.2821 56.5951H8.60881L14.9075 80.9092H12.9132ZM10.3372 70.6052L8.11023 61.4978C8.03267 61.1322 7.94957 60.7666 7.86094 60.4009C7.78338 60.0353 7.71136 59.6808 7.64489 59.3373C7.57841 58.9938 7.50639 58.6504 7.42883 58.3069C7.37344 58.6615 7.3125 59.0105 7.24602 59.3539C7.17955 59.6863 7.10753 60.0298 7.02997 60.3843C6.95241 60.7389 6.86378 61.1045 6.76406 61.4812L4.57031 70.6052H10.3372ZM17.5999 80.9092V56.6117H19.5111V79.1475H27.0729V80.9092H17.5999ZM35.1166 80.9092H33.1888V58.3568H27.9869V56.6117H40.3351V58.3568H35.1166V80.9092ZM47.0659 69.1427L51.4534 56.6117H53.4643L48.0298 71.4528V80.9092H46.102V71.5026L40.6508 56.6117H42.6618L47.0659 69.1427ZM69.9175 80.9092H67.6406L57.9516 59.7528H57.8685C57.8906 60.2292 57.9072 60.7112 57.9183 61.1987C57.9405 61.6862 57.9571 62.1958 57.9682 62.7276C57.9793 63.2484 57.9848 63.7913 57.9848 64.3563V80.9092H56.1567V56.6117H58.4169L68.106 77.5687H68.1891C68.178 76.9815 68.1614 76.4053 68.1392 75.8403C68.117 75.2642 68.1004 74.7157 68.0893 74.195C68.0783 73.6742 68.0727 73.2089 68.0727 72.799V56.6117H69.9175V80.9092Z" fill="#FFAB00"/>
<path d="M85.6227 69.1427L90.0102 56.6117H92.0212L86.5866 71.4528V80.9092H84.6588V71.5026L79.2077 56.6117H81.2186L85.6227 69.1427ZM89.5283 49.1663V49.4322C89.2845 49.82 88.9798 50.2465 88.6142 50.7119C88.2486 51.1661 87.8497 51.6315 87.4176 52.1079C86.9966 52.5843 86.5756 53.033 86.1545 53.4541C85.7446 53.8751 85.3624 54.2463 85.0078 54.5676H83.8445V54.1853C84.3098 53.5981 84.7474 53.0275 85.1574 52.4735C85.5673 51.9085 85.9496 51.349 86.3041 50.795C86.6587 50.241 86.991 49.6981 87.3013 49.1663H89.5283ZM109.289 68.7272C109.289 70.4445 109.15 72.0622 108.873 73.5801C108.596 75.0869 108.159 76.4164 107.56 77.5687C106.973 78.7099 106.186 79.6073 105.2 80.261C104.214 80.9147 103.012 81.2416 101.594 81.2416C100.165 81.2416 98.9514 80.9092 97.9543 80.2444C96.9571 79.5686 96.1594 78.649 95.5611 77.4856C94.9628 76.3222 94.5251 74.9872 94.2481 73.4803C93.9712 71.9735 93.8327 70.3836 93.8327 68.7106C93.8327 65.974 94.1263 63.686 94.7135 61.8468C95.3118 59.9965 96.1871 58.6061 97.3393 57.6754C98.4916 56.7336 99.9153 56.2627 101.611 56.2627C103.428 56.2627 104.901 56.8056 106.031 57.8914C107.161 58.9661 107.987 60.4453 108.508 62.3288C109.028 64.2012 109.289 66.334 109.289 68.7272ZM95.827 68.7272C95.827 71.0207 96.043 72.9707 96.4751 74.5772C96.9072 76.1727 97.5554 77.3914 98.4196 78.2335C99.2838 79.0755 100.336 79.4965 101.577 79.4965C102.862 79.4965 103.926 79.0866 104.768 78.2667C105.61 77.4468 106.236 76.2392 106.646 74.6437C107.067 73.0372 107.278 71.065 107.278 68.7272C107.278 65.2372 106.807 62.5836 105.865 60.7666C104.923 58.9384 103.505 58.0244 101.611 58.0244C100.314 58.0244 99.2339 58.4399 98.3697 59.2708C97.5166 60.1018 96.8795 61.315 96.4585 62.9105C96.0375 64.4948 95.827 66.4338 95.827 68.7272ZM127.005 68.4945C127.005 71.2201 126.684 73.508 126.041 75.3583C125.409 77.1975 124.451 78.5825 123.166 79.5132C121.881 80.4438 120.263 80.9092 118.313 80.9092H113.759V56.6117H118.512C120.407 56.6117 121.98 57.0605 123.232 57.9579C124.484 58.8553 125.426 60.1849 126.058 61.9465C126.689 63.7082 127.005 65.8909 127.005 68.4945ZM125.01 68.5943C125.01 66.3784 124.778 64.5059 124.312 62.9769C123.858 61.448 123.144 60.2957 122.169 59.5201C121.194 58.7335 119.936 58.3401 118.396 58.3401H115.67V79.1808H118.213C120.573 79.1808 122.296 78.2889 123.382 76.5051C124.468 74.7213 125.01 72.0843 125.01 68.5943ZM141.746 80.9092L139.569 72.3835H133.038L130.844 80.9092H128.833L135.115 56.5951H137.442L143.74 80.9092H141.746ZM139.17 70.6052L136.943 61.4978C136.866 61.1322 136.783 60.7666 136.694 60.4009C136.616 60.0353 136.544 59.6808 136.478 59.3373C136.411 58.9938 136.339 58.6504 136.262 58.3069C136.206 58.6615 136.145 59.0105 136.079 59.3539C136.012 59.6863 135.94 60.0298 135.863 60.3843C135.785 60.7389 135.697 61.1045 135.597 61.4812L133.403 70.6052H139.17Z" fill="black"/>
</svg>
