<svg width="20" height="20" viewBox="0 0 20 20" fill="none" xmlns="http://www.w3.org/2000/svg">
<g clip-path="url(#clip0_607_10565)">
<path d="M10.0001 5.83317C7.70008 5.83317 5.83341 7.69984 5.83341 9.99984C5.83341 12.2998 7.70008 14.1665 10.0001 14.1665C12.3001 14.1665 14.1667 12.2998 14.1667 9.99984C14.1667 7.69984 12.3001 5.83317 10.0001 5.83317ZM10.0001 1.6665C5.40008 1.6665 1.66675 5.39984 1.66675 9.99984C1.66675 14.5998 5.40008 18.3332 10.0001 18.3332C14.6001 18.3332 18.3334 14.5998 18.3334 9.99984C18.3334 5.39984 14.6001 1.6665 10.0001 1.6665ZM10.0001 16.6665C6.31675 16.6665 3.33341 13.6832 3.33341 9.99984C3.33341 6.3165 6.31675 3.33317 10.0001 3.33317C13.6834 3.33317 16.6667 6.3165 16.6667 9.99984C16.6667 13.6832 13.6834 16.6665 10.0001 16.6665Z" fill="white"/>
</g>
<defs>
<clipPath id="clip0_607_10565">
<rect width="20" height="20" fill="white"/>
</clipPath>
</defs>
</svg>
