<svg width="17" height="17" viewBox="0 0 17 17" fill="none" xmlns="http://www.w3.org/2000/svg">
<path d="M14.2261 10.8859C14.2248 11.0126 14.1769 11.1387 14.0759 11.2377L10.7027 14.5442C10.5074 14.7356 10.1874 14.7324 9.99605 14.5371C9.80466 14.3419 9.80786 14.0219 10.0031 13.8305L13.3763 10.524C13.5716 10.3327 13.8916 10.3359 14.083 10.5311C14.1753 10.632 14.2274 10.7592 14.2261 10.8859Z" fill="#B7B7B7"/>
<path d="M14.2259 10.8855C14.2232 11.1589 13.9942 11.3832 13.7209 11.3805L2.38816 11.2672C2.11484 11.2645 1.89045 11.0356 1.89318 10.7622C1.89592 10.4889 2.12484 10.2645 2.39816 10.2673L13.7309 10.3806C14.0042 10.3833 14.2286 10.6122 14.2259 10.8855Z" fill="#B7B7B7"/>
<path d="M6.30618 3.47281C6.30491 3.59947 6.25698 3.72566 6.15599 3.82466L2.78276 7.1311C2.5875 7.32249 2.26752 7.31929 2.07613 7.12404C1.88474 6.92878 1.88794 6.60879 2.08319 6.4174L5.45642 3.11096C5.65168 2.91957 5.97166 2.92277 6.16305 3.11803C6.26205 3.21902 6.30744 3.34615 6.30618 3.47281Z" fill="white"/>
<path d="M14.2659 6.89921C14.2632 7.17253 14.0343 7.39692 13.761 7.39418L2.4282 7.28088C2.15488 7.27815 1.93049 7.04922 1.93322 6.7759C1.93595 6.50258 2.16488 6.27819 2.4382 6.28093L13.771 6.39423C14.0443 6.39697 14.2687 6.61922 14.2659 6.89921Z" fill="white"/>
</svg>
