<svg width="30" height="30" viewBox="0 0 30 30" fill="none" xmlns="http://www.w3.org/2000/svg">
<rect width="30" height="30" rx="15" fill="black" fill-opacity="0.5"/>
<path d="M20.2501 9.75843C19.9251 9.43343 19.4001 9.43343 19.0751 9.75843L15.0001 13.8251L10.9251 9.7501C10.6001 9.4251 10.0751 9.4251 9.7501 9.7501C9.4251 10.0751 9.4251 10.6001 9.7501 10.9251L13.8251 15.0001L9.7501 19.0751C9.4251 19.4001 9.4251 19.9251 9.7501 20.2501C10.0751 20.5751 10.6001 20.5751 10.9251 20.2501L15.0001 16.1751L19.0751 20.2501C19.4001 20.5751 19.9251 20.5751 20.2501 20.2501C20.5751 19.9251 20.5751 19.4001 20.2501 19.0751L16.1751 15.0001L20.2501 10.9251C20.5668 10.6084 20.5668 10.0751 20.2501 9.75843Z" fill="white"/>
</svg>
