<svg width="16" height="16" viewBox="0 0 16 16" fill="none" xmlns="http://www.w3.org/2000/svg">
<path d="M8 9.33337C4.66 9.33337 1.94 11.5734 1.94 14.3334C1.94 14.52 2.08667 14.6667 2.27334 14.6667H13.7267C13.9133 14.6667 14.06 14.52 14.06 14.3334C14.06 11.5734 11.34 9.33337 8 9.33337Z" fill="white"/>
<path d="M11.2333 3.86672C11.1533 3.54006 11.02 3.22006 10.8333 2.92672C10.7066 2.71339 10.54 2.50006 10.36 2.31339C9.75998 1.71339 8.97998 1.38672 8.17998 1.34672C7.27331 1.28672 6.34664 1.62006 5.64664 2.31339C4.98664 2.96672 4.65331 3.84006 4.66664 4.72006C4.67331 5.55339 5.00664 6.38672 5.63998 7.02672C6.07998 7.46672 6.61998 7.76006 7.19998 7.89339C7.51331 7.97339 7.84664 8.01339 8.17998 7.98672C8.97331 7.95339 9.74664 7.64006 10.3533 7.02672C11.2133 6.16672 11.5066 4.96006 11.2333 3.86672ZM9.33331 6.00006C9.09331 6.24006 8.69331 6.24006 8.45331 6.00006L7.99331 5.54006L7.55331 5.98006C7.31331 6.22006 6.91331 6.22006 6.67331 5.98006C6.42664 5.73339 6.42664 5.34006 6.66664 5.10006L7.10664 4.66006L6.67998 4.24672C6.43998 4.00006 6.43998 3.60672 6.67998 3.35339C6.92664 3.11339 7.31998 3.11339 7.57331 3.35339L7.98664 3.78006L8.43331 3.33339C8.67331 3.09339 9.06664 3.09339 9.31331 3.33339C9.55331 3.57339 9.55331 3.97339 9.31331 4.21339L8.87331 4.65339L9.33331 5.12006C9.57331 5.36006 9.57331 5.76006 9.33331 6.00006Z" fill="white"/>
</svg>
