<svg width="91" height="84" viewBox="0 0 91 84" fill="none" xmlns="http://www.w3.org/2000/svg">
<rect y="0.375977" width="90.0252" height="83.2481" rx="7.38241" fill="#FFE7B6"/>
<path d="M41.3196 65.6481L38.7434 64.0027L35.0388 61.323C35.0388 61.323 37.2813 58.3283 38.0335 58.6292C38.7857 58.93 41.5077 62.0798 41.5077 62.0798L41.3196 65.6481Z" fill="#000002"/>
<path d="M75.065 46.4158L72.4887 44.7704L68.7888 42.086C68.7888 42.086 71.0313 39.096 71.7835 39.3922C72.5357 39.6884 75.2577 42.8476 75.2577 42.8476L75.065 46.4158Z" fill="#000002"/>
<path d="M66.0102 41.287C67.0163 40.7088 67.933 40.6053 68.6382 40.8968C69.4844 41.2541 73.4193 43.2051 73.4193 43.2051L67.8296 53.0071C67.8296 53.0071 63.9558 51.1877 63.2365 50.8163C62.5172 50.4449 61.9954 49.5141 61.9954 48.2025C62.0048 45.6638 63.7959 42.5657 66.0102 41.287Z" fill="#040406"/>
<path d="M67.6128 52.8944C66.0572 51.985 66.073 49.0637 67.648 46.3694C69.223 43.6752 71.7609 42.2282 73.3165 43.1376C74.8721 44.047 74.8564 46.9683 73.2813 49.6626C71.7063 52.3569 69.1684 53.8038 67.6128 52.8944Z" fill="#414143"/>
<path d="M67.9737 52.6189C66.5301 51.775 66.5444 49.0649 68.0054 46.5656C69.4664 44.0664 71.821 42.7244 73.2646 43.5682C74.7081 44.4121 74.6939 47.1223 73.2328 49.6215C71.7718 52.1208 69.4172 53.4628 67.9737 52.6189Z" fill="#2B2B2D"/>
<path d="M68.5675 51.3975C67.4916 50.7686 67.5021 48.7487 68.591 46.886C69.6799 45.0233 71.4348 44.0232 72.5107 44.6522C73.5867 45.2811 73.5761 47.301 72.4872 49.1637C71.3983 51.0264 69.6434 52.0265 68.5675 51.3975Z" fill="#161618"/>
<path d="M72.9493 46.5807C72.9007 47.4405 72.6502 48.2767 72.2181 49.0216C71.7861 49.7665 71.1846 50.3992 70.4624 50.8683C69.0896 51.6581 67.9802 51.0234 67.9802 49.4579C68.0275 48.599 68.277 47.7634 68.7083 47.0192C69.1397 46.275 69.7407 45.6431 70.4624 45.1751C71.8352 44.3618 72.9493 45.0058 72.9493 46.5807Z" fill="#D5D6D5"/>
<path d="M72.7379 46.7122C72.6938 47.4993 72.4648 48.2649 72.0694 48.9469C71.6741 49.6289 71.1236 50.2082 70.4625 50.6377C69.2073 51.3616 68.1872 50.7787 68.1872 49.3402C68.2313 48.5531 68.4603 47.7874 68.8556 47.1054C69.251 46.4234 69.8015 45.8441 70.4625 45.4146C71.7225 44.6765 72.7379 45.2595 72.7379 46.7122Z" fill="#ADAFAE"/>
<path d="M72.061 47.0974C72.0302 47.647 71.8702 48.1816 71.5941 48.6578C71.3181 49.134 70.9336 49.5384 70.472 49.8382C69.5976 50.3413 68.883 49.9369 68.883 48.9309C68.9142 48.382 69.0744 47.8483 69.3505 47.3729C69.6265 46.8975 70.0108 46.4939 70.472 46.1948C71.3417 45.6871 72.061 46.0914 72.061 47.0974Z" fill="#7E8180"/>
<path d="M70.1429 50.5202C70.8047 50.0915 71.3558 49.5125 71.7512 48.8303C72.1467 48.1481 72.3752 47.382 72.4182 46.5947C72.4514 46.306 72.4024 46.0139 72.2768 45.7519C72.1512 45.4899 71.9542 45.2687 71.7084 45.1138C72.3289 45.2219 72.7379 45.786 72.7379 46.7028C72.6938 47.4899 72.4648 48.2555 72.0694 48.9375C71.6741 49.6195 71.1236 50.1988 70.4625 50.6283C70.2387 50.7874 69.9784 50.8876 69.7056 50.9197C69.4328 50.9517 69.1564 50.9145 68.9017 50.8116C69.3368 50.8619 69.7757 50.7589 70.1429 50.5202Z" fill="#7E8180"/>
<path d="M70.4627 45.4051C71.1867 44.9867 71.8307 45.0008 72.2491 45.3675C71.9953 45.2701 71.7214 45.2367 71.4517 45.2704C71.1819 45.304 70.9246 45.4035 70.7024 45.5602C70.0406 45.9889 69.4895 46.5679 69.0941 47.2501C68.6986 47.9323 68.4701 48.6984 68.4271 49.4857C68.4063 49.7289 68.4374 49.9737 68.5185 50.2039C68.5995 50.4341 68.7286 50.6444 68.8972 50.8209C68.6463 50.6677 68.4445 50.4461 68.3154 50.1821C68.1863 49.918 68.1353 49.6226 68.1685 49.3306C68.2147 48.5418 68.4466 47.7751 68.8453 47.093C69.244 46.4108 69.7982 45.8325 70.4627 45.4051Z" fill="#7E8180"/>
<path d="M69.3342 47.13C69.3296 47.2171 69.3041 47.3019 69.26 47.3771C69.2158 47.4524 69.1542 47.5159 69.0804 47.5625C68.944 47.6424 68.8312 47.5625 68.8312 47.4167C68.8368 47.3303 68.8621 47.2464 68.9053 47.1714C68.9485 47.0964 69.0084 47.0324 69.0804 46.9842C69.2402 46.9043 69.3342 46.9701 69.3342 47.13Z" fill="#656566"/>
<path d="M72.0372 48.7286C72.0326 48.8158 72.0071 48.9006 71.963 48.9758C71.9188 49.0511 71.8572 49.1147 71.7834 49.1612C71.647 49.2411 71.5342 49.1612 71.5342 49.0201C71.5391 48.9336 71.5641 48.8494 71.6074 48.7743C71.6507 48.6992 71.7109 48.6352 71.7834 48.5876C71.9244 48.5077 72.0372 48.5923 72.0372 48.7286Z" fill="#656566"/>
<path d="M72.5312 47.4407C72.5266 47.5278 72.5012 47.6126 72.457 47.6878C72.4128 47.7631 72.3512 47.8267 72.2774 47.8732C72.141 47.9531 72.0282 47.8732 72.0282 47.7321C72.0313 47.6463 72.0546 47.5623 72.0963 47.4872C72.1379 47.412 72.1968 47.3477 72.268 47.2996C72.4278 47.2197 72.5312 47.2808 72.5312 47.4407Z" fill="#656566"/>
<path d="M72.5312 46.2415C72.5275 46.3283 72.5029 46.4129 72.4596 46.4882C72.4162 46.5635 72.3553 46.6272 72.2821 46.674C72.1458 46.7539 72.0329 46.674 72.0329 46.5329C72.0378 46.4458 72.0628 46.3609 72.1061 46.285C72.1493 46.2092 72.2096 46.1444 72.2821 46.0957C72.4278 45.997 72.5312 46.0628 72.5312 46.2415Z" fill="#656566"/>
<path d="M71.7129 45.4615C71.7073 45.5479 71.682 45.6318 71.6387 45.7068C71.5955 45.7818 71.5357 45.8459 71.4637 45.894C71.3227 45.9739 71.2099 45.894 71.2099 45.7483C71.2145 45.6611 71.2399 45.5764 71.2841 45.5011C71.3283 45.4258 71.3899 45.3623 71.4637 45.3158C71.5907 45.2358 71.7129 45.3017 71.7129 45.4615Z" fill="#656566"/>
<path d="M70.3357 45.9223C70.3308 46.0088 70.3058 46.093 70.2625 46.1681C70.2192 46.2432 70.159 46.3072 70.0865 46.3548C69.9455 46.4347 69.8327 46.3548 69.8327 46.209C69.8373 46.1219 69.8628 46.0371 69.9069 45.9619C69.9511 45.8866 70.0127 45.8231 70.0865 45.7765C70.2229 45.6966 70.3357 45.7718 70.3357 45.9223Z" fill="#656566"/>
<path d="M68.8546 48.5079C68.85 48.595 68.8245 48.6798 68.7804 48.7551C68.7362 48.8303 68.6746 48.8939 68.6008 48.9404C68.4644 49.0203 68.3516 48.9404 68.3516 48.7947C68.3572 48.7083 68.3825 48.6243 68.4257 48.5493C68.4689 48.4743 68.5288 48.4103 68.6008 48.3621C68.7418 48.2822 68.8546 48.348 68.8546 48.5079Z" fill="#656566"/>
<path d="M68.9862 49.7864C68.9814 49.8729 68.9563 49.9571 68.913 50.0323C68.8698 50.1074 68.8095 50.1713 68.737 50.2189C68.596 50.2988 68.4832 50.2189 68.4832 50.0779C68.4878 49.9907 68.5133 49.9059 68.5574 49.8307C68.6016 49.7554 68.6632 49.6919 68.737 49.6453C68.8734 49.5654 68.9862 49.6265 68.9862 49.7864Z" fill="#656566"/>
<path d="M69.9595 50.309C69.955 50.3963 69.9301 50.4813 69.8868 50.5572C69.8436 50.6331 69.7831 50.6978 69.7103 50.7462C69.574 50.8261 69.4611 50.7462 69.4611 50.6005C69.466 50.5139 69.4911 50.4297 69.5343 50.3546C69.5776 50.2795 69.6379 50.2155 69.7103 50.1679C69.8513 50.088 69.9595 50.1538 69.9595 50.309Z" fill="#656566"/>
<path d="M71.1206 49.7864C71.1158 49.8729 71.0907 49.9571 71.0474 50.0323C71.0042 50.1074 70.9439 50.1713 70.8714 50.2189C70.7304 50.2988 70.6176 50.2189 70.6176 50.0779C70.6222 49.9907 70.6477 49.9059 70.6918 49.8307C70.736 49.7554 70.7976 49.6919 70.8714 49.6453C71.0078 49.5654 71.1206 49.6265 71.1206 49.7864Z" fill="#656566"/>
<path d="M72.2161 47.1825C72.186 47.7316 72.0263 48.2658 71.7501 48.7413C71.4739 49.2169 71.0891 49.6203 70.6271 49.9186C69.7526 50.4263 69.0428 50.022 69.0428 49.0159C69.0735 48.4669 69.2329 47.9327 69.5081 47.4566C69.7833 46.9805 70.1666 46.5758 70.6271 46.2751C71.5062 45.7721 72.2161 46.1717 72.2161 47.1825Z" fill="#D5D6D5"/>
<path d="M71.9714 47.3186C71.9449 47.7833 71.8093 48.2352 71.5758 48.6379C71.3422 49.0405 71.0171 49.3825 70.6269 49.6363C69.8888 50.0641 69.2871 49.7209 69.2871 48.87C69.3131 48.4057 69.4479 47.954 69.6807 47.5514C69.9134 47.1488 70.2375 46.8065 70.6269 46.5523C71.3697 46.1245 71.9714 46.4676 71.9714 47.3186Z" fill="#2B2B2D"/>
<path d="M71.854 47.5064C71.8312 47.9049 71.7151 48.2925 71.515 48.6379C71.315 48.9833 71.0365 49.2769 70.7022 49.495C70.0628 49.8617 69.5504 49.5655 69.5504 48.8368C69.5721 48.438 69.6878 48.05 69.8879 47.7044C70.0881 47.3588 70.3671 47.0654 70.7022 46.8482C71.3369 46.4815 71.854 46.773 71.854 47.5064Z" fill="#59595B"/>
<path style="mix-blend-mode:screen" d="M70.6269 46.957C70.6269 46.957 71.3368 46.4492 71.6753 47.004C71.777 47.1802 71.8152 47.386 71.7834 47.5869C71.5256 47.9594 71.1984 48.2787 70.8197 48.5272C70.4646 48.7678 70.094 48.9845 69.7102 49.1759C69.638 48.9839 69.6086 48.7784 69.624 48.5737C69.6394 48.3691 69.6993 48.1703 69.7995 47.9912C70.1803 47.1356 70.6269 46.957 70.6269 46.957Z" fill="url(#paint0_linear_557_12077)"/>
<path d="M32.0116 60.8959C33.0176 60.3176 33.9343 60.2142 34.6395 60.5057C35.4857 60.863 39.4207 62.814 39.4207 62.814L33.8403 72.616C33.8403 72.616 29.9618 70.7966 29.2426 70.4252C28.5233 70.0538 28.0014 69.123 28.0014 67.8114C28.0014 65.2727 29.7973 62.1746 32.0116 60.8959Z" fill="#040406"/>
<path d="M33.6116 72.5038C32.056 71.5944 32.0718 68.6731 33.6468 65.9788C35.2218 63.2845 37.7597 61.8376 39.3153 62.747C40.8709 63.6564 40.8551 66.5777 39.2801 69.272C37.7051 71.9662 35.1672 73.4132 33.6116 72.5038Z" fill="#414143"/>
<path d="M33.9728 72.2317C32.5293 71.3878 32.5435 68.6777 34.0045 66.1784C35.4656 63.6792 37.8202 62.3372 39.2637 63.181C40.7072 64.0249 40.693 66.735 39.232 69.2343C37.771 71.7336 35.4164 73.0755 33.9728 72.2317Z" fill="#2B2B2D"/>
<path d="M39.3076 66.0344C39.2532 66.992 38.9743 67.9234 38.4932 68.7532C38.0122 69.5829 37.3426 70.2879 36.5386 70.8109C35.0107 71.6947 33.7696 70.9895 33.7696 69.2313C33.824 68.2737 34.103 67.3424 34.584 66.5126C35.0651 65.6828 35.7346 64.9779 36.5386 64.4549C38.0712 63.571 39.3076 64.2762 39.3076 66.0344Z" fill="#161618"/>
<path d="M38.9504 66.1889C38.9018 67.0487 38.6513 67.8849 38.2192 68.6298C37.7872 69.3747 37.1857 70.0073 36.4635 70.4764C35.0907 71.2662 33.9766 70.6315 33.9766 69.066C34.0248 68.2068 34.2752 67.3711 34.7073 66.6269C35.1394 65.8827 35.7412 65.251 36.4635 64.7832C37.8363 63.9793 38.9504 64.614 38.9504 66.1889Z" fill="#D5D6D5"/>
<path d="M38.7386 66.3113C38.6934 67.0981 38.4639 67.8633 38.0687 68.5452C37.6735 69.227 37.1235 69.8065 36.4633 70.2368C35.208 70.9608 34.1879 70.3779 34.1879 68.9393C34.232 68.1522 34.461 67.3866 34.8564 66.7046C35.2517 66.0225 35.8022 65.4433 36.4633 65.0138C37.7185 64.2851 38.7386 64.868 38.7386 66.3113Z" fill="#ADAFAE"/>
<path d="M38.0522 66.7063C38.0207 67.2557 37.8604 67.79 37.5844 68.2661C37.3084 68.7422 36.9243 69.1467 36.4632 69.4471C35.5841 69.9501 34.8742 69.5458 34.8742 68.5398C34.9043 67.9907 35.064 67.4565 35.3402 66.9809C35.6164 66.5054 36.0012 66.1019 36.4632 65.8037C37.3377 65.2959 38.0522 65.7003 38.0522 66.7063Z" fill="#7E8180"/>
<path d="M36.1436 70.1295C36.8046 69.7 37.3552 69.1208 37.7505 68.4387C38.1458 67.7567 38.3748 66.9911 38.419 66.204C38.4522 65.9154 38.4032 65.6232 38.2776 65.3612C38.152 65.0992 37.9549 64.878 37.7091 64.7231C38.3296 64.8313 38.7386 65.3954 38.7386 66.3122C38.6934 67.099 38.4639 67.8642 38.0687 68.546C37.6735 69.2279 37.1235 69.8073 36.4633 70.2376C36.2385 70.3968 35.9774 70.4969 35.7039 70.529C35.4304 70.561 35.1532 70.5239 34.8978 70.421C35.3343 70.4724 35.7752 70.3693 36.1436 70.1295Z" fill="#7E8180"/>
<path d="M36.4632 65.0145C37.1872 64.5961 37.8313 64.6101 38.245 64.9768C37.9912 64.8795 37.7173 64.8461 37.4475 64.8797C37.1778 64.9133 36.9204 65.0129 36.6983 65.1696C36.0372 65.5991 35.4867 66.1784 35.0914 66.8604C34.6961 67.5424 34.467 68.308 34.4229 69.0951C34.4052 69.34 34.44 69.5858 34.5252 69.8161C34.6103 70.0464 34.7438 70.2558 34.9165 70.4303C34.6657 70.2771 34.4638 70.0555 34.3347 69.7914C34.2056 69.5274 34.1547 69.232 34.1879 68.94C34.232 68.1529 34.461 67.3873 34.8563 66.7052C35.2517 66.0232 35.8022 65.444 36.4632 65.0145Z" fill="#7E8180"/>
<path d="M35.3304 66.7388C35.3256 66.8254 35.3005 66.9096 35.2573 66.9847C35.214 67.0598 35.1537 67.1238 35.0813 67.1714C34.9402 67.2513 34.8321 67.1714 34.8321 67.0256C34.8366 66.939 34.8615 66.8546 34.9048 66.7795C34.9481 66.7043 35.0086 66.6404 35.0813 66.5931C35.2176 66.5132 35.3304 66.579 35.3304 66.7388Z" fill="#656566"/>
<path d="M38.0336 68.3367C38.0287 68.4232 38.0037 68.5074 37.9604 68.5825C37.9171 68.6576 37.8568 68.7216 37.7844 68.7692C37.6481 68.8491 37.5352 68.7692 37.5352 68.6281C37.5401 68.5416 37.5652 68.4574 37.6084 68.3823C37.6517 68.3072 37.712 68.2433 37.7844 68.1956C37.9207 68.1157 38.0336 68.1768 38.0336 68.3367Z" fill="#656566"/>
<path d="M38.5463 67.0496C38.5414 67.1361 38.5164 67.2203 38.4731 67.2954C38.4298 67.3705 38.3695 67.4345 38.2971 67.4821C38.1561 67.562 38.0432 67.4821 38.0432 67.341C38.0461 67.2546 38.0698 67.17 38.1123 67.0947C38.1549 67.0194 38.2151 66.9555 38.2877 66.9085C38.424 66.8286 38.5463 66.8897 38.5463 67.0496Z" fill="#656566"/>
<path d="M38.5364 65.8316C38.5315 65.9182 38.5065 66.0024 38.4632 66.0775C38.4199 66.1526 38.3596 66.2165 38.2872 66.2641C38.1462 66.3441 38.0333 66.2641 38.0333 66.1231C38.038 66.0353 38.0634 65.9499 38.1076 65.8739C38.1517 65.7979 38.2133 65.7334 38.2872 65.6859C38.4235 65.606 38.5364 65.6718 38.5364 65.8316Z" fill="#656566"/>
<path d="M37.7137 65.0699C37.7084 65.1569 37.6826 65.2413 37.6385 65.3165C37.5944 65.3916 37.5332 65.4553 37.4599 65.5024C37.3235 65.5823 37.2107 65.5024 37.2107 65.3567C37.2156 65.2701 37.2406 65.1859 37.2839 65.1108C37.3272 65.0357 37.3874 64.9718 37.4599 64.9242C37.6009 64.8442 37.7137 64.9101 37.7137 65.0699Z" fill="#656566"/>
<path d="M36.3315 65.517C36.3269 65.6041 36.3015 65.6889 36.2573 65.7642C36.2131 65.8394 36.1515 65.903 36.0777 65.9495C35.9413 66.0294 35.8285 65.9495 35.8285 65.8038C35.8341 65.7174 35.8594 65.6335 35.9027 65.5585C35.9459 65.4835 36.0057 65.4194 36.0777 65.3713C36.2234 65.3054 36.3315 65.3713 36.3315 65.517Z" fill="#656566"/>
<path d="M34.851 68.1168C34.8461 68.2033 34.821 68.2875 34.7778 68.3626C34.7345 68.4378 34.6742 68.5017 34.6018 68.5493C34.4608 68.6292 34.3526 68.5493 34.3526 68.4036C34.3571 68.3169 34.382 68.2326 34.4253 68.1574C34.4686 68.0822 34.5291 68.0184 34.6018 67.971C34.7381 67.8911 34.851 67.957 34.851 68.1168Z" fill="#656566"/>
<path d="M34.9872 69.3948C34.9826 69.4819 34.9571 69.5667 34.9129 69.6419C34.8687 69.7172 34.8071 69.7808 34.7333 69.8273C34.597 69.9072 34.4842 69.8273 34.4842 69.6862C34.489 69.5997 34.5141 69.5155 34.5573 69.4404C34.6006 69.3653 34.6609 69.3014 34.7333 69.2537C34.8743 69.1738 34.9872 69.2349 34.9872 69.3948Z" fill="#656566"/>
<path d="M35.9603 69.9171C35.9555 70.0043 35.9304 70.0892 35.8872 70.165C35.844 70.2409 35.7837 70.3057 35.7112 70.3543C35.5701 70.4342 35.4573 70.3543 35.4573 70.2086C35.4619 70.1214 35.4874 70.0367 35.5316 69.9614C35.5757 69.8861 35.6373 69.8226 35.7112 69.7761C35.8616 69.6961 35.9603 69.7478 35.9603 69.9171Z" fill="#656566"/>
<path d="M37.1217 69.3948C37.1169 69.4813 37.0918 69.5655 37.0485 69.6406C37.0053 69.7157 36.945 69.7797 36.8725 69.8273C36.7315 69.9072 36.6187 69.8273 36.6187 69.6862C36.6233 69.5991 36.6488 69.5143 36.6929 69.4391C36.7371 69.3638 36.7987 69.3003 36.8725 69.2537C37.0089 69.1738 37.1217 69.2349 37.1217 69.3948Z" fill="#656566"/>
<path d="M38.2124 66.7866C38.1823 67.3357 38.0226 67.8699 37.7465 68.3454C37.4703 68.821 37.0854 69.2244 36.6234 69.5227C35.749 70.0304 35.0344 69.6261 35.0344 68.62C35.066 68.0706 35.2263 67.5364 35.5023 67.0603C35.7783 66.5842 36.1623 66.1797 36.6234 65.8793C37.5072 65.3762 38.2124 65.7805 38.2124 66.7866Z" fill="#D5D6D5"/>
<path d="M35.6701 69.338C35.1479 69.0327 35.1525 68.0529 35.6806 67.1496C36.2087 66.2463 37.0602 65.7615 37.5824 66.0668C38.1047 66.3721 38.1 67.3519 37.5719 68.2552C37.0438 69.1586 36.1924 69.6433 35.6701 69.338Z" fill="#2B2B2D"/>
<path d="M35.8841 69.1856C35.4358 68.9235 35.4399 68.0824 35.8933 67.3068C36.3467 66.5312 37.0776 66.115 37.5259 66.377C37.9742 66.6391 37.9701 67.4803 37.5167 68.2558C37.0633 69.0314 36.3324 69.4477 35.8841 69.1856Z" fill="#59595B"/>
<path style="mix-blend-mode:screen" d="M36.628 66.5649C36.628 66.5649 37.3379 66.0572 37.6763 66.6119C37.7743 66.7895 37.8122 66.994 37.7845 67.1948C37.532 67.5638 37.2132 67.8826 36.8442 68.1351C36.4892 68.3757 36.1186 68.5925 35.7348 68.7839C35.6619 68.5921 35.6317 68.3868 35.6463 68.1821C35.6609 67.9775 35.72 67.7786 35.8194 67.5991C35.9641 67.1728 36.2491 66.8082 36.628 66.5649Z" fill="url(#paint1_linear_557_12077)"/>
<path d="M12.4215 55.3427C12.3275 55.4743 12.2429 55.606 12.1629 55.7423C11.9531 56.0909 11.7857 56.4634 11.6646 56.8518C11.4484 56.4663 11.2227 56.0855 11.044 55.6812C10.8983 55.3521 10.7761 55.0183 10.6398 54.6892L10.7902 49.9552L14.3067 45.3009L14.6546 45.0894C15.0025 44.8731 15.6888 44.4924 15.6888 44.4924C15.6888 44.4924 20.5217 35.5083 21.4008 34.0886C22.2799 32.6688 23.159 30.6896 25.5614 29.016C27.9637 27.3424 30.3754 25.8286 30.3754 25.8286C32.0396 24.8178 46.9095 16.2569 54.8216 11.725L57.6189 10.1124C57.8783 9.94507 58.1855 9.86745 58.4933 9.89149H58.5356C58.7204 9.92474 58.8872 10.0232 59.0057 10.1689C59.1237 10.3126 59.203 10.4842 59.2361 10.6672L60.449 12.3502L60.858 21.0898L60.7781 27.3424L61.3563 27.4599C61.3563 27.4599 61.1636 30.0361 61.0272 30.6661C61.0272 30.7554 60.9849 30.8354 60.9661 30.92C60.7933 31.5555 60.4064 32.1118 59.8707 32.4949C59.0856 33.1013 55.8888 35.3156 55.8888 35.3156C55.8657 34.9365 55.8074 34.5604 55.7149 34.192C55.3576 32.7487 54.2763 30.6238 51.0419 32.4902C49.2043 33.5951 47.8296 35.3289 47.1728 37.37C46.8911 38.1828 46.6942 39.0225 46.5851 39.8758C46.5277 40.2871 46.4963 40.7016 46.4911 41.1169L44.9397 41.8033L23.0932 54.4119C22.1157 55.0015 21.1739 55.6483 20.2725 56.3488L19.8917 53.8383C19.8579 53.6036 19.798 53.3734 19.7131 53.152C19.0126 51.3373 16.7889 51.4971 13.8507 53.796C13.3004 54.2381 12.8188 54.7593 12.4215 55.3427Z" fill="#F6B100"/>
<path d="M15.9004 43.6748C16.7372 44.3518 18.03 45.3907 19.337 46.4109C20.9072 47.6473 22.4915 48.8508 23.2907 49.3444C23.5916 49.5325 23.9818 49.7534 24.4378 50.0026C25.3357 50.4727 26.4875 51.0792 27.7051 51.6856C29.4869 52.5648 31.4144 53.4862 32.9281 54.2008C33.5158 54.4781 34.0376 54.7273 34.4701 54.9248L34.8839 54.6803L40.845 43.1247L34.5595 39.4672L29.3881 36.4632L26.1396 34.5827L22.4257 32.4248L20.517 35.7156L15.9004 43.6748Z" fill="#D3CABB"/>
<path d="M18.3073 44.5729L17.4939 43.8301C17.4939 43.8301 18.3402 41.8838 19.3368 40.0127C20.6485 37.5446 21.9178 35.1705 22.4631 34.1174C22.6878 33.685 22.9423 33.2687 23.2247 32.8716L29.2375 36.3411C29.0896 36.5528 28.903 36.7346 28.6875 36.877C27.9071 37.3471 26.572 38.2169 25.721 38.8562C24.5244 39.8388 23.4025 40.9089 22.3644 42.0577L18.3073 44.5729Z" fill="white"/>
<path d="M36.2141 52.297L35.5277 50.4165L28.7392 47.2714L26.3604 48.033L18.326 42.0249L15.9002 43.6703L23.3422 49.9511L34.47 54.925L34.8884 54.6805L36.2141 52.297Z" fill="#9E9382"/>
<g style="mix-blend-mode:screen">
<path d="M27.705 51.6861C29.4867 52.5652 31.4142 53.4866 32.928 54.2012L34.5593 39.4676L29.388 36.4636L27.705 51.6861ZM20.5215 35.702L22.4302 32.4111L26.1442 34.569L24.4376 50.003C23.9675 49.7539 23.5914 49.5329 23.2905 49.3449C22.4913 48.8512 20.907 47.6477 19.3368 46.4113L20.5215 35.702Z" fill="#616060"/>
</g>
<path d="M22.6655 32.6372L23.004 32.7453L16.6997 43.6051C18.5472 45.1001 22.6279 48.3721 24.0899 49.2795C26.1209 50.5394 32.0068 53.3319 34.9027 54.6812L34.489 54.9256C31.814 53.6751 25.4298 50.6616 23.3049 49.3453C21.8475 48.4379 18.1335 45.4527 16.253 43.9577L22.6655 32.6372Z" fill="#6A6455"/>
<path d="M21.9461 50.9761L15.402 44.526L15.9003 43.6704C17.7432 45.1654 21.8286 48.4374 23.2859 49.3447C25.4109 50.6611 31.7951 53.6745 34.4701 54.9251L33.4781 55.4375L21.9461 50.9761Z" fill="#363638"/>
<path d="M22.6654 32.6365C22.6654 32.6365 24.1603 34.2161 29.4821 37.1591C36.5339 41.0564 40.765 42.8569 40.765 42.8569L46.5945 39.8717L55.7242 34.1879L60.9755 30.9206L76.9595 20.9305L77.3215 20.7049L59.0103 10.1366C58.8919 9.99087 58.7251 9.89245 58.5402 9.8592H58.4979C58.3135 9.84091 58.1273 9.86339 57.9526 9.92502C57.8385 9.9669 57.7284 10.0188 57.6235 10.0802L54.8263 11.6927C46.9236 16.2387 32.0537 24.7996 30.38 25.7963C30.38 25.7963 27.9683 27.3148 25.566 28.9837C23.1637 30.6526 23.5445 31.198 22.6654 32.6365Z" fill="#FFD15A"/>
<path d="M25.5611 28.9937L45.5929 40.5539L41.2443 43.2618C41.2443 43.2618 37.0132 41.4612 29.9614 37.5639C24.6396 34.6257 22.4395 32.3926 22.4395 32.3926C23.2123 31.0401 24.2791 29.8785 25.5611 28.9937Z" fill="#FFAD2E"/>
<path d="M57.9573 9.91569C59.7155 10.997 62.3294 12.539 65.7895 14.4524C70.8809 17.2731 74.6324 19.492 76.9783 20.9306L77.3403 20.7049L59.0291 10.1367C58.9107 9.99094 58.7439 9.89252 58.559 9.85927H58.5167C58.3284 9.83585 58.1372 9.85515 57.9573 9.91569Z" fill="#FFAD2E"/>
<path d="M27.6861 66.2552L27.8741 61.8267L32.1287 56.6131L32.4813 56.4015C32.8245 56.1853 33.5109 55.8045 33.5109 55.8045C33.5109 55.8045 38.6258 45.7063 39.5096 44.2865C40.3934 42.8668 40.9858 42.0112 43.3834 40.3281C45.781 38.6451 49.1847 36.6565 49.1847 36.6565C51.1545 35.4577 70.9324 24.0761 76.4187 20.9216C77.2038 20.4514 77.8808 20.7006 78.05 21.481L78.5202 23.5918L79.6767 31.9036L79.6061 38.1938L79.6767 38.4053C79.6767 38.4053 79.9963 40.8876 79.8553 41.5175C79.7224 42.2544 79.3076 42.9104 78.6988 43.3463C78.3791 43.5955 77.6457 44.1173 76.8983 44.6438C76.5108 44.2873 76.0698 43.9938 75.5913 43.7741C75.3751 43.6754 75.1541 43.5908 74.9379 43.4873L74.7639 43.3839C74.5237 43.103 74.2123 42.8919 73.8624 42.7727C73.5125 42.6536 73.137 42.6309 72.7753 42.7069C72.0795 42.4907 71.144 42.6035 69.8747 43.3369C68.038 44.4396 66.6646 46.1722 66.0103 48.212C65.9445 48.3954 65.8833 48.5787 65.8316 48.7574C65.5145 49.7958 65.3437 50.8733 65.3239 51.9589L63.7678 52.6453C63.7678 52.6453 43.1906 64.4406 41.9213 65.2586C41.5875 65.4796 41.3242 65.6723 41.3242 65.6723V65.6488C41.2964 64.7822 41.1379 63.9247 40.8541 63.1054C40.7789 62.861 40.4169 62.4614 40.3417 62.2592C39.6412 60.4446 35.6405 62.3439 32.6975 64.6427C32.1566 65.06 31.6812 65.556 31.2872 66.1142C31.0743 66.1946 30.8656 66.2855 30.6619 66.3869H29.3973C28.9554 66.3869 28.1374 66.4903 27.672 66.26L27.6861 66.2552Z" fill="#E18802"/>
<path style="mix-blend-mode:screen" d="M42.8853 52.0008C42.2309 52.6782 41.5165 53.295 40.751 53.8437L33.041 57.9432L28.9322 61.1024L32.5991 56.6127L33.9813 55.8041C33.9813 55.8041 37.2721 46.9189 41.2164 43.0498C45.1607 39.1807 56.7304 32.5473 56.7304 32.5473L76.8985 20.9212C76.8985 20.9212 77.6037 20.3947 78.055 21.3913C78.0785 21.4759 78.5251 23.5821 78.5251 23.5821L79.6816 31.8985L55.0991 45.7718C55.0991 45.7718 43.9008 50.9431 42.8853 52.0008Z" fill="url(#paint2_linear_557_12077)"/>
<path style="mix-blend-mode:multiply" d="M28.1422 66.2547L28.3256 61.8262L33.4264 58.1545L41.362 54.0081C41.362 54.0081 41.9121 53.3546 42.9275 52.2874C43.943 51.2202 52.612 47.4828 52.612 47.4828L79.6721 31.9077L79.6016 38.1932L75.5445 43.7312C75.5445 43.7312 74.6982 41.2255 71.0548 42.4572C67.4114 43.6889 66.3536 47.3512 66.3536 47.3512L38.8187 63.6831L37.8173 62.3198L34.6957 62.7899L28.114 67.4535L27.0187 66.9317L28.1422 66.2547Z" fill="url(#paint3_linear_557_12077)"/>
<path style="mix-blend-mode:multiply" d="M40.6521 62.226C40.9013 63.1898 41.3197 65.6297 41.3197 65.6297V65.6532C41.3197 65.6532 41.6582 65.4087 41.9167 65.2395C43.186 64.4215 63.7632 52.6262 63.7632 52.6262L65.3193 51.9398C65.3391 50.8542 65.51 49.7767 65.827 48.7383L40.6521 62.226Z" fill="url(#paint4_linear_557_12077)"/>
<path style="mix-blend-mode:multiply" d="M41.917 65.2586C41.6584 65.4278 41.3199 65.6723 41.3199 65.6723V65.6488C41.3199 65.6488 41.2306 65.1222 41.1084 64.4641L65.3948 50.8306C65.3483 51.2034 65.3232 51.5785 65.3196 51.9542L63.7635 52.6405C63.7635 52.6405 43.1863 64.4405 41.917 65.2586Z" fill="url(#paint5_linear_557_12077)"/>
<g style="mix-blend-mode:multiply">
<path d="M41.3056 64.8255L48.616 60.5944V55.5547L48.8181 54.8166L49.9652 54.149V47.21L49.3446 38.8936C49.3307 38.7535 49.2817 38.6192 49.2024 38.5029C49.123 38.3866 49.0157 38.2921 48.8903 38.228C48.765 38.1639 48.6255 38.1323 48.4848 38.136C48.344 38.1398 48.2065 38.1788 48.0847 38.2495C47.7133 38.4799 47.2009 38.7996 46.5098 39.2415C44.6293 40.4215 42.5937 41.8412 41.5501 43.3785C40.8966 44.347 39.6132 46.7869 38.5789 48.7473C38.1088 49.6406 37.6857 50.4445 37.3848 50.9898C36.4445 52.7339 35.2505 55.503 35.2363 55.5312V55.5735L34.832 58.6669L36.4493 60.6602L37.4976 60.2653C38.687 59.8187 39.5285 59.9033 40.0739 60.5238C40.8261 61.3748 41.2915 64.5716 41.2962 64.6045L41.3056 64.8255ZM48.3057 60.4204L41.5501 64.3224C41.4231 63.5561 40.9812 61.0974 40.2854 60.3076C39.6508 59.5883 38.6682 59.4708 37.366 59.9644L36.5292 60.2794L35.1188 58.5634L35.5043 55.6252C35.6124 55.3713 36.7219 52.781 37.6293 51.1308C37.9301 50.5855 38.3532 49.7769 38.8281 48.8837C39.8576 46.928 41.1363 44.4974 41.7804 43.5431C42.7912 42.0528 44.808 40.6613 46.6462 39.4954L48.2211 38.5034C48.3001 38.4594 48.3891 38.4362 48.4796 38.4362C48.5701 38.4362 48.6591 38.4594 48.7382 38.5034C48.8193 38.5446 48.8883 38.6061 48.9386 38.6819C48.9888 38.7577 49.0186 38.8452 49.025 38.9359L49.6455 47.2429V53.9892L48.5548 54.6097L48.3104 55.55L48.3057 60.4204Z" fill="#E0C700"/>
</g>
<path d="M40.9012 62.1507C40.7085 62.2588 40.7743 62.4187 40.464 62.5597C39.7683 60.745 37.2155 60.872 34.2773 63.1709C33.7347 63.6866 33.2707 64.2789 32.8998 64.9291C32.8105 65.0607 32.6459 64.9855 32.566 65.1218L32.0677 64.7834C32.7517 63.4085 33.8457 62.28 35.1987 61.5536C37.5869 60.1762 37.963 60.2091 38.7857 60.195C39.6084 60.1809 40.6474 61.0835 40.9012 62.1507Z" fill="#909092"/>
<path d="M79.6721 31.9077C79.6721 31.9077 78.7319 32.2556 78.6002 33.0877C78.4686 33.9198 78.4028 38.9031 78.4028 38.9031L79.5828 38.1932L79.6721 31.9077Z" fill="#F63D00"/>
<path d="M78.9575 32.9279C78.8494 33.7083 78.7695 38.1697 78.7601 38.6915L78.4028 38.9031C78.4028 38.9031 78.4827 33.9198 78.6002 33.0877C78.7178 32.2556 79.6721 31.9077 79.6721 31.9077V31.9312C79.4871 32.0347 79.3272 32.1776 79.2037 32.3499C79.0802 32.5221 78.9962 32.7195 78.9575 32.9279Z" fill="#B02300"/>
<path d="M9.47386 56.8295C9.50641 57.9364 9.64017 59.0379 9.87347 60.1204C9.96186 60.5247 10.1402 60.9039 10.3953 61.2299C10.3953 61.2299 14.1563 64.8498 15.9991 66.0204C18.7869 67.7739 28.5325 71.328 28.6924 71.3797L28.6407 70.6228L28.3445 66.3918C28.2176 66.3918 28.0859 66.3541 27.9496 66.3259C27.6216 66.2525 27.2982 66.1599 26.9811 66.0486C26.9811 66.0486 19.7319 63.7967 17.7057 62.6026C15.4162 61.2534 10.1602 55.8799 10.1602 55.8799L9.6337 55.2734L9.47386 56.8295Z" fill="#363638"/>
<path d="M28.1326 70.0724C28.189 70.2416 28.2454 70.3967 28.2924 70.5425C28.3935 70.831 28.5243 71.1083 28.6826 71.3699C28.7711 71.459 28.8847 71.5189 29.0083 71.5416C29.1318 71.5643 29.2593 71.5486 29.3737 71.4968C29.7733 71.3182 31.3999 70.7446 31.3999 70.7446C31.367 68.9346 31.8199 67.1489 32.7115 65.5733C32.7914 65.437 32.8808 65.3054 32.9701 65.1737L32.5705 64.5767L31.7713 65.1267L29.4207 66.2409L27.9445 66.1563V66.3302L27.8787 67.7406C27.853 68.5259 27.9384 69.311 28.1326 70.0724Z" fill="#2B2B2D"/>
<path d="M9.47374 56.8292C9.50628 57.936 9.64005 59.0375 9.87335 60.12C9.96174 60.5243 10.1401 60.9035 10.3952 61.2295C10.3952 61.2295 14.1561 64.8494 15.999 66.02C18.7868 67.7736 28.5324 71.3276 28.6923 71.3794C28.7808 71.4685 28.8944 71.5284 29.0179 71.5511C29.1414 71.5738 29.2689 71.5581 29.3833 71.5063C29.7829 71.3277 31.4096 70.7541 31.4096 70.7541C31.3767 68.9441 31.8296 67.1583 32.7212 65.5828C31.8952 66.3555 31.3495 67.3808 31.1698 68.4975C30.9159 70.3028 30.8783 70.4438 30.8783 70.4438C30.1522 70.6543 29.3905 70.7135 28.6406 70.6178C28.5263 70.5994 28.4133 70.5743 28.3021 70.5426C28.208 70.5144 28.1046 70.4814 28.0106 70.4438C26.7789 69.9361 18.58 67.0402 17.5645 66.2504C16.549 65.4606 13.1454 63.3215 11.0627 61.3235C9.87335 60.1858 9.65239 57.6519 9.65239 57.6519V55.3013L9.47374 56.8292Z" fill="#171719"/>
<path d="M41.0331 62.5975C40.8403 62.7056 40.1916 62.0098 39.8813 62.1509C39.3877 61.5068 37.3473 61.3187 34.4091 63.6223C33.848 64.0599 33.358 64.5817 32.9564 65.169C32.8624 65.3007 32.7778 65.437 32.6978 65.5686L32.2042 65.2301C32.8852 63.8547 33.978 62.7258 35.3305 62.0004C37.7234 60.623 38.0995 60.6559 38.9175 60.6418C39.7355 60.6277 40.7933 61.5303 41.0331 62.5975Z" fill="#2B2B2D"/>
<path d="M65.8505 46.7122C65.9928 46.427 66.1498 46.1492 66.3206 45.8801C66.6685 45.3254 67.4724 43.8492 70.1521 42.3025C72.8318 40.7558 73.772 41.8089 73.772 41.8089L78.3933 38.9082L79.5827 38.1937V37.6577L80.5229 38.5651C80.5229 38.5651 79.9776 40.8827 79.8366 41.5174C79.7045 42.2533 79.2893 42.9081 78.6801 43.3415C78.2617 43.6706 77.1428 44.4604 76.1978 45.1232C75.6057 44.2436 74.8586 43.479 73.993 42.8667C73.7807 42.7146 73.5352 42.6152 73.2769 42.5768C73.0185 42.5384 72.7548 42.562 72.5074 42.6457C71.8445 42.5235 70.9795 42.688 69.8559 43.3368C68.0195 44.4409 66.6451 46.1727 65.9868 48.2119L40.7226 61.7561C40.6568 61.652 40.5812 61.5544 40.4969 61.4646C40.4969 61.4646 40.4969 61.427 40.464 61.4082L65.8505 46.7122Z" fill="#909092"/>
<path d="M40.5395 62.6963C40.372 62.464 40.1511 62.2753 39.8954 62.1463L66.2221 46.9567C66.3627 46.6705 66.5197 46.3927 66.6922 46.1246C67.0448 45.5651 67.844 44.0937 70.5237 42.547C73.2034 41.0003 74.1484 42.0768 74.1484 42.0768L78.7649 39.1762L79.9684 38.4663L80.5514 38.5838C80.5514 38.5838 80.3586 41.1601 80.2176 41.7901C80.0848 42.5269 79.6699 43.1829 79.0611 43.6188C78.2807 44.2253 75.0792 46.4395 75.0792 46.4395C75.0552 46.033 74.9906 45.6298 74.8864 45.236C74.5104 43.7928 73.4103 41.7806 70.237 43.6141C68.3982 44.7156 67.023 46.4485 66.3679 48.4893L40.8779 63.2134C40.8779 63.2134 40.563 62.7527 40.5395 62.6963Z" fill="#2B2B2D"/>
<path d="M74.8816 45.2118C74.9858 45.6055 75.0503 46.0087 75.0743 46.4153C75.0743 46.4153 78.2758 44.2057 79.0562 43.5946C79.665 43.1587 80.0799 42.5026 80.2127 41.7658C80.3538 41.1358 80.5465 38.5596 80.5465 38.5596C80.5465 38.5596 80.1281 41.5636 79.1785 42.5791C78.7413 43.0398 76.842 44.1352 74.8816 45.2118Z" fill="#1D1D1F"/>
<path d="M79.6204 32.8101L79.2255 33.0404L79.169 35.4051L79.6063 35.1513L79.6204 32.8101Z" fill="#FEF7E5"/>
<path d="M79.6204 35.6689L79.2255 35.8993L79.169 38.264L79.6063 38.0148L79.6204 35.6689Z" fill="#FE9529"/>
<path d="M49.8148 49.1235L48.2493 50.0262C48.1665 50.0949 48.0999 50.1811 48.0544 50.2787C48.0089 50.3762 47.9855 50.4827 47.9861 50.5903V51.9066C47.9861 51.9066 47.9861 52.2122 48.2775 52.0383L49.8148 51.1498V49.1235Z" fill="#2B2B2D"/>
<path d="M48.5832 51.6199L49.2225 51.2485V49.7441L48.5832 50.1155V51.6199Z" fill="#0C0C0E"/>
<path d="M37.0464 53.6794L37.8645 54.4269L41.6724 52.5464C41.6724 52.5464 42.1425 52.0481 42.749 51.4181C43.4616 50.6781 44.2234 49.987 45.0291 49.3496C45.6167 48.9076 46.4394 48.3623 47.1446 47.911L47.9955 47.3704C48.2608 47.1854 48.4841 46.9466 48.651 46.6696C48.8178 46.3925 48.9245 46.0835 48.964 45.7625L48.6725 39.5476C48.7148 39.0492 48.3951 38.8189 47.9767 39.0539C47.2998 39.4394 47.1211 39.557 45.659 40.5442C45.4428 40.69 45.156 40.8686 44.8175 41.1037C43.5247 41.9995 42.4773 43.2053 41.7712 44.6108C41.5784 44.9822 41.301 45.5134 40.9531 46.1622L38.6449 50.5014C37.6482 52.3536 37.0464 53.6794 37.0464 53.6794Z" fill="#7A6457"/>
<g style="mix-blend-mode:screen">
<path d="M40.953 46.1571L42.7489 51.4131C43.4615 50.673 44.2233 49.9819 45.029 49.3445C45.6166 48.9026 46.4394 48.3573 47.1445 47.906L44.7939 41.0986C43.5011 41.9945 42.4537 43.2003 41.7475 44.6057C41.5783 44.9771 41.2962 45.5084 40.953 46.1571Z" fill="#2F2E2E"/>
</g>
<path d="M37.6858 54.1164L41.4985 52.2359C42.5366 51.0871 43.6585 50.017 44.8551 49.0344C45.7061 48.395 47.0412 47.5488 47.8169 47.0599C48.0832 46.8759 48.3073 46.6375 48.4742 46.3602C48.6412 46.083 48.7473 45.7734 48.7853 45.4521L48.4939 39.2324C48.5036 39.1606 48.5036 39.0879 48.4939 39.0161C48.5715 39.0774 48.6303 39.1592 48.6636 39.2523C48.6968 39.3455 48.7032 39.4461 48.6819 39.5426L48.964 45.7717C48.9253 46.0929 48.819 46.4023 48.6521 46.6794C48.4852 46.9566 48.2614 47.1952 47.9955 47.3795C47.2151 47.8497 45.88 48.7194 45.0291 49.3541C43.8337 50.338 42.7118 51.408 41.6724 52.5556L37.8645 54.4361L37.0464 53.6933L37.0935 53.5898L37.6858 54.1164Z" fill="#6A6455"/>
<path d="M10.7949 49.9513C10.7949 49.9513 16.1402 55.2637 18.2745 56.533C20.8696 58.0891 29.6091 60.7876 29.6091 60.7876L33.8684 55.5739C33.8684 55.5739 25.2652 51.6014 22.5855 49.9325C20.6721 48.7478 15.4021 44.5073 15.4021 44.5073L10.7949 49.9513Z" fill="#FFC03B"/>
<path d="M29.4257 66.2366C29.4257 66.2366 20.0985 63.115 17.5129 61.5636C15.3597 60.2708 10.4611 55.2781 10.4611 55.2781L10.7714 49.9517C10.7714 49.9517 16.1166 55.264 18.251 56.5333C20.846 58.0894 29.5856 60.7879 29.5856 60.7879L29.4257 66.2366Z" fill="#363638"/>
<path d="M26.967 66.0477C26.967 66.0477 19.7224 63.7911 17.6962 62.597C15.4067 61.2524 10.0567 56.0576 10.0567 56.0576L9.62424 55.2725L10.5175 54.7554L10.4845 55.2772C10.4845 55.2772 15.5618 60.378 17.7291 61.6426C19.8964 62.9073 27.8837 65.4036 27.8837 65.4036C28.3741 65.568 28.8932 65.6295 29.4085 65.5842C29.9238 65.5389 30.4241 65.3878 30.8784 65.1403L32.5708 63.8992V64.5762L32.505 64.6843L30.2766 66.0289C28.9979 66.5836 28.2974 66.4896 26.967 66.0477Z" fill="#909092"/>
<path d="M24.1086 59.2132L23.7702 63.7076C23.7702 63.7076 18.4296 61.8271 17.6586 61.2818C16.5491 60.5108 13.6015 57.8311 13.6015 57.8311L13.9352 53.1299C13.9352 53.1299 16.756 56.148 18.6976 57.1024C20.4497 57.9316 22.2578 58.637 24.1086 59.2132Z" fill="#7F7F81"/>
<path d="M14.1561 55.4657L14.2736 55.5832L14.3347 55.6444L14.5933 55.8982L14.772 56.0722C14.7868 56.0822 14.7995 56.095 14.8096 56.1098L14.9365 56.2273C15.4959 56.7632 16.2857 57.4919 17.0379 58.1078L17.3153 58.3288L17.5739 58.5262C17.6551 58.5919 17.7398 58.6531 17.8277 58.7096C17.8835 58.7534 17.9415 58.7942 18.0017 58.8318C18.0216 58.8501 18.0437 58.8658 18.0675 58.8788L18.2932 59.0198C18.5132 59.1392 18.7392 59.2475 18.9701 59.3442L19.0595 59.3818L19.5907 59.5981H19.633L20.0608 59.7673L20.2865 59.8519L20.8553 60.0729L21.6075 60.3503L21.7344 60.402L22.1575 60.5571L22.2986 60.6088L23.314 60.9802L23.394 61.0084L23.5068 61.0507L23.5397 60.7593L23.676 59.4476C22.1043 58.9618 20.5641 58.3793 19.0641 57.7035C18.9231 57.6424 18.7868 57.5765 18.6551 57.5107C18.2181 57.2842 17.8027 57.0183 17.414 56.7162C16.4005 55.9255 15.4424 55.0663 14.5463 54.1447C14.4335 54.0271 14.3488 53.9331 14.2971 53.8861L14.2736 53.8579L14.1561 55.4657Z" fill="#373739"/>
<path d="M13.8037 57.6091C13.8037 57.6091 16.4411 60.2653 17.9454 61.1632C18.0842 61.2412 18.227 61.3119 18.3732 61.3748L18.5613 61.4594C20.0234 62.0894 23.1779 63.2177 23.1779 63.2177L23.3424 61.6193C21.8393 61.1516 20.3639 60.5991 18.9233 59.9644C18.7117 59.8704 18.5143 59.7717 18.3262 59.6824C17.9531 59.4907 17.5962 59.269 17.259 59.0195C16.0703 58.1044 14.9543 57.0985 13.9212 56.0107L13.8037 57.6091Z" fill="#373739"/>
<path d="M14.1563 55.4657C15.1603 56.4728 16.2147 57.4284 17.3155 58.3288C17.6261 58.5802 17.9527 58.811 18.2934 59.0198C18.5135 59.1392 18.7394 59.2475 18.9704 59.3442C20.4512 59.9789 23.5258 61.0789 23.5258 61.0789L23.5587 60.7875C22.6702 60.4725 20.0657 59.5182 18.9891 59.0292C18.8653 58.9729 18.7445 58.9101 18.6272 58.8412C18.1775 58.5587 17.7486 58.2445 17.3437 57.9009C15.971 56.7726 14.4854 55.2777 14.4854 55.2777L14.5653 54.1635L14.2738 53.8579L14.1563 55.4657Z" fill="#131315"/>
<path d="M17.3155 58.3284L17.5741 58.5259C17.6553 58.5916 17.74 58.6528 17.8279 58.7092C17.8837 58.7531 17.9417 58.7939 18.0019 58.8315C18.0218 58.8498 18.0439 58.8655 18.0677 58.8785L18.2933 59.0195C18.5134 59.1389 18.7394 59.2472 18.9703 59.3439V59.0289L19.0643 57.7314C18.9233 57.6703 18.787 57.6045 18.6553 57.5386C18.2183 57.3122 17.8029 57.0462 17.4142 56.7441L17.3249 57.91L17.3155 58.3284Z" fill="#131315"/>
<path d="M17.1647 60.2842L18.3729 61.3748L18.5046 61.4971L18.561 61.4595L18.8289 61.309L18.923 59.9645C18.7114 59.8705 18.514 59.7717 18.3259 59.6824C17.9528 59.4908 17.5959 59.2691 17.2587 59.0195L17.1647 60.2842Z" fill="#131315"/>
<path d="M13.9212 56.0107L14.2127 56.3163L14.1327 57.4305C14.1327 57.4305 16.7701 60.0914 18.2745 60.9893C18.9139 61.3701 22.1906 62.5689 23.2061 62.9356L23.1778 63.2177C23.1778 63.2177 18.7023 61.6193 17.9454 61.1632C16.441 60.2653 13.8036 57.6091 13.8036 57.6091L13.9212 56.0107Z" fill="#131315"/>
<path d="M27.2959 62.2258C26.2686 61.9229 25.2594 61.5619 24.273 61.1445L24.367 59.4004C25.1773 59.7651 26.0094 60.0791 26.8587 60.3406C28.3113 60.8108 29.3268 61.0599 29.3268 61.0599L29.2469 62.7476C28.9037 62.6348 28.2925 62.4844 27.2959 62.2258Z" fill="#BEBB7F"/>
<path d="M27.296 62.6586C28.3162 62.9406 28.8944 63.0817 29.2235 63.1522L29.1483 64.7224C29.1483 64.7224 28.208 64.7224 26.1489 63.9655C24.0898 63.2086 24.1603 63.2086 24.1603 63.2086L24.2496 61.5679C25.2443 61.987 26.2613 62.3511 27.296 62.6586Z" fill="#BEBB7F"/>
<path d="M25.641 60.6421L25.6786 59.9087C26.0124 60.0309 26.4073 60.1625 26.8587 60.3036C28.3113 60.7737 29.3268 61.0229 29.3268 61.0229L29.2845 61.8926L28.6639 61.7233C27.6364 61.4211 26.6271 61.0601 25.641 60.6421Z" fill="#FCFCF9"/>
<path d="M25.5192 62.7241L25.5568 62.0801C26.1491 62.301 26.7556 62.5079 27.2915 62.6583C28.3117 62.9404 28.8899 63.0814 29.219 63.1519L29.1767 64.0029C28.6133 63.856 28.0578 63.6802 27.5125 63.4763C25.5191 62.7476 25.5192 62.7241 25.5192 62.7241Z" fill="#FCFCF9"/>
<path d="M12.7223 53.9854C12.0713 53.4091 11.4529 52.797 10.87 52.152L10.9217 50.3467C11.4221 50.9019 11.9543 51.4278 12.5154 51.9216C13.4557 52.7584 13.7236 53.064 13.7236 53.064L13.6014 54.7705C13.3804 54.606 13.3616 54.5213 12.7223 53.9854Z" fill="#BEBB7F"/>
<path d="M12.7035 54.4409C13.3569 54.991 13.3569 55.0615 13.5685 55.2213L13.4557 56.8056C13.4557 56.8056 13.2159 56.8056 11.8996 55.4893C10.5832 54.1729 10.7102 54.2341 10.7102 54.2341L10.7525 52.5322C11.3679 53.2032 12.0192 53.8404 12.7035 54.4409Z" fill="#BEBB7F"/>
<path d="M11.4529 51.7231L11.4765 50.938C11.7397 51.2013 12.0829 51.5351 12.5154 51.9206C13.4557 52.7574 13.7236 53.0629 13.7236 53.0629L13.6672 53.8668C13.5732 53.7822 13.4604 53.6835 13.3052 53.5566C12.6554 52.9791 12.037 52.367 11.4529 51.7231Z" fill="#FCFCF9"/>
<path d="M11.2931 53.8257V53.1299C11.7632 53.6 12.2333 54.0701 12.7035 54.4415C13.3569 54.9915 13.3569 55.0621 13.5685 55.2219L13.5121 56.0117C13.277 55.8143 12.9479 55.5416 12.4825 55.0715C11.2085 53.8022 11.2931 53.8257 11.2931 53.8257Z" fill="#FCFCF9"/>
<path d="M19.1158 65.7288V67.3272C19.1161 67.3827 19.1022 67.4374 19.0753 67.4859C19.0484 67.5345 19.0096 67.5754 18.9624 67.6046C18.9152 67.6338 18.8613 67.6505 18.8059 67.653C18.7504 67.6555 18.6953 67.6436 18.6457 67.6187L15.2562 65.9028C15.0951 65.8239 14.9587 65.7025 14.8618 65.5517C14.7648 65.4009 14.711 65.2264 14.7061 65.0471V63.4064C14.7053 63.3508 14.719 63.296 14.7459 63.2473C14.7727 63.1986 14.8118 63.1577 14.8593 63.1288C14.9068 63.0998 14.961 63.0838 15.0165 63.0822C15.0721 63.0806 15.1272 63.0935 15.1762 63.1197L18.5752 64.8779C18.7331 64.9585 18.8666 65.0799 18.9617 65.2296C19.0568 65.3792 19.11 65.5516 19.1158 65.7288Z" fill="#FAEABD"/>
<path d="M18.7163 67.5293C18.7531 67.5299 18.7897 67.5232 18.8239 67.5095C18.8581 67.4959 18.8892 67.4756 18.9155 67.4497C18.9418 67.4239 18.9626 67.3931 18.9768 67.3592C18.9911 67.3252 18.9984 67.2888 18.9984 67.2519V65.7146C18.9995 65.5467 18.9539 65.3817 18.8667 65.2381C18.7796 65.0945 18.6543 64.9779 18.5048 64.9013L15.2421 63.2089C15.2023 63.1906 15.159 63.181 15.1152 63.1807C15.0784 63.1801 15.0418 63.1868 15.0076 63.2004C14.9734 63.2141 14.9423 63.2344 14.916 63.2602C14.8898 63.2861 14.8689 63.3169 14.8547 63.3508C14.8405 63.3848 14.8331 63.4212 14.8331 63.4581V65.0471C14.8357 65.216 14.8838 65.3812 14.9723 65.5251C15.0609 65.6691 15.1865 65.7865 15.3362 65.8651L18.5894 67.5105C18.6299 67.5255 18.6732 67.532 18.7163 67.5293Z" fill="#F4CC5E"/>
<path d="M33.4781 55.4379L33.8683 55.5884L35.2458 54.7798L41.2445 43.2665L40.8449 43.1255L34.8885 54.6811L33.4781 55.4379Z" fill="#F0960A"/>
<path d="M22.4303 32.416L22.6654 32.637L16.253 43.9575L15.623 44.705L15.4021 44.5263L15.9004 43.6707L22.4303 32.416Z" fill="#F0960A"/>
<path d="M30.1215 53.8672L27.4841 56.4011L24.7574 58.4273L24.0898 58.6295L27.376 56.0109L29.7454 53.5757L30.1215 53.8672Z" fill="#E18802"/>
<path d="M29.7452 53.5764L27.3758 56.0116L24.0897 58.6302L18.1991 56.1009L14.156 52.6644L16.5067 49.256L18.5047 46.9336L29.7452 53.5764Z" fill="#FFD54D"/>
<path d="M18.2039 57.1718L18.7915 57.4962L18.5047 61.497L17.9735 61.3136L16.8405 60.4721L17.1414 56.4761L18.2039 57.1718Z" fill="#7F7F81"/>
<path d="M18.6269 47.8686L18.7774 47.7182C18.8526 47.6383 19.05 47.6618 19.2005 47.7652L21.4994 49.2649C21.7861 49.4576 21.8707 49.735 21.678 49.829L21.5229 49.9183C21.4559 49.9408 21.3845 49.9466 21.3149 49.9351C21.2452 49.9236 21.1794 49.8953 21.1233 49.8525L18.862 48.3952C18.6034 48.2259 18.5 47.9956 18.6269 47.8686Z" fill="black"/>
<path d="M19.4685 47.8549L19.2946 47.7656L18.5988 48.3251L18.7539 48.4426L19.4685 47.8549Z" fill="#FFD54D"/>
<path d="M19.948 48.132L19.7741 48.0474L19.0783 48.6068L19.2334 48.7196L19.948 48.132Z" fill="#FFD54D"/>
<path d="M20.4276 48.414L20.2537 48.3247L19.5579 48.8842L19.713 49.0017L20.4276 48.414Z" fill="#FFD54D"/>
<path d="M20.9071 48.692L20.7332 48.6074L20.0374 49.1668L20.1972 49.2844L20.9071 48.692Z" fill="#FFD54D"/>
<path d="M21.3679 48.9926L21.1893 48.9033L20.4982 49.4628L20.6533 49.5803L21.3679 48.9926Z" fill="#FFD54D"/>
<path d="M21.7722 49.3305L21.5936 49.2412L20.9025 49.8054L21.0576 49.9229L21.7722 49.3305Z" fill="#FFD54D"/>
<path d="M25.5191 51.9683L25.6601 51.7991C25.7165 51.7592 25.7838 51.7378 25.8529 51.7378C25.9219 51.7378 25.9893 51.7592 26.0456 51.7991L28.3398 52.9932C28.6595 53.1671 28.8099 53.4633 28.6266 53.6372L28.4809 53.7877C28.4169 53.8282 28.3427 53.8497 28.267 53.8497C28.1912 53.8497 28.117 53.8282 28.0531 53.7877L25.7307 52.4761C25.5191 52.3538 25.4204 52.1141 25.5191 51.9683Z" fill="black"/>
<path d="M26.3087 51.8264L26.1489 51.77L25.4907 52.4329L25.6317 52.5316L26.3087 51.8264Z" fill="#FFD54D"/>
<path d="M26.7505 52.0289L26.5859 51.9678L25.9372 52.6542L26.0829 52.7576L26.7505 52.0289Z" fill="#FFD54D"/>
<path d="M27.2159 52.2364L27.042 52.1753L26.3979 52.8852L26.5531 52.9933L27.2159 52.2364Z" fill="#FFD54D"/>
<path d="M27.6908 52.4527L27.5169 52.3916L26.8822 53.125L27.042 53.2378L27.6908 52.4527Z" fill="#FFD54D"/>
<path d="M28.1707 52.7006L27.9873 52.6348L27.362 53.3964L27.5313 53.5139L28.1707 52.7006Z" fill="#FFD54D"/>
<path d="M28.6312 53.0212L28.4385 52.9507L27.8179 53.7499L27.9966 53.8721L28.6312 53.0212Z" fill="#FFD54D"/>
<path d="M60.4677 41.6256L53.9707 45.3865C53.3548 45.7438 52.5133 45.2361 52.4005 44.4463L51.5355 38.4476C51.4433 37.9636 51.4989 37.463 51.6951 37.0111C51.8913 36.5591 52.219 36.1767 52.6355 35.9136L59.1373 32.1526C59.7532 31.7953 60.59 32.2984 60.7075 33.0929L61.5725 39.0916C61.6636 39.5761 61.607 40.0767 61.41 40.5285C61.213 40.9804 60.8847 41.3626 60.4677 41.6256Z" fill="#E18802"/>
<path d="M53.7263 45.1559L60.2234 41.3949C60.6403 41.132 60.9686 40.7498 61.1656 40.2979C61.3626 39.8461 61.4192 39.3454 61.3281 38.861L60.4631 32.8623C60.4282 32.6351 60.3341 32.4211 60.1904 32.2417C60.3255 32.342 60.4395 32.4679 60.5258 32.6123C60.6121 32.7567 60.6691 32.9168 60.6935 33.0832L61.5585 39.0819C61.6496 39.5664 61.5929 40.067 61.3959 40.5189C61.1989 40.9707 60.8706 41.3529 60.4537 41.6159L53.9566 45.3768C53.7372 45.4861 53.4859 45.5135 53.248 45.4541C53.0102 45.3946 52.8014 45.2522 52.6591 45.0525C52.8073 45.1723 52.9875 45.246 53.1772 45.2644C53.3669 45.2828 53.5578 45.2451 53.7263 45.1559Z" fill="#FFC54D"/>
<path d="M61.5724 39.6981L60.7073 33.6993C60.5898 32.9001 59.7671 32.3971 59.1371 32.7591L52.6354 36.5201C52.3227 36.7093 52.0592 36.9697 51.8664 37.2802C51.6735 37.5907 51.5569 37.9423 51.5259 38.3065C51.4597 37.8431 51.5293 37.3704 51.7262 36.9457C51.9231 36.521 52.2389 36.1625 52.6354 35.9136L59.1371 32.1526C59.753 31.7953 60.5898 32.2984 60.7073 33.0929L61.5724 39.0916C61.6051 39.3381 61.6051 39.5879 61.5724 39.8344C61.5771 39.7874 61.5771 39.7451 61.5724 39.6981Z" fill="#C47000"/>
<path d="M59.9788 40.9903L54.1963 44.3329C54.0492 44.398 53.8886 44.427 53.7281 44.4172C53.5675 44.4075 53.4116 44.3594 53.2734 44.2769C53.1353 44.1945 53.0189 44.0802 52.9341 43.9435C52.8493 43.8068 52.7985 43.6518 52.7859 43.4914L52.0149 38.1508C51.9336 37.7202 51.9838 37.2751 52.159 36.8734C52.3343 36.4717 52.6265 36.1322 52.9975 35.8989L58.78 32.5564C58.9271 32.4913 59.0876 32.4623 59.2482 32.4721C59.4088 32.4818 59.5647 32.5299 59.7028 32.6123C59.841 32.6948 59.9573 32.8091 60.0422 32.9458C60.127 33.0825 60.1778 33.2375 60.1903 33.3979L60.9613 38.7197C61.0474 39.1531 60.9996 39.6026 60.824 40.0082C60.6485 40.4138 60.3537 40.7563 59.9788 40.9903Z" fill="#FFC54D"/>
<path d="M60.247 41.1734L54.4645 44.516C54.3173 44.58 54.157 44.6081 53.9968 44.5978C53.8366 44.5876 53.6812 44.5394 53.5434 44.4571C53.4055 44.3749 53.2893 44.261 53.2042 44.1249C53.1191 43.9888 53.0677 43.8344 53.0541 43.6745L52.316 38.3339C52.2342 37.9038 52.2837 37.459 52.4581 37.0573C52.6325 36.6557 52.9237 36.3159 53.2939 36.082L59.0811 32.7395C59.2282 32.6743 59.3887 32.6454 59.5493 32.6552C59.7099 32.6649 59.8658 32.713 60.0039 32.7954C60.1421 32.8778 60.2584 32.9922 60.3433 33.1289C60.4281 33.2656 60.4789 33.4206 60.4914 33.581L61.2483 38.9216C61.3279 39.3541 61.2748 39.8006 61.0961 40.2025C60.9174 40.6043 60.6214 40.9428 60.247 41.1734Z" fill="#EEA129"/>
<path d="M73.9885 33.7881L67.4868 37.5491C66.8709 37.9064 66.0341 37.4033 65.9166 36.6088L65.0515 30.6101C64.9605 30.1256 65.0171 29.625 65.2141 29.1732C65.4111 28.7213 65.7394 28.3391 66.1563 28.0761L72.6534 24.3152C73.274 23.9579 74.1108 24.4656 74.2236 25.2554L75.0886 31.2542C75.1808 31.7381 75.1252 32.2387 74.929 32.6906C74.7328 33.1426 74.4051 33.525 73.9885 33.7881Z" fill="#E18802"/>
<path d="M67.2564 37.3092L73.7582 33.5483C74.1747 33.2851 74.5024 32.9027 74.6986 32.4508C74.8948 31.9988 74.9505 31.4983 74.8583 31.0143L73.9932 25.0156C73.9607 24.7877 73.8664 24.5731 73.7206 24.395C73.9926 24.5983 74.1734 24.9007 74.2236 25.2365L75.0886 31.2353C75.1808 31.7193 75.1252 32.2198 74.929 32.6717C74.7328 33.1237 74.4051 33.5061 73.9885 33.7692L67.4868 37.5302C67.2673 37.6395 67.016 37.6668 66.7782 37.6074C66.5403 37.5479 66.3315 37.4055 66.1892 37.2058C66.3372 37.3262 66.5174 37.4003 66.7072 37.4187C66.8971 37.4371 67.0881 37.399 67.2564 37.3092Z" fill="#FFC54D"/>
<path d="M75.0885 31.8606L74.2234 25.8619C74.1106 25.0627 73.2832 24.5596 72.6532 24.9216L66.1562 28.6826C65.8444 28.8732 65.5813 29.134 65.3879 29.4441C65.1945 29.7542 65.076 30.1052 65.042 30.4691C64.9769 30.0052 65.0474 29.5324 65.2451 29.1078C65.4428 28.6832 65.7593 28.3248 66.1562 28.0761L72.6532 24.3152C73.2738 23.9579 74.1106 24.4656 74.2234 25.2554L75.0885 31.2542C75.1212 31.5022 75.1212 31.7536 75.0885 32.0016C75.0932 31.9546 75.0979 31.9076 75.0885 31.8606Z" fill="#C47000"/>
<path d="M73.4994 33.1592L67.7169 36.497C67.5699 36.5633 67.4091 36.5931 67.2481 36.5838C67.0871 36.5746 66.9307 36.5267 66.7923 36.444C66.6538 36.3614 66.5373 36.2466 66.4528 36.1093C66.3682 35.972 66.318 35.8163 66.3066 35.6555L65.5356 30.3196C65.4534 29.8888 65.5027 29.4432 65.6771 29.0408C65.8514 28.6384 66.1429 28.2977 66.5134 28.063L72.3006 24.7252C72.4476 24.6589 72.6084 24.6291 72.7694 24.6384C72.9304 24.6476 73.0868 24.6955 73.2252 24.7782C73.3637 24.8608 73.4802 24.9756 73.5647 25.1129C73.6493 25.2502 73.6995 25.4059 73.711 25.5667L74.4819 30.9026C74.563 31.3338 74.5127 31.7795 74.3375 32.1819C74.1623 32.5842 73.8703 32.9247 73.4994 33.1592Z" fill="#FFC54D"/>
<path d="M73.7629 33.3423L67.9804 36.6801C67.8334 36.7464 67.6726 36.7762 67.5116 36.767C67.3506 36.7577 67.1942 36.7098 67.0558 36.6272C66.9173 36.5445 66.8008 36.4297 66.7163 36.2924C66.6317 36.1551 66.5815 35.9994 66.5701 35.8386L65.7991 30.5027C65.7167 30.0714 65.7664 29.6253 65.9417 29.2226C66.117 28.82 66.4097 28.4797 66.7816 28.2462L72.5641 24.9083C72.7111 24.842 72.8719 24.8122 73.0329 24.8215C73.1939 24.8307 73.3503 24.8786 73.4887 24.9613C73.6272 25.0439 73.7437 25.1587 73.8282 25.296C73.9128 25.4333 73.963 25.589 73.9745 25.7498L74.7454 31.0857C74.8278 31.517 74.7781 31.9632 74.6028 32.3658C74.4275 32.7684 74.1348 33.1087 73.7629 33.3423Z" fill="#EEA129"/>
<path d="M76.5832 22.3553L76.6396 22.6609L76.7619 23.3191L76.8371 23.7375L76.9593 24.4004L77.0439 24.8611L77.1661 25.5239L77.232 25.8718L77.3401 26.4736L77.3918 26.7604L77.4106 26.9437L77.4858 27.6348L77.5375 28.1096L77.6081 28.796L77.6645 29.2802L77.735 29.9666L77.8008 30.5872L77.876 31.2782L77.9748 32.195L79.0372 31.6167L78.8962 30.7705L78.7834 30.0935L78.6799 29.4871L78.5671 28.8148L78.4872 28.3494L78.3791 27.6818L78.2991 27.2164L78.2944 27.1976L78.1628 26.5582L78.0688 26.1069L77.9419 25.5098L77.8713 25.1667L77.735 24.5085L77.6363 24.0478L77.5046 23.399L77.4153 22.99L77.279 22.3318L77.2085 21.998L76.5832 22.3553Z" fill="#2B2B2D"/>
<path d="M27.8413 29.3176C27.5404 29.1484 27.578 28.8475 27.9259 28.6454L57.976 11.2509C58.1532 11.1526 58.3509 11.0971 58.5534 11.0889C58.7558 11.0808 58.9574 11.1201 59.1419 11.2039C59.4381 11.3731 59.4005 11.674 59.0573 11.8762L29.0072 29.2706C28.83 29.3689 28.6323 29.4244 28.4298 29.4326C28.2274 29.4407 28.0258 29.4014 27.8413 29.3176Z" fill="#E18802"/>
<path d="M30.3517 30.78C30.0508 30.6061 30.0884 30.3099 30.4363 30.1077L60.4864 12.7133C60.6636 12.615 60.8613 12.5595 61.0638 12.5513C61.2662 12.5432 61.4678 12.5825 61.6523 12.6663C61.9485 12.8402 61.9109 13.1364 61.5677 13.3386L31.5176 30.733C31.3404 30.8313 31.1427 30.8868 30.9402 30.895C30.7378 30.9031 30.5362 30.8638 30.3517 30.78Z" fill="#E18802"/>
<path d="M32.8622 32.227C32.5613 32.053 32.5989 31.7568 32.9468 31.5547L62.9969 14.1602C63.1737 14.0612 63.3712 14.0049 63.5737 13.9959C63.7762 13.9869 63.9779 14.0255 64.1628 14.1085C64.459 14.2825 64.4213 14.5786 64.0782 14.7855L34.0281 32.18C33.8509 32.2783 33.6532 32.3337 33.4507 32.3419C33.2483 32.3501 33.0467 32.3107 32.8622 32.227Z" fill="#E18802"/>
<path d="M35.3914 33.676C35.0905 33.5068 35.1281 33.2059 35.476 33.0038L65.5261 15.6093C65.7033 15.511 65.901 15.4555 66.1035 15.4473C66.3059 15.4392 66.5075 15.4785 66.692 15.5623C66.9929 15.7315 66.9553 16.0324 66.6074 16.2346L36.5573 33.629C36.3801 33.7274 36.1824 33.7828 35.9799 33.791C35.7775 33.7991 35.5759 33.7598 35.3914 33.676Z" fill="#E18802"/>
<path d="M37.8832 35.1282C37.587 34.9542 37.62 34.658 37.9678 34.4559L68.0179 17.0614C68.1951 16.9631 68.3928 16.9077 68.5953 16.8995C68.7978 16.8913 68.9993 16.9307 69.1838 17.0144C69.4847 17.1884 69.4471 17.4846 69.0992 17.6867L39.0491 35.0812C38.8719 35.1795 38.6742 35.2349 38.4718 35.2431C38.2693 35.2513 38.0677 35.2119 37.8832 35.1282Z" fill="#E18802"/>
<path d="M40.3936 36.5766C40.0974 36.4026 40.135 36.1065 40.4782 35.9043L70.5283 18.5099C70.7051 18.4108 70.9027 18.3545 71.1051 18.3455C71.3076 18.3365 71.5093 18.3751 71.6942 18.4581C71.9951 18.6321 71.9575 18.9283 71.6096 19.1351L41.5595 36.5296C41.3823 36.6279 41.1846 36.6834 40.9821 36.6915C40.7797 36.6997 40.5781 36.6603 40.3936 36.5766Z" fill="#E18802"/>
<path d="M42.9135 38.0242C42.6173 37.8549 42.6549 37.5541 42.9981 37.3519L73.0482 19.9574C73.2254 19.8591 73.4231 19.8037 73.6256 19.7955C73.828 19.7873 74.0296 19.8267 74.2141 19.9104C74.515 20.0797 74.4774 20.3806 74.1295 20.5827L44.0794 37.9772C43.9026 38.0766 43.7048 38.1327 43.5021 38.1408C43.2994 38.149 43.0977 38.109 42.9135 38.0242Z" fill="#E18802"/>
<path d="M27.8413 29.1064C27.5404 28.9372 27.578 28.6363 27.9259 28.4341L57.976 11.0397C58.1528 10.9403 58.3507 10.8842 58.5533 10.876C58.756 10.8679 58.9577 10.9078 59.1419 10.9927C59.4381 11.1619 59.4005 11.4628 59.0573 11.665L29.0072 29.0594C28.83 29.1577 28.6323 29.2132 28.4298 29.2214C28.2274 29.2295 28.0258 29.1902 27.8413 29.1064Z" fill="#FFD54D"/>
<path d="M30.3517 30.5587C30.0508 30.3847 30.0884 30.0885 30.4363 29.8817L60.4864 12.4872C60.6636 12.3889 60.8613 12.3334 61.0638 12.3253C61.2662 12.3171 61.4678 12.3565 61.6523 12.4402C61.9485 12.6142 61.9109 12.9103 61.5677 13.1125L31.5176 30.5069C31.3408 30.606 31.1432 30.6623 30.9408 30.6713C30.7383 30.6803 30.5366 30.6417 30.3517 30.5587Z" fill="#FFD54D"/>
<path d="M32.8622 32.0068C32.5613 31.8328 32.5989 31.5366 32.9468 31.3345L62.9969 13.94C63.1737 13.841 63.3712 13.7847 63.5737 13.7757C63.7762 13.7667 63.9779 13.8053 64.1628 13.8883C64.459 14.0623 64.4213 14.3584 64.0782 14.5606L34.0281 31.955C33.8513 32.0541 33.6537 32.1104 33.4513 32.1194C33.2488 32.1284 33.0471 32.0898 32.8622 32.0068Z" fill="#FFD54D"/>
<path d="M35.3914 33.4548C35.0905 33.2856 35.1281 32.9847 35.476 32.7825L65.5261 15.3881C65.7033 15.2898 65.901 15.2343 66.1035 15.2262C66.3059 15.218 66.5075 15.2573 66.692 15.3411C66.9929 15.5103 66.9553 15.8112 66.6074 16.0134L36.5573 33.4078C36.3801 33.5061 36.1824 33.5616 35.9799 33.5698C35.7775 33.5779 35.5759 33.5386 35.3914 33.4548Z" fill="#FFD54D"/>
<path d="M37.8832 34.9078C37.587 34.7338 37.62 34.4377 37.9678 34.2308L68.0179 16.8364C68.1951 16.738 68.3928 16.6826 68.5953 16.6744C68.7978 16.6662 68.9993 16.7056 69.1838 16.7893C69.4847 16.9633 69.4471 17.2595 69.0992 17.4616L39.0491 34.8561C38.8723 34.9551 38.6748 35.0114 38.4723 35.0204C38.2698 35.0294 38.0681 34.9908 37.8832 34.9078Z" fill="#FFD54D"/>
<path d="M40.3936 36.3691C40.0974 36.1951 40.135 35.8989 40.4782 35.6968L70.5283 18.3023C70.7051 18.2033 70.9027 18.147 71.1051 18.138C71.3076 18.129 71.5093 18.1676 71.6942 18.2506C71.9951 18.4246 71.9575 18.7207 71.6096 18.9229L41.5595 36.3173C41.3827 36.4164 41.1852 36.4727 40.9827 36.4817C40.7802 36.4907 40.5785 36.4521 40.3936 36.3691Z" fill="#FFD54D"/>
<path d="M9.78407 55.7852C9.78407 55.7852 9.58662 57.9853 10.0144 59.076C10.4422 60.1667 14.4477 63.0673 14.4477 63.0673V62.9122C14.4479 62.8478 14.4648 62.7845 14.4969 62.7287C14.5289 62.6728 14.5749 62.6262 14.6304 62.5935C14.6859 62.5608 14.7489 62.543 14.8133 62.542C14.8777 62.541 14.9412 62.5568 14.9977 62.5878L18.9373 64.7316C19.078 64.8043 19.1962 64.9142 19.2791 65.0493C19.3619 65.1843 19.4063 65.3394 19.4074 65.4979V65.7C20.8427 66.285 22.3103 66.7873 23.8031 67.2044C25.1394 67.5787 26.4975 67.8707 27.8696 68.0788L27.9354 66.4804C27.9354 66.4804 19.3087 63.89 17.0709 62.3433C14.5558 60.6086 9.78407 55.7852 9.78407 55.7852Z" fill="#414143"/>
<path d="M27.9353 66.4805L27.8694 68.0789C27.8694 68.0789 29.0683 68.0789 29.6794 68.0789C30.2695 67.9428 30.8323 67.7076 31.3436 67.3831C31.5468 66.8817 31.8121 66.4079 32.1334 65.9727L32.7117 65.3663L33.1818 64.3179L34.0327 63.1191C33.4733 63.2931 32.4719 64.9056 32.4719 64.9056C32.4719 64.9056 30.1213 66.3442 29.5572 66.4335C29.0265 66.568 28.4728 66.5841 27.9353 66.4805Z" fill="#414143"/>
<path d="M76.6398 22.6611L76.7621 23.3193L77.4155 22.9902L77.2792 22.332L76.6398 22.6611Z" fill="#5E5E5F"/>
<path d="M76.8374 23.7374L76.9596 24.4003L77.6366 24.0477L77.505 23.3989L76.8374 23.7374Z" fill="#5E5E5F"/>
<path d="M77.0441 24.8609L77.1663 25.5238L77.8715 25.1665L77.7351 24.5083L77.0441 24.8609Z" fill="#5E5E5F"/>
<path d="M77.2324 25.8718L77.3405 26.4735L78.0692 26.1068L77.9423 25.5098L77.2324 25.8718Z" fill="#5E5E5F"/>
<path d="M77.4108 26.9431L77.486 27.6342L78.2993 27.2158L78.2946 27.197L78.163 26.5576L77.4108 26.9431Z" fill="#5E5E5F"/>
<path d="M77.5379 28.1099L77.6084 28.7963L78.4875 28.3497L78.3794 27.6821L77.5379 28.1099Z" fill="#5E5E5F"/>
<path d="M77.6647 29.2799L77.7352 29.9663L78.6802 29.4867L78.5674 28.8145L77.6647 29.2799Z" fill="#5E5E5F"/>
<path d="M77.7916 30.5963L77.8621 31.2827L77.8762 31.278L78.8964 30.7702L78.7835 30.0933L77.801 30.5869L77.7916 30.5963Z" fill="#5E5E5F"/>
<defs>
<linearGradient id="paint0_linear_557_12077" x1="70.0064" y1="46.0967" x2="72.3476" y2="52.8476" gradientUnits="userSpaceOnUse">
<stop offset="0.12"/>
<stop offset="0.21" stop-color="#181D25"/>
<stop offset="0.35" stop-color="#364153"/>
<stop offset="0.48" stop-color="#4F5F7A"/>
<stop offset="0.61" stop-color="#637698"/>
<stop offset="0.74" stop-color="#7187AE"/>
<stop offset="0.87" stop-color="#7991BB"/>
<stop offset="0.98" stop-color="#7C94BF"/>
</linearGradient>
<linearGradient id="paint1_linear_557_12077" x1="36.0074" y1="65.7046" x2="38.3439" y2="72.4555" gradientUnits="userSpaceOnUse">
<stop offset="0.12"/>
<stop offset="0.21" stop-color="#181D25"/>
<stop offset="0.35" stop-color="#364153"/>
<stop offset="0.48" stop-color="#4F5F7A"/>
<stop offset="0.61" stop-color="#637698"/>
<stop offset="0.74" stop-color="#7187AE"/>
<stop offset="0.87" stop-color="#7991BB"/>
<stop offset="0.98" stop-color="#7C94BF"/>
</linearGradient>
<linearGradient id="paint2_linear_557_12077" x1="45.3582" y1="23.7607" x2="60.623" y2="56.655" gradientUnits="userSpaceOnUse">
<stop offset="0.12"/>
<stop offset="0.38" stop-color="#512C20"/>
<stop offset="0.68" stop-color="#A65A41"/>
<stop offset="0.88" stop-color="#DB7756"/>
<stop offset="0.98" stop-color="#F0825E"/>
</linearGradient>
<linearGradient id="paint3_linear_557_12077" x1="58.1124" y1="59.9175" x2="39.9423" y2="19.9291" gradientUnits="userSpaceOnUse">
<stop stop-color="white"/>
<stop offset="0.98" stop-color="#C28A4E"/>
</linearGradient>
<linearGradient id="paint4_linear_557_12077" x1="55.1365" y1="59.9506" x2="52.5884" y2="55.4892" gradientUnits="userSpaceOnUse">
<stop stop-color="white"/>
<stop offset="0.98" stop-color="#C28A4E"/>
</linearGradient>
<linearGradient id="paint5_linear_557_12077" x1="53.9191" y1="59.2363" x2="53.0259" y2="57.6755" gradientUnits="userSpaceOnUse">
<stop stop-color="white"/>
<stop offset="0.98" stop-color="#C28A4E"/>
</linearGradient>
</defs>
</svg>
