<svg width="359" height="288" viewBox="0 0 359 288" fill="none" xmlns="http://www.w3.org/2000/svg">
<path d="M343.584 168.27C335.302 222.855 269.18 184.312 177.68 241.812C86.1804 299.312 9.73562 173.458 18.0178 118.872C26.2999 64.2871 105.894 31.0949 195.797 44.7357C285.7 58.3765 351.866 113.685 343.584 168.27Z" fill="#EFEFEF"/>
<g style="mix-blend-mode:multiply">
<path d="M81.2878 187.622L67.1804 179.63L90.5863 165.416L115.922 152.266L116.742 197.088L81.2878 187.622Z" fill="#A9A9AB"/>
</g>
<path d="M116.742 197.087L83.886 178.111V143.826L116.742 162.795V197.087Z" fill="#B76F3F"/>
<path d="M83.886 143.826V178.111L116.742 197.087L84.8356 177.571L83.886 143.826Z" fill="#8C4320"/>
<path d="M97.6893 186.193V151.795L102.908 154.803V189.498L97.6893 186.193Z" fill="#9C480C"/>
<path d="M116.742 162.795L83.886 143.826L116.742 124.849L149.599 143.826L116.742 162.795Z" fill="#EFD995"/>
<path d="M147.183 143.826L116.834 161.284L83.886 143.826L116.742 162.795L149.599 143.826L116.742 124.849L147.183 143.826Z" fill="#FFEDB4"/>
<path d="M98.5555 135.462L136.661 157.348L142.435 154.067L98.6999 135.318L98.5555 135.462Z" fill="#AB774D"/>
<path d="M103.919 132.302L117.548 139.921L112.139 143.028L98.7074 135.31L103.919 132.302Z" fill="#E6E1E4"/>
<path d="M142.587 153.922L136.813 157.196L117.601 146.166L123.162 143.059L142.587 153.922Z" fill="#E6E1E4"/>
<path d="M102.46 154.598L136.433 135.667L136.35 136.168L102.908 154.803L102.46 154.598Z" fill="#C39055"/>
<path d="M123.162 143.059L117.601 146.166L112.139 143.028L117.548 139.921L123.162 143.059Z" fill="#F9F9F9"/>
<path d="M112.139 143.028L117.601 146.166L102.46 154.606L97.2412 151.582L112.139 143.028Z" fill="#F1F1F1"/>
<path d="M136.433 135.667L123.162 143.059L117.548 139.921L130.66 132.393L136.433 135.667Z" fill="#F1F1F1"/>
<path d="M97.2412 185.988V151.59L102.46 154.598V189.293L97.2412 185.988Z" fill="#B3A4AD"/>
<path d="M116.742 197.087L149.599 178.111V143.826L116.742 162.795V197.087Z" fill="#D9AF6A"/>
<path d="M116.742 197.087L149.599 178.11V177.525L116.742 196.495V197.087Z" fill="#9D6F40"/>
<path d="M118.687 172.732L128.046 167.323V159.498L118.869 164.413L118.687 164.915V172.732Z" fill="#9C480C"/>
<path d="M137.041 185.35V151.073L131.404 154.325V188.602L137.041 185.35Z" fill="#9C480C"/>
<path d="M137.254 185.479V150.944L131.625 154.196V188.731L137.254 185.479Z" fill="#D6D6D6"/>
<path d="M93.7695 162.917L86.1726 158.511V147.275L93.7695 151.681V162.917ZM86.8411 158.1L93.0706 161.701V152.091L86.8411 148.49V158.1Z" fill="#A45823"/>
<path d="M88.5049 157.439L91.0954 158.936V155.859L88.5049 154.363V157.439Z" fill="#A45823"/>
<path d="M87.2361 153.656L92.364 156.619L89.7962 151.256L87.2361 153.656Z" fill="#A45823"/>
<path d="M119.059 164.565L128.419 159.148L128.229 159.004L118.87 164.413L119.059 164.565Z" fill="#FEFEFE"/>
<path d="M119.059 172.382V164.565L118.87 164.413V172.238L119.059 172.382Z" fill="#8B8B8B"/>
<path d="M119.059 172.382L128.419 166.973V159.149L119.059 164.565V172.382Z" fill="#D6D6D6"/>
<path d="M119.584 165.629L127.895 160.82V160.326L119.584 165.127V165.629Z" fill="#6F6F6F"/>
<path d="M123.017 165.826L127.895 163.016V162.522L123.017 165.333V165.826Z" fill="#8E8E8E"/>
<path d="M119.614 171.091L122.151 169.625V165.416L119.614 166.882V171.091Z" fill="#8E8E8E"/>
<path d="M123.017 166.905L127.895 164.094V163.601L123.017 166.411V166.905Z" fill="#8E8E8E"/>
<path d="M123.017 167.976L127.895 165.173V164.679L123.017 167.482V167.976Z" fill="#8E8E8E"/>
<path d="M123.017 169.055L127.895 166.252V165.75L123.017 168.561V169.055Z" fill="#8E8E8E"/>
<path d="M132.772 148.43L136.54 150.944L131.625 153.785V154.196L137.254 150.944L132.772 148.43Z" fill="#F1F1F1"/>
<path d="M153.733 213.312L120.877 194.335V160.05L153.733 179.019V213.312Z" fill="#B76F3F"/>
<path d="M120.877 160.05V194.335L153.733 213.312L121.826 193.795L120.877 160.05Z" fill="#8C4320"/>
<path d="M134.68 202.418V168.019L139.899 171.028V205.722L134.68 202.418Z" fill="#9C480C"/>
<path d="M153.733 179.019L120.877 160.05L153.733 141.073L186.589 160.05L153.733 179.019Z" fill="#EFD995"/>
<path d="M184.174 160.05L153.824 177.507L120.877 160.05L153.733 179.019L186.589 160.05L153.733 141.073L184.174 160.05Z" fill="#FFEDB4"/>
<path d="M135.546 151.686L173.652 173.572L179.426 170.291L135.691 151.542L135.546 151.686Z" fill="#AB774D"/>
<path d="M140.91 148.526L154.538 156.145L149.129 159.252L135.698 151.534L140.91 148.526Z" fill="#E6E1E4"/>
<path d="M179.578 170.146L173.804 173.42L154.592 162.39L160.152 159.282L179.578 170.146Z" fill="#E6E1E4"/>
<path d="M139.451 170.822L173.424 151.891L173.34 152.392L139.899 171.027L139.451 170.822Z" fill="#C39055"/>
<path d="M160.152 159.283L154.591 162.39L149.129 159.252L154.538 156.145L160.152 159.283Z" fill="#F9F9F9"/>
<path d="M149.129 159.252L154.592 162.39L139.451 170.83L134.232 167.806L149.129 159.252Z" fill="#F1F1F1"/>
<path d="M173.424 151.891L160.152 159.283L154.538 156.145L167.65 148.617L173.424 151.891Z" fill="#F1F1F1"/>
<path d="M134.232 202.213V167.814L139.451 170.822V205.517L134.232 202.213Z" fill="#B3A4AD"/>
<path d="M153.733 213.312L186.589 194.335V160.05L153.733 179.019V213.312Z" fill="#D9AF6A"/>
<path d="M153.733 213.311L186.589 194.334V193.75L153.733 212.719V213.311Z" fill="#9D6F40"/>
<path d="M155.678 188.956L165.037 183.547V175.722L155.86 180.638L155.678 181.139V188.956Z" fill="#9C480C"/>
<path d="M174.032 201.574V167.297L168.395 170.549V204.826L174.032 201.574Z" fill="#9C480C"/>
<path d="M174.245 201.704V167.168L168.615 170.42V204.955L174.245 201.704Z" fill="#D6D6D6"/>
<path d="M130.76 179.141L123.163 174.735V163.499L130.76 167.905V179.141ZM123.832 174.325L130.061 177.925V168.315L123.832 164.715V174.325Z" fill="#A45823"/>
<path d="M125.496 173.664L128.086 175.16V172.083L125.496 170.587V173.664Z" fill="#A45823"/>
<path d="M124.227 169.88L129.355 172.843L126.787 167.48L124.227 169.88Z" fill="#A45823"/>
<path d="M156.05 180.789L165.409 175.373L165.219 175.229L155.86 180.637L156.05 180.789Z" fill="#FEFEFE"/>
<path d="M156.05 188.606V180.789L155.86 180.637V188.462L156.05 188.606Z" fill="#8B8B8B"/>
<path d="M156.05 188.607L165.409 183.198V175.373L156.05 180.789V188.607Z" fill="#D6D6D6"/>
<path d="M156.574 181.853L164.885 177.044V176.55L156.574 181.352V181.853Z" fill="#6F6F6F"/>
<path d="M160.008 182.05L164.885 179.24V178.746L160.008 181.557V182.05Z" fill="#8E8E8E"/>
<path d="M156.605 187.315L159.142 185.849V181.64L156.605 183.106V187.315Z" fill="#8E8E8E"/>
<path d="M160.008 183.129L164.885 180.318V179.824L160.008 182.635V183.129Z" fill="#8E8E8E"/>
<path d="M160.008 184.2L164.885 181.397V180.903L160.008 183.707V184.2Z" fill="#8E8E8E"/>
<path d="M160.008 185.279L164.885 182.476V181.975L160.008 184.785V185.279Z" fill="#8E8E8E"/>
<path d="M169.762 164.654L173.531 167.168L168.615 170.009V170.42L174.245 167.168L169.762 164.654Z" fill="#F1F1F1"/>
<path d="M133.783 171.778L100.927 152.801V118.516L133.783 137.486V171.778Z" fill="#B76F3F"/>
<path d="M100.927 118.516V152.801L133.783 171.778L101.876 152.262L100.927 118.516Z" fill="#8C4320"/>
<path d="M114.73 160.884V126.486L119.949 129.494V164.189L114.73 160.884Z" fill="#9C480C"/>
<path d="M133.783 137.486L100.927 118.516L133.783 99.5396L166.639 118.516L133.783 137.486Z" fill="#EFD995"/>
<path d="M164.223 118.516L133.874 135.974L100.927 118.516L133.783 137.486L166.639 118.516L133.783 99.5396L164.223 118.516Z" fill="#FFEDB4"/>
<path d="M115.596 110.152L153.702 132.039L159.475 128.757L115.74 110.008L115.596 110.152Z" fill="#AB774D"/>
<path d="M120.959 106.992L134.588 114.612L129.179 117.719L115.748 110.001L120.959 106.992Z" fill="#E6E1E4"/>
<path d="M159.627 128.613L153.854 131.887L134.641 120.856L140.202 117.749L159.627 128.613Z" fill="#E6E1E4"/>
<path d="M119.501 129.289L153.474 110.357L153.39 110.859L119.949 129.494L119.501 129.289Z" fill="#C39055"/>
<path d="M140.202 117.749L134.641 120.856L129.179 117.719L134.588 114.612L140.202 117.749Z" fill="#F9F9F9"/>
<path d="M129.179 117.719L134.641 120.856L119.501 129.296L114.282 126.273L129.179 117.719Z" fill="#F1F1F1"/>
<path d="M153.474 110.357L140.202 117.749L134.588 114.611L147.7 107.083L153.474 110.357Z" fill="#F1F1F1"/>
<path d="M114.282 160.679V126.281L119.501 129.289V163.984L114.282 160.679Z" fill="#B3A4AD"/>
<path d="M133.783 171.778L166.639 152.801V118.516L133.783 137.486V171.778Z" fill="#D9AF6A"/>
<path d="M133.783 171.778L166.639 152.801V152.216L133.783 171.185V171.778Z" fill="#9D6F40"/>
<path d="M135.728 147.423L145.087 142.014V134.189L135.91 139.104L135.728 139.606V147.423Z" fill="#9C480C"/>
<path d="M154.082 160.041V125.764L148.445 129.015V163.292L154.082 160.041Z" fill="#9C480C"/>
<path d="M154.294 160.17V125.635L148.665 128.886V163.421L154.294 160.17Z" fill="#D6D6D6"/>
<path d="M110.81 137.608L103.213 133.201V121.966L110.81 126.372V137.608ZM103.882 132.791L110.111 136.392V126.782L103.882 123.181V132.791Z" fill="#A45823"/>
<path d="M105.546 132.13L108.136 133.627V130.55L105.546 129.053V132.13Z" fill="#A45823"/>
<path d="M104.277 128.347L109.405 131.31L106.837 125.946L104.277 128.347Z" fill="#A45823"/>
<path d="M136.1 139.256L145.459 133.839L145.269 133.695L135.91 139.104L136.1 139.256Z" fill="#FEFEFE"/>
<path d="M136.1 147.073V139.256L135.91 139.104V146.929L136.1 147.073Z" fill="#8B8B8B"/>
<path d="M136.1 147.073L145.459 141.664V133.839L136.1 139.256V147.073Z" fill="#D6D6D6"/>
<path d="M136.624 140.319L144.935 135.511V135.017L136.624 139.818V140.319Z" fill="#6F6F6F"/>
<path d="M140.058 140.517L144.935 137.706V137.212L140.058 140.023V140.517Z" fill="#8E8E8E"/>
<path d="M136.655 145.782L139.192 144.315V140.107L136.655 141.573V145.782Z" fill="#8E8E8E"/>
<path d="M140.058 141.596L144.935 138.785V138.291L140.058 141.102V141.596Z" fill="#8E8E8E"/>
<path d="M140.058 142.667L144.935 139.863V139.37L140.058 142.173V142.667Z" fill="#8E8E8E"/>
<path d="M140.058 143.746L144.935 140.942V140.441L140.058 143.252V143.746Z" fill="#8E8E8E"/>
<path d="M149.812 123.12L153.58 125.635L148.665 128.476V128.886L154.294 125.635L149.812 123.12Z" fill="#F1F1F1"/>
<g style="mix-blend-mode:multiply">
<path d="M286.58 125.979C286.58 125.979 272.94 129.529 269.89 132.979C266.84 136.429 257.37 141.309 255.66 142.739C253.95 144.169 227 130.899 227 130.899L201 146.329L233.86 166.079L256.63 166.599L258.96 152.879C258.96 152.879 269.18 143.879 275.16 142.819C281.14 141.759 288.64 133.199 288.64 133.199L286.58 125.979Z" fill="#A9A9AB"/>
</g>
<path d="M258.36 155.669L231.74 139.739C231.74 139.739 230.61 140.039 230.68 140.949C230.737 141.253 230.862 141.541 231.045 141.79C231.229 142.039 231.466 142.244 231.74 142.389L258.36 158.539V155.669Z" fill="#606060"/>
<path d="M211.7 134.189L212.14 121.819C212.161 121.269 212.342 120.738 212.659 120.288C212.977 119.839 213.419 119.492 213.93 119.289L223.61 115.469C223.731 115.423 223.861 115.407 223.989 115.423C224.118 115.439 224.24 115.488 224.345 115.563C224.45 115.638 224.535 115.739 224.592 115.855C224.648 115.971 224.675 116.1 224.67 116.229L224.2 129.119L221.73 130.259C221.73 130.259 223.48 131.939 224.67 131.879C225.86 131.819 226.32 131.569 226.32 128.569C226.32 126.569 226.45 120.159 226.54 116.059C226.547 115.664 226.458 115.274 226.279 114.921C226.101 114.569 225.839 114.266 225.517 114.038C225.194 113.81 224.821 113.665 224.429 113.615C224.038 113.564 223.64 113.61 223.27 113.749L213.69 117.359C212.74 117.719 211.917 118.351 211.324 119.176C210.732 120.002 210.397 120.984 210.36 121.999L209.89 135.709L208.45 136.369C209.028 136.841 209.636 137.276 210.27 137.669C210.45 137.669 211.56 138.069 211.63 137.009C211.7 135.949 211.7 134.189 211.7 134.189Z" fill="#F22400"/>
<path d="M224.2 129.199C224.868 128.734 225.634 128.43 226.439 128.31C227.244 128.191 228.066 128.259 228.84 128.509C230.027 129.074 231.161 129.743 232.23 130.509L222.36 147.799C222.36 147.799 220.58 146.689 219.3 146.039C218.02 145.389 217.11 143.729 217.11 141.419C217.248 138.968 217.961 136.584 219.193 134.461C220.425 132.338 222.14 130.535 224.2 129.199Z" fill="#040406"/>
<path d="M231.981 141.887C234.766 137.124 234.793 131.959 232.042 130.351C229.291 128.743 224.803 131.3 222.019 136.063C219.234 140.826 219.207 145.991 221.958 147.6C224.709 149.208 229.197 146.65 231.981 141.887Z" fill="#414143"/>
<path d="M233.85 135.319C233.724 137.593 233.063 139.804 231.921 141.775C230.78 143.745 229.19 145.418 227.28 146.659C223.65 148.749 220.71 147.079 220.71 142.909C220.837 140.637 221.498 138.427 222.64 136.458C223.781 134.489 225.371 132.818 227.28 131.579C230.91 129.479 233.85 131.159 233.85 135.319Z" fill="#2B2B2D"/>
<path d="M232.03 136.169C231.935 137.861 231.442 139.507 230.593 140.973C229.743 142.439 228.56 143.685 227.14 144.609C224.43 146.179 222.24 144.929 222.24 141.819C222.334 140.126 222.827 138.479 223.679 137.012C224.53 135.545 225.716 134.301 227.14 133.379C229.84 131.819 232.03 133.069 232.03 136.169Z" fill="#161618"/>
<path d="M231.36 136.439C231.275 137.96 230.833 139.439 230.068 140.756C229.303 142.073 228.238 143.191 226.96 144.019C224.54 145.419 222.57 144.299 222.57 141.519C222.655 139.999 223.097 138.521 223.859 137.205C224.622 135.888 225.684 134.769 226.96 133.939C229.43 132.539 231.36 133.659 231.36 136.439Z" fill="#D5D6D5"/>
<path d="M229.823 140.626C231.404 137.922 231.421 134.992 229.862 134.08C228.303 133.169 225.758 134.622 224.177 137.325C222.597 140.028 222.58 142.959 224.139 143.87C225.698 144.782 228.243 143.329 229.823 140.626Z" fill="#ADAFAE"/>
<path d="M229.81 137.359C229.755 138.33 229.471 139.274 228.983 140.115C228.495 140.955 227.816 141.669 227 142.199C225.45 143.089 224.2 142.379 224.2 140.599C224.253 139.629 224.534 138.685 225.02 137.843C225.507 137.002 226.185 136.288 227 135.759C228.55 134.899 229.81 135.579 229.81 137.359Z" fill="#7E8180"/>
<path d="M226.44 143.409C227.604 142.646 228.572 141.621 229.267 140.415C229.962 139.21 230.364 137.858 230.44 136.469C230.499 135.958 230.412 135.44 230.189 134.976C229.966 134.513 229.616 134.122 229.18 133.849C230.28 134.039 231.01 135.039 231.01 136.659C230.936 138.047 230.535 139.399 229.84 140.603C229.145 141.807 228.175 142.83 227.01 143.589C226.616 143.873 226.155 144.053 225.673 144.11C225.19 144.168 224.7 144.102 224.25 143.919C225.017 144.01 225.792 143.829 226.44 143.409Z" fill="#7E8180"/>
<path d="M230.1 137.499C230.046 138.469 229.765 139.413 229.278 140.254C228.792 141.095 228.114 141.809 227.3 142.339C225.75 143.229 224.49 142.519 224.49 140.739C224.544 139.768 224.827 138.824 225.315 137.983C225.804 137.142 226.484 136.428 227.3 135.899C228.85 134.999 230.1 135.719 230.1 137.499Z" fill="#D5D6D5"/>
<path d="M242.3 71.8988C242.501 72.4558 242.658 73.0275 242.77 73.6088C242.77 74.2188 241.59 74.9588 241.59 74.9588L241 75.2388C240.81 75.3124 240.603 75.3327 240.402 75.2975C240.201 75.2622 240.014 75.1728 239.86 75.0388C239.761 75.2587 239.618 75.4561 239.44 75.6188C239.296 75.7487 239.126 75.8445 238.94 75.8988C238.3 76.0588 237.74 75.3188 237.74 75.3188C237.718 75.3896 237.68 75.4541 237.627 75.5064C237.575 75.5587 237.511 75.5973 237.44 75.6188C237.047 75.6088 236.662 75.5079 236.315 75.3239C235.968 75.14 235.669 74.8781 235.44 74.5588C234.71 73.6888 234.32 73.5588 234.5 71.4888C234.68 69.4188 235.65 69.1588 236.5 67.6788C237.346 66.4754 238.379 65.4153 239.56 64.5388C239.56 64.5388 243.19 67.3888 243.24 67.7488C243.088 68.8618 242.827 69.9571 242.46 71.0188C242.363 71.1751 242.311 71.355 242.31 71.5388C242.31 71.6488 242.31 71.7588 242.31 71.8488L242.3 71.8988Z" fill="#F9C48E"/>
<path d="M240.18 73.019C240.18 73.229 240.18 73.3791 240.18 73.4191C240.173 73.2858 240.173 73.1523 240.18 73.019Z" fill="#A8020B"/>
<path d="M242.3 71.8988C242.079 71.8003 241.842 71.7427 241.6 71.7289C241.38 71.7289 241.41 72.3988 241.42 72.5688C241.378 72.2956 241.307 72.0275 241.21 71.7688C241.04 71.3688 240.52 71.5488 240.3 71.5988C240.08 71.6488 240.17 72.4589 240.18 72.9789C240.13 72.4389 240 71.5688 239.65 71.4388C239.15 71.2588 238.43 72.2888 238.43 72.2888L238.72 74.5589L239.44 75.6189C239.296 75.7488 239.126 75.8445 238.94 75.8988C238.3 76.0588 237.74 75.3188 237.74 75.3188C237.718 75.3897 237.68 75.4541 237.627 75.5064C237.575 75.5588 237.511 75.5974 237.44 75.6189C237.56 74.7489 236.96 74.6188 236.85 74.2988C236.587 73.8528 236.289 73.4281 235.96 73.0289V72.6189C235.923 72.3661 235.79 72.1371 235.59 71.9789C235.746 71.839 235.845 71.6469 235.87 71.4388C235.87 71.1388 235.59 70.7988 235.59 70.5788C235.59 70.3588 236.59 69.6689 236.59 69.6689L237.15 70.5088C237.15 70.5088 239.77 67.5088 240.52 68.0088C241.27 68.5088 240.69 69.5588 240.52 69.8988C240.399 70.245 240.318 70.6041 240.28 70.9689C240.28 70.9689 240.56 70.9689 240.91 70.9689C241.26 70.9689 241.45 71.1488 241.78 71.4288C242.11 71.7088 242.32 71.5289 242.32 71.5289C242.32 71.5289 242.3 71.7988 242.3 71.8988Z" fill="#E09C63"/>
<path d="M262.68 53.8189C261.862 54.9177 260.927 55.9237 259.89 56.8189C258.766 57.615 257.786 58.5955 256.99 59.7189C256.58 60.4589 256.62 60.7189 255.35 60.8589C254.08 60.9989 254.18 61.9789 253.41 62.7889C251.961 63.9573 250.388 64.9633 248.72 65.7889C247.66 66.2989 246.87 66.2989 246.63 66.6689C246.39 67.0389 245.93 67.6689 245.45 67.7189C244.97 67.7689 244.57 68.4189 244.13 68.7189C243.69 69.0189 243.13 69.2889 243.24 69.7189C243.249 70.1468 243.17 70.5721 243.01 70.9689C243.01 70.9689 242.9 70.7089 242.69 70.3189C241.89 68.8689 239.75 65.5289 237.08 66.3189C238.084 65.2996 239.009 64.2065 239.85 63.0489C239.78 62.7789 239.21 61.8589 240 61.3989C240.79 60.9389 242.34 60.4789 242.31 60.2589C242.448 59.7384 242.781 59.2909 243.24 59.0089C243.84 58.5489 244.57 58.2589 244.68 57.7989C244.96 57.1718 245.447 56.66 246.06 56.3489C246.81 55.8689 246.39 55.2489 246.96 55.0589C247.53 54.8689 248.15 53.4289 248.41 53.1689C248.67 52.9089 250.25 51.7589 250.23 51.4989C250.21 51.2389 250.28 49.9789 250.82 49.9389C251.36 49.8989 251.53 48.7789 251.73 48.6889C251.93 48.5989 253.28 48.3589 253.33 48.0689C253.227 47.3141 253.389 46.5468 253.79 45.8989C254.47 44.8989 254.6 43.1989 254.86 42.6489C255.12 42.0989 258.53 31.7889 259.67 30.3589C259.745 30.2373 259.846 30.1333 259.965 30.054C260.084 29.9746 260.219 29.9217 260.36 29.8989C261.44 29.7089 262.73 31.5589 263.11 32.1489C263.49 32.7389 262.68 53.8189 262.68 53.8189Z" fill="#DA3F3C"/>
<path d="M262.68 53.8188C261.862 54.9176 260.927 55.9236 259.89 56.8188C258.767 57.6149 257.786 58.5954 256.99 59.7188C256.58 60.4588 256.62 60.7188 255.35 60.8588C254.08 60.9988 254.18 61.9788 253.41 62.7888C251.961 63.9572 250.388 64.9633 248.72 65.7888C247.66 66.2988 246.87 66.2988 246.63 66.6688C246.39 67.0388 245.93 67.6688 245.45 67.7188C244.97 67.7688 244.57 68.4188 244.13 68.7188C243.69 69.0188 243.13 69.2888 243.24 69.7188C243.249 70.1468 243.17 70.572 243.01 70.9688C243.01 70.9688 242.9 70.7088 242.69 70.3188C242.78 70.0595 242.857 69.7958 242.92 69.5288C243.11 68.6888 243.28 68.3188 243.92 68.3488C244.56 68.3788 244.92 66.7488 245.11 66.7988C245.501 66.8637 245.899 66.8637 246.29 66.7988C246.64 66.7188 246.8 65.7988 246.86 65.7088C246.92 65.6188 246.86 64.8288 246.29 64.7088C245.72 64.5888 245.61 63.4888 245.61 63.4888C245.999 63.863 246.425 64.1979 246.88 64.4888C247.41 64.7788 247.76 65.6988 248.2 65.6088C248.771 65.3408 249.329 65.0438 249.87 64.7188C250.55 64.4188 252.02 63.9188 252.48 63.2388C252.94 62.5588 254.06 62.0288 253.89 61.6988C253.72 61.3688 253.18 61.1288 253.32 61.0188C253.806 60.868 254.305 60.7642 254.81 60.7088C255.69 60.5388 255.69 60.7088 256.35 60.2488C257.01 59.7888 257.16 59.0488 256.89 59.2488C256.62 59.4488 256.61 59.1188 256.04 59.3988C255.561 59.6005 255.056 59.7351 254.54 59.7988C255.056 59.6494 255.558 59.4554 256.04 59.2188C256.531 58.9551 257.056 58.76 257.6 58.6388C258.01 58.5388 258.82 57.7288 258.6 57.2088C258.38 56.6888 259.24 56.4188 259.6 55.8688C259.96 55.3188 258.33 55.1188 258.4 54.6088C258.47 54.0988 258.79 53.2588 258.4 52.6088C258.01 51.9588 258.33 50.1488 258.4 49.7288C258.127 48.8226 257.599 48.0138 256.88 47.3988C256.2 46.8088 258.13 46.1788 257.94 40.4888C257.75 34.7988 259.2 31.2988 260.31 30.0688C261.39 29.8788 262.68 31.7288 263.06 32.3188C263.44 32.9088 262.68 53.8188 262.68 53.8188Z" fill="#900000"/>
<path d="M260.83 52.9989C259.804 52.8301 258.834 52.4187 258 51.7988C257.611 51.3375 257.132 50.9609 256.592 50.6926C256.052 50.4242 255.462 50.2698 254.86 50.2388C253.5 50.1888 252.95 48.4388 252.93 49.0488C252.966 49.4746 253.124 49.8809 253.385 50.2195C253.645 50.5582 253.998 50.8148 254.4 50.9588C255.338 51.1457 256.201 51.6048 256.88 52.2789C257.679 53.0399 258.719 53.4964 259.82 53.5688C260.72 53.6388 260.83 52.9989 260.83 52.9989Z" fill="#BE1513"/>
<path d="M261.56 54.5588C261.283 54.8754 260.908 55.0905 260.495 55.1702C260.082 55.2499 259.655 55.1896 259.28 54.9988C258.187 54.3138 257.047 53.7057 255.87 53.1788L255.24 53.0288C255.675 53.4891 256.195 53.8624 256.77 54.1288C257.7 54.5388 257.87 54.6688 257.89 55.2288C257.91 55.7888 257.89 56.3788 258.73 56.2288C259.546 56.1833 260.331 55.9019 260.99 55.4188C261.207 55.1515 261.398 54.8635 261.56 54.5588Z" fill="#BE1513"/>
<path d="M257.08 57.1088C257.08 57.1088 254.08 55.2288 252.8 54.6588C251.616 54.2625 250.378 54.0534 249.13 54.0388C250.875 54.4981 252.575 55.1139 254.21 55.8788C255.117 56.3969 256.079 56.8095 257.08 57.1088Z" fill="#BE1513"/>
<path d="M255.24 54.5389C254.649 53.3257 253.718 52.311 252.56 51.6189C251.849 51.2412 251.055 51.0454 250.25 51.0489V51.4889C251.245 51.6333 252.2 51.978 253.058 52.5023C253.915 53.0265 254.658 53.7194 255.24 54.5389Z" fill="#BE1513"/>
<path d="M243.24 59.5388C243.667 59.4092 244.126 59.4391 244.533 59.6231C244.939 59.8071 245.265 60.1325 245.45 60.5388C245.932 61.2001 246.219 61.9829 246.28 62.7988C246.28 62.7988 245.28 60.5788 244.46 60.2988C243.915 60.1216 243.341 60.0536 242.77 60.0988L243.24 59.5388Z" fill="#BE1513"/>
<path d="M239.78 62.8389C239.78 62.8389 240.49 61.3689 243.05 63.0589C245.61 64.7489 245.4 66.1489 245.34 66.6389C245.281 66.8752 245.281 67.1225 245.34 67.3589C245.62 66.6317 245.62 65.8261 245.34 65.0989C244.85 64.2689 241.13 60.1389 239.78 62.8389Z" fill="#BE1513"/>
<path d="M253.36 60.0688C252.727 60.1346 252.115 60.3285 251.56 60.6389C250.768 61.2137 249.886 61.653 248.95 61.9388C248.02 62.0888 249.54 62.0888 250.24 62.2688C250.94 62.4488 251.52 62.8988 252.11 61.9388C252.7 60.9788 252.87 60.1788 253.36 60.0688Z" fill="#BE1513"/>
<path d="M246.41 55.9989C246.894 55.7909 247.423 55.7084 247.947 55.7591C248.472 55.8097 248.975 55.992 249.41 56.2889C251.25 57.2889 254.17 58.8889 254.17 58.8889C252.82 57.8385 251.404 56.8765 249.93 56.0089C249 55.6389 247.45 54.8389 246.41 55.9989Z" fill="#BE1513"/>
<path d="M257.9 35.8989V40.6389C257.9 42.5089 259.2 44.6989 258.4 44.6389C257.6 44.5789 256.55 43.1889 256.09 43.1889C255.63 43.1889 254.84 43.8089 255.24 42.8589C255.64 41.9089 256.92 41.0789 256.88 39.6289C257.007 38.3369 257.352 37.0758 257.9 35.8989Z" fill="#BE1513"/>
<path d="M268.14 128.569C267.743 130.362 266.828 132 265.51 133.279C263.24 135.589 261.03 137.629 260.7 139.209C260.551 139.815 260.441 140.429 260.37 141.049C260.209 141.424 260.147 141.833 260.19 142.239C260.19 143.059 261.05 144.789 263.6 144.759C264.586 144.734 265.548 144.453 266.393 143.945C267.237 143.437 267.936 142.718 268.42 141.859C269.13 140.659 270.55 137.859 271.6 137.169C273.345 136.152 275.016 135.013 276.6 133.759C276.93 133.269 276.86 133.079 276.86 133.079L276.45 128.309L268.14 128.569Z" fill="#3B3B30"/>
<path d="M271.59 131.899C271.59 131.899 270.34 134.059 269.21 136.239C268.08 138.419 266.84 141.669 264.28 141.969C261.72 142.269 260.28 141.169 260.47 140.059C260.607 139.191 260.914 138.359 261.374 137.611C261.834 136.863 262.438 136.213 263.15 135.699C264.66 134.547 265.945 133.127 266.94 131.509L267.45 130.579C267.45 130.579 269.36 132.479 271.59 131.899Z" fill="#54544A"/>
<path d="M276.75 132.259C276.696 132.38 276.632 132.497 276.56 132.609C274.978 133.862 273.307 134.999 271.56 136.009C270.56 136.659 269.09 139.189 268.38 140.399C267.897 141.258 267.198 141.976 266.353 142.483C265.508 142.99 264.545 143.268 263.56 143.289C262.864 143.374 262.159 143.224 261.559 142.861C260.959 142.498 260.498 141.945 260.25 141.289C260.156 141.613 260.122 141.952 260.15 142.289C260.15 143.109 261.01 144.839 263.56 144.809C264.545 144.784 265.508 144.503 266.352 143.995C267.197 143.487 267.896 142.768 268.38 141.909C269.09 140.709 270.51 137.909 271.56 137.219C273.305 136.202 274.976 135.063 276.56 133.809C276.89 133.319 276.82 133.129 276.82 133.129L276.75 132.259Z" fill="#BDBDB9"/>
<path d="M279.36 85.1189C279.36 88.8289 279.15 93.2089 278.97 96.3789C278.86 98.3789 278.79 99.8889 278.81 100.459C278.9 102.559 277.97 108.269 278.24 112.389C278.307 116.23 277.832 120.061 276.83 123.769C276.52 124.199 277.44 128.769 277.44 128.769C277.44 128.769 277.44 129.609 275.93 130.449C275.301 130.806 274.629 131.081 273.93 131.269C270.41 132.269 266.59 129.169 266.59 129.169C266.067 127.282 265.831 125.326 265.89 123.369C265.89 119.859 265.23 109.809 265.8 107.479C266.37 105.149 263.8 98.7389 263.8 94.2589C263.8 89.7789 262.85 83.1589 262.68 80.8289C262.655 79.5224 262.8 78.2182 263.11 76.9489C263.43 75.5089 263.8 74.3289 263.8 74.3289C263.8 74.3289 270.99 74.4189 275.44 76.0789C277.14 76.7089 278.44 77.5789 278.79 78.7389C279.064 79.8495 279.222 80.9856 279.26 82.1289C279.29 83.0489 279.36 84.0589 279.36 85.1189Z" fill="#055F8C"/>
<path d="M278.2 112.399C278.267 116.24 277.792 120.071 276.79 123.779C276.48 124.209 277.4 128.779 277.4 128.779C277.4 128.779 277.4 129.619 275.89 130.459C275.83 129.969 275.76 129.459 275.7 128.869C275.11 123.739 274.9 123.509 275.88 119.259C276.86 115.009 276.41 112.779 276.68 108.199C276.95 103.619 274.58 101.269 273.01 97.3088C271.63 93.7988 271.01 83.9088 271.01 83.9088C274.71 81.4188 277.37 80.9888 279.27 82.1388C279.63 88.2788 278.73 98.7488 278.8 100.469C278.86 102.569 277.93 108.279 278.2 112.399Z" fill="#00396A"/>
<path d="M283.86 121.709C283.86 121.709 282.86 125.709 282.5 126.779C282.14 127.849 280.42 130.689 280.24 131.829C280.068 132.552 279.958 133.288 279.91 134.029C279.91 134.639 279.79 136.229 282.74 136.529C285.69 136.829 288.03 134.119 288.63 133.149C289.339 131.514 289.918 129.825 290.36 128.099C290.698 126.394 290.782 124.648 290.61 122.919C290.36 120.509 283.86 121.709 283.86 121.709Z" fill="#3B3B30"/>
<path d="M289.36 125.899C289.11 127.195 288.707 128.457 288.16 129.659C287.632 131.065 286.622 132.238 285.31 132.969C283.02 134.369 280.69 133.369 280.51 132.249C280.33 131.129 280.92 130.809 282.04 128.299C282.684 126.964 283.132 125.542 283.37 124.079C283.857 124.619 284.416 125.09 285.03 125.479C286.82 126.089 288.05 126.559 289.36 125.899Z" fill="#54544A"/>
<path d="M290.36 126.979C289.903 128.706 289.311 130.395 288.59 132.029C287.99 133.029 285.64 135.709 282.7 135.409C280.45 135.179 280 134.199 279.9 133.469C279.885 133.655 279.885 133.843 279.9 134.029C279.9 134.639 279.78 136.229 282.73 136.529C285.68 136.829 288.02 134.119 288.62 133.149C289.333 131.514 289.914 129.826 290.36 128.099C290.622 126.783 290.73 125.44 290.68 124.099C290.664 125.067 290.557 126.031 290.36 126.979Z" fill="#BDBDB9"/>
<path d="M292.9 104.719C292.77 112.399 293.08 119.829 292.9 121.229C292.818 122.007 292.643 122.772 292.38 123.509C291.969 124.027 291.459 124.459 290.88 124.779C290.03 125.269 289.06 125.511 288.08 125.479C287.237 125.463 286.406 125.278 285.636 124.935C284.867 124.591 284.174 124.096 283.6 123.479C282.467 121.121 281.695 118.606 281.31 116.019C280.96 112.509 281.97 110.269 281.31 105.789C280.839 102.573 280.042 99.4132 278.93 96.359C278.465 94.9023 277.698 93.5598 276.68 92.419C273.799 89.943 271.986 86.4499 271.62 82.669C271.56 81.6392 271.617 80.606 271.79 79.589C272.05 77.989 273.45 76.869 275.42 76.069C281.51 73.589 293 74.319 293 74.319C293.781 79.2043 294.029 84.1601 293.74 89.099C293.17 96.329 293.04 97.039 292.9 104.719Z" fill="#368CC2"/>
<path d="M292.9 104.719C292.77 112.399 293.08 119.829 292.9 121.229C292.818 122.007 292.643 122.772 292.38 123.509C291.969 124.027 291.459 124.459 290.88 124.779C291.09 122.329 291.3 119.779 291.45 117.939C291.85 113.309 290.39 102.189 290.73 96.569C291.07 90.949 292.03 82.679 292.03 82.679C292.03 82.679 291.2 85.679 285.27 85.679C283.273 85.6841 281.28 85.4932 279.32 85.109C276.67 84.5916 274.087 83.7764 271.62 82.679C270.18 82.069 268.68 81.339 267.1 80.499C264.64 79.199 263.52 77.979 263.1 76.949C263.42 75.509 263.79 74.329 263.79 74.329C263.79 74.329 270.98 74.419 275.43 76.079C281.52 73.599 293.01 74.329 293.01 74.329C293.791 79.2143 294.039 84.1701 293.75 89.109C293.17 96.329 293.04 97.039 292.9 104.719Z" fill="#2A6D9C"/>
<path d="M294.07 78.769C293.86 79.129 291.46 83.209 289.13 84.089C287.31 84.779 284.03 85.329 278.37 83.949C276.595 83.5068 274.845 82.966 273.13 82.329C271.66 81.7978 270.227 81.1698 268.84 80.449C263.66 77.729 262.7 75.179 262.7 75.179C262.7 75.179 262.7 73.459 263.21 73.019C263.72 72.579 263.45 70.569 263.21 69.119C262.97 67.669 263.67 65.299 263.78 63.359C263.89 61.419 263.05 61.359 262.78 60.769C262.235 59.0346 262.058 57.2057 262.26 55.399C262.61 53.839 261.34 52.479 261.6 51.559C261.86 50.639 260.72 47.389 259.4 41.279C258.743 38.1692 258.916 34.9413 259.9 31.919C260.131 31.2728 260.286 30.6015 260.36 29.919C260.3 28.579 263.57 26.119 265.36 24.999C266.36 24.379 269.86 23.749 273.81 23.679C276.998 23.5385 280.184 23.986 283.21 24.999C287.167 26.719 290.832 29.0471 294.07 31.899C294.07 31.899 293.93 66.949 293.75 67.469C293.57 67.989 294.18 70.229 293.75 71.419C293.32 72.609 294.19 74.929 294.37 75.589C294.467 76.6585 294.365 77.7365 294.07 78.769Z" fill="#BE1513"/>
<path d="M290.14 69.6188C290.07 72.5288 287.9 74.2488 284.35 76.8888C282.35 78.3988 280 81.5288 278.35 83.9488C276.574 83.5066 274.825 82.9658 273.11 82.3288C271.64 81.7976 270.207 81.1696 268.82 80.4488C269.354 79.1634 270.075 77.9639 270.96 76.8888C272.28 75.4888 272.47 72.8288 273.11 71.4788C273.75 70.1288 275.43 68.3488 276.16 66.0588C276.89 63.7688 278.6 64.2688 279.3 61.9388C279.922 59.7869 281.101 57.8376 282.72 56.2888C284.21 54.8988 285.07 51.2888 285.07 51.2888C285.61 49.5088 290.21 66.6988 290.14 69.6188Z" fill="#900000"/>
<path d="M274.99 86.439C274.99 86.439 274.77 86.839 274.44 87.439C273.566 89.0214 272.583 90.5417 271.5 91.989C270.69 92.779 269.36 92.339 267.38 92.209C265.4 92.079 264.99 92.139 264.66 91.499C264.538 90.8205 264.633 90.1209 264.93 89.499L265.02 89.229C265.042 89.1606 265.069 89.0938 265.1 89.029V88.979C264.97 89.0057 264.845 89.053 264.73 89.119C264.51 89.239 264.02 88.929 263.84 88.229C263.66 87.529 263.84 87.389 264.13 87.109C264.869 86.4035 265.643 85.736 266.45 85.109C267.386 84.5521 268.29 83.9445 269.16 83.289C270.257 82.7017 271.427 82.2612 272.64 81.979L274.99 86.439Z" fill="#F9C48E"/>
<path d="M297.36 45.4289C297.36 49.5489 295.98 59.4889 295.42 60.3489C294.86 61.2089 294.72 64.9889 293.97 66.9289C293.9 67.1089 293.84 67.2789 293.79 67.4489L293.73 67.6289C293.23 69.3389 293.2 71.0189 292.43 71.5689C291.66 72.1189 287.82 76.0389 285.81 78.2189C284.699 79.492 283.452 80.639 282.09 81.6389C281.53 82.0389 281.91 82.4889 280.88 83.1989C280.532 83.3973 280.137 83.4966 279.737 83.4861C279.336 83.4755 278.947 83.3554 278.61 83.1389C278.61 83.1389 277.61 84.0889 277.36 84.4189C277.11 84.7489 274.86 87.3589 274.86 87.3589L273.64 86.0289C272.42 84.7189 270.44 82.4489 270.44 82.4489C271.249 81.9152 271.999 81.2985 272.68 80.6089C273.4 79.7489 272.84 80.3389 273.93 78.0989C275.02 75.8589 276.01 77.1789 276.43 77.0189C276.85 76.8589 277.83 73.3989 278.57 72.2489L278.7 72.0689C279.46 71.1489 281.4 69.4389 281.9 68.0689C282.178 67.3685 282.6 66.7346 283.14 66.2089C283.275 66.0899 283.396 65.9557 283.5 65.8089C283.5 65.8089 283.7 64.7089 283.93 63.5289C283.93 63.3389 284.01 63.1589 284.05 62.9689C284.32 61.5889 284.59 60.2489 284.59 60.2489C284.551 59.1219 284.571 57.9937 284.65 56.8689C284.65 56.2689 284.75 55.5889 284.81 54.7988C284.98 52.7988 285.28 50.0489 285.81 46.5389C285.89 45.9789 285.97 45.3989 286.06 44.7889C287.77 33.0089 292.51 31.6888 292.51 31.6888C294.22 31.3288 295.37 32.3889 296.1 34.0589C296.83 35.7289 297.36 41.3189 297.36 45.4289Z" fill="#DA3F3C"/>
<path d="M264.92 89.0589C265.019 88.8129 265.174 88.594 265.374 88.4201C265.574 88.2462 265.813 88.1224 266.07 88.0589C266.86 87.9389 267.8 87.8789 267.8 87.8789C267.8 87.8789 268.31 88.2889 268.19 88.7289C268.07 89.1689 267.82 89.0589 267.88 89.4589C267.922 89.6967 267.946 89.9374 267.95 90.1789C267.95 90.1789 267.73 89.4689 267.22 89.6889C267.084 89.7293 266.964 89.8087 266.873 89.9171C266.782 90.0256 266.726 90.1584 266.71 90.2989C266.651 90.0319 266.698 89.7524 266.84 89.5189C267.09 89.0989 267.16 88.4489 266.84 88.4389C266.52 88.4289 265.53 88.2689 265.12 88.9589L264.92 89.0589Z" fill="#E09C63"/>
<path d="M270.16 83.3589C270.16 83.3589 267.16 84.8789 266.74 85.1589C266.626 85.2324 266.527 85.3277 266.45 85.4394C266.372 85.5511 266.317 85.6769 266.289 85.8097C266.26 85.9425 266.257 86.0796 266.282 86.2133C266.306 86.347 266.356 86.4746 266.43 86.5889C266.503 86.7031 266.599 86.8018 266.71 86.8792C266.822 86.9566 266.948 87.0113 267.081 87.04C267.213 87.0688 267.351 87.0712 267.484 87.047C267.618 87.0227 267.746 86.9724 267.86 86.8989C268.28 86.5189 269.09 86.1289 269.13 86.5389C269.17 86.9489 268.63 87.7189 268.41 88.0989C268.19 88.4789 268.78 89.3489 268.76 89.7289C268.74 90.1089 268.36 90.5789 268.56 90.9089C268.76 91.2389 269.75 92.0789 270.35 90.9089C270.653 90.098 271.064 89.3312 271.57 88.6289C272.16 87.9464 272.872 87.38 273.67 86.9589C273.67 86.9589 271.22 83.7589 270.16 83.3589Z" fill="#FFD0A1"/>
<path d="M260.83 33.7689C260.86 33.7245 260.887 33.6777 260.91 33.6289C260.26 35.3189 259.61 37.7489 259.55 37.5489C259.794 36.2342 260.225 34.9613 260.83 33.7689Z" fill="#A8020B"/>
<path d="M260.91 33.629L261.05 33.269C261.016 33.3938 260.969 33.5145 260.91 33.629Z" fill="#A8020B"/>
<path d="M272.36 31.659C271.79 32.179 269.11 32.539 268.76 31.659C268.41 30.779 265.33 32.279 264.23 31.659C264.024 31.5011 263.786 31.3911 263.533 31.3371C263.279 31.2831 263.017 31.2864 262.765 31.3468C262.513 31.4072 262.277 31.5231 262.076 31.6861C261.874 31.8491 261.712 32.0551 261.6 32.289C261.392 32.6001 261.224 32.9361 261.1 33.289C261.38 32.389 261.1 31.549 260.87 31.689C260.545 31.8042 260.21 31.8912 259.87 31.949C260.101 31.3027 260.256 30.6314 260.33 29.949C260.27 28.609 263.54 26.149 265.33 25.029C266.33 24.409 269.83 23.779 273.78 23.709C273.877 26.4298 273.393 29.1401 272.36 31.659Z" fill="#900000"/>
<path d="M290 31.0688C288.145 32.4218 286.707 34.2686 285.85 36.3988C284.753 40.1038 284.111 43.9287 283.94 47.7888C283.87 50.9388 284.61 57.9189 284.61 57.9189C284.61 57.9189 284.99 47.8088 285.42 45.7988C285.85 43.7888 285.97 40.9688 287.42 38.0688C288.36 36.1888 291.3 31.4989 291.3 31.4989C289.876 32.7297 288.663 34.1856 287.71 35.8089C286.99 36.9989 286.2 38.0788 286.2 38.0788C287.034 35.5325 288.321 33.1578 290 31.0688Z" fill="#AB0000"/>
<path d="M292.36 69.1189V69.7289C291.999 69.604 291.673 69.3949 291.41 69.1189C290.98 68.6689 291.81 67.9989 290.12 66.7689C288.718 65.655 287.05 64.9275 285.28 64.6589C283.9 64.5589 284.19 65.3489 284.19 65.3489L283.04 66.2889C283.25 66.0589 283.4 65.9289 283.4 65.8789C283.4 65.8289 283.61 64.7689 283.84 63.5989C284.083 63.6895 284.312 63.8141 284.52 63.9689C284.79 64.2689 285.44 63.7989 288.38 64.9689C290.204 65.7704 291.635 67.2629 292.36 69.1189Z" fill="#BE1513"/>
<path d="M290.14 63.5389C288.827 63.5085 287.521 63.3477 286.24 63.0589C285.67 62.7589 285.09 62.1389 285.44 61.6089C285.79 61.0789 286.21 60.0289 284.51 60.2889C284.471 59.162 284.491 58.0338 284.57 56.9089C284.676 57.1794 284.865 57.4097 285.108 57.5675C285.352 57.7254 285.64 57.8028 285.93 57.7889C287.55 57.6489 288.57 58.3089 288.29 58.8489C288.01 59.3889 287.54 60.9489 287.54 60.9489C287.54 60.9489 289 61.9489 289.44 62.3089C289.88 62.6689 291.63 63.7189 290.14 63.5389Z" fill="#BE1513"/>
<path d="M278.52 83.199C278.273 82.0182 277.627 80.9586 276.69 80.199C275.26 79.249 274.69 78.839 274.53 79.009C274.37 79.179 274.53 80.349 274.2 80.509C273.87 80.669 273.96 79.859 273.46 80.039C272.96 80.219 272.93 78.639 273.13 78.109C273.33 77.579 274.49 78.029 274.77 78.289C275.05 78.549 277.34 79.809 277.69 80.549C278.073 81.1896 278.407 81.8582 278.69 82.549C278.704 82.7783 278.645 83.0062 278.52 83.199Z" fill="#BE1513"/>
<path d="M293.68 67.6689C293.18 69.3789 293.16 71.0589 292.38 71.6089C291.6 72.1589 287.77 76.0889 285.76 78.2589C284.645 79.5309 283.398 80.6807 282.04 81.6889C281.48 82.0789 281.87 82.5289 280.82 83.2389C280.89 82.8189 280.82 82.3589 280.59 82.3289C280.11 82.3289 280.59 81.4389 281.32 81.5589C282.05 81.6789 283.39 80.6189 283.83 80.0689C284.27 79.5189 284.6 78.6689 283.83 78.9989C283.003 79.5024 282.107 79.8831 281.17 80.1289C280.46 80.1289 281.17 80.0689 281.87 79.2889C282.57 78.5089 282.74 77.9089 283.25 77.8289C283.76 77.7489 284.39 78.0789 284.94 77.8289C285.951 77.3389 286.781 76.5406 287.31 75.5489C287.97 74.2489 288.23 73.2789 289.16 72.5489C290.09 71.8189 290.34 71.3089 289.87 71.1789C289.4 71.0489 289.13 70.4289 290.45 70.6889C291.77 70.9489 291.11 71.6889 291.96 71.1289C292.81 70.5689 293.45 68.3789 293.68 67.6689Z" fill="#BE1513"/>
<path d="M284.56 65.539C284.355 65.7982 284.165 66.0686 283.99 66.349C283.87 66.599 285.99 67.699 286.15 67.799C286.02 67.729 284.88 67.259 284.37 67.049C284.213 66.9765 284.043 66.9389 283.87 66.9389C283.697 66.9389 283.527 66.9765 283.37 67.049C283.04 67.119 283.3 67.9991 283.3 68.1691C284.044 69.01 284.835 69.808 285.67 70.5591C285.188 70.2149 284.733 69.8337 284.31 69.4191C283.986 69.1896 283.614 69.0371 283.223 68.9729C282.831 68.9088 282.43 68.9348 282.05 69.049C281.35 69.139 281.48 69.859 281.59 70.149C281.7 70.439 281.28 71.269 281.06 71.439C280.77 71.8294 280.597 72.2941 280.56 72.7791C280.45 73.4191 282.11 74.5891 282.05 74.9491C281.99 75.3091 280.84 74.519 280.17 74.239C279.5 73.959 279.59 73.2391 279.48 72.4991C279.41 72.0191 278.86 72.1491 278.48 72.3091C278.515 72.2435 278.559 72.183 278.61 72.129C279.36 71.209 281.31 69.499 281.8 68.129C282.191 67.2787 282.737 66.5088 283.41 65.8591C283.41 65.7891 283.69 64.399 283.96 63.019C284.14 63.319 284.56 63.4891 285.1 63.8091C286.1 64.3591 285.21 65.099 285.21 65.099L285.89 65.149C286.665 65.4211 287.374 65.8539 287.97 66.4191L284.56 65.539Z" fill="#BE1513"/>
<path d="M287.18 47.209C286.561 48.6509 286.023 50.1266 285.57 51.629C285.739 52.3636 285.96 53.0854 286.23 53.789C287.223 54.5287 288.292 55.159 289.42 55.669C291.66 56.759 289.85 57.089 289.42 57.009C288.268 56.83 287.175 56.3811 286.23 55.699C285.787 55.323 285.278 55.0315 284.73 54.839C284.9 52.839 285.2 50.089 285.73 46.579C286.35 46.029 286.9 45.789 287.16 45.529C287.42 45.269 288.68 44.049 289.47 43.189C290.26 42.329 291.34 41.379 291.24 42.009C290.403 43.4295 289.271 44.6537 287.92 45.599C287.05 45.959 287.51 46.289 287.18 47.209Z" fill="#BE1513"/>
<path d="M272.73 89.7089C273.24 89.0489 274.36 87.5089 274.43 87.4189C273.556 89.0014 272.573 90.5217 271.49 91.9689C270.68 92.7589 269.35 92.3189 267.37 92.1889C265.39 92.0589 264.98 92.1189 264.65 91.4789C264.528 90.8005 264.623 90.1009 264.92 89.4789C264.74 90.0089 264.57 90.8089 264.92 91.1989C265.291 91.522 265.73 91.7572 266.204 91.887C266.679 92.0169 267.176 92.038 267.66 91.9489C268.91 91.8789 269.13 92.4589 270.01 91.9489C271.029 91.3501 271.947 90.5941 272.73 89.7089Z" fill="#E09C63"/>
<path d="M274.44 87.4089L274.43 87.4189V87.4089H274.44Z" fill="#A8020B"/>
<path d="M281.59 25.2889C280.955 26.6874 280.043 27.9427 278.91 28.9789C277.724 30.0937 276.375 31.021 274.91 31.7289C270.84 33.7289 269.5 30.4089 269.11 28.8089C269.047 28.5453 269 28.2782 268.97 28.0089C268.981 27.7007 269.011 27.3935 269.06 27.0889C269.588 23.6558 270.963 20.4082 273.06 17.6389C277.06 12.2089 280.84 13.3289 280.84 13.3289C280.621 13.7864 280.44 14.2614 280.3 14.7489C279.65 16.6689 278.72 19.9989 279.23 21.1989C279.913 22.6195 280.702 23.9867 281.59 25.2889Z" fill="#E2A46F"/>
<path d="M281.59 25.289C280.955 26.6875 280.043 27.9428 278.91 28.979C278.1 27.499 276.91 25.679 276.91 25.679C276.91 25.679 273.77 28.749 271.43 29.099C270.652 29.2548 269.845 29.1531 269.13 28.809C269.067 28.5454 269.02 28.2783 268.99 28.009C269.001 27.7008 269.031 27.3935 269.08 27.089C270.88 24.709 275.6 18.679 279.6 15.329C279.86 15.109 280.11 14.919 280.34 14.749C279.69 16.669 278.76 19.999 279.27 21.199C279.94 22.6184 280.715 23.9855 281.59 25.289Z" fill="#C4734E"/>
<path d="M270.54 25.2891C270.54 25.2891 268.34 29.1091 270.21 30.9891C271.78 32.5691 272.32 32.2591 272.32 32.2591L271.14 34.8991C270.32 34.6172 269.601 34.1032 269.068 33.4197C268.535 32.7361 268.213 31.9125 268.14 31.0491C268.071 29.196 268.492 27.3576 269.36 25.7191L270.54 25.2891Z" fill="#FFD15B"/>
<path d="M281.94 24.5989C281.94 24.5989 280.2 28.3689 277.65 30.0189C276.14 31.0816 274.444 31.8516 272.65 32.2889H272.32V35.1889C272.32 35.1889 275.52 35.5189 279.5 32.0889C283.48 28.6589 284.25 25.8689 284.25 25.8689L281.94 24.5989Z" fill="#FFD15B"/>
<path d="M279.17 19.5591C278.92 21.0791 275.69 24.4791 273.32 26.6691L273.23 26.729C271.458 28.178 269.239 28.9663 266.95 28.959C266.529 28.8937 266.125 28.7429 265.764 28.5159C265.403 28.289 265.092 27.9906 264.85 27.6391C264.727 26.9122 264.663 26.1763 264.66 25.439C264.508 25.3536 264.378 25.2337 264.28 25.0891C264.22 24.9312 264.22 24.7569 264.28 24.599L264.09 24.289L263.57 22.149C263.57 22.149 262.71 22.0191 262.57 21.4491C262.565 20.9684 262.689 20.4952 262.93 20.079C262.794 19.2613 262.704 18.4367 262.66 17.6091C262.66 17.1591 262.58 16.6091 262.54 16.0291C262.38 14.0291 262.21 11.519 262.21 11.519C262.21 11.519 276.59 12.009 278.59 12.189C280.59 12.369 279.43 18.0291 279.17 19.5591Z" fill="#F9C48E"/>
<path d="M279.17 19.5591C278.92 21.0791 275.69 24.4791 273.32 26.6691L273.23 26.729C273.773 25.6734 274.257 24.5884 274.68 23.479C275.21 22.0791 275.5 17.999 274.9 17.739C273.89 16.9012 272.925 16.0099 272.01 15.069C271.55 14.719 269.1 15.7591 266.59 16.6091C265.932 16.8763 265.214 16.9634 264.511 16.8614C263.808 16.7595 263.145 16.4722 262.59 16.0291C262.43 14.0291 262.26 11.519 262.26 11.519C262.26 11.519 276.64 12.009 278.64 12.189C280.64 12.369 279.43 18.0291 279.17 19.5591Z" fill="#EAA671"/>
<path d="M281.43 14.4089C281.43 14.4089 280.19 16.8889 279.78 17.6789C279.495 18.2763 279.29 18.9083 279.17 19.5589C279.17 19.5589 279.92 13.9189 277.66 14.4089C275.4 14.8989 275.85 15.0389 275.81 16.0289C275.77 17.0189 275.81 17.5689 275.81 17.5689L274.62 16.9689C274.62 16.9689 273.5 14.3889 271.62 14.0589C269.74 13.7289 263.34 11.8189 266.5 10.0589C269.66 8.29891 281.77 10.1889 281.43 14.4089Z" fill="#89310B"/>
<path d="M281.25 15.1988C281.25 15.1988 278.82 14.7788 273.01 13.1988C269.4 12.1988 265.72 10.9888 263.46 10.1988C262.1 9.71882 261.27 9.39881 261.27 9.39881C261.27 9.39881 261.79 6.56881 265.08 2.51881C268.37 -1.53119 274.7 0.518808 274.7 0.518808C276.988 1.19136 279.011 2.55754 280.49 4.42881C283.22 7.71881 281.25 15.1988 281.25 15.1988Z" fill="#EDA40F"/>
<path d="M277.14 2.03906C277.43 3.84584 277.311 5.69474 276.79 7.44907C276.128 9.38582 275.347 11.2795 274.45 13.1191C274.45 13.1191 280.83 15.1191 281.09 14.8091C281.35 14.4991 283.87 5.43906 277.14 2.03906Z" fill="#DB9405"/>
<path d="M274.7 0.54895C274.7 0.54895 268.38 0.348962 266.38 3.74896C265.239 5.82282 264.263 7.98274 263.46 10.209C262.1 9.72895 261.27 9.40895 261.27 9.40895C261.27 9.40895 261.79 6.57896 265.08 2.52896C268.37 -1.52104 274.7 0.54895 274.7 0.54895Z" fill="#DB9405"/>
<path d="M276.36 15.129C276.521 14.8025 276.753 14.5157 277.038 14.2892C277.323 14.0628 277.655 13.9022 278.01 13.819C279.13 13.649 279.39 14.909 279.23 16.009C279.009 17.1335 278.674 18.2325 278.23 19.289C278.04 19.739 277.71 20.599 277.23 20.379C276.75 20.159 276.32 19.989 276.23 18.799C276.169 17.5742 276.213 16.3464 276.36 15.129Z" fill="#F9C794"/>
<path d="M254.12 12.2089C254.12 12.2089 254.12 13.5289 255.39 13.2089C256.66 12.8889 258.84 12.2089 258.84 12.2089C258.84 12.2089 257.71 10.8189 256.93 11.1389C256.15 11.4589 254.86 11.2989 254.12 12.2089Z" fill="#DB9405"/>
<path d="M261.26 9.40895L254.81 11.5489L254.26 11.859L254.12 12.2089C254.12 12.2089 255.34 10.6889 257.69 12.5389C260.04 14.3889 262.38 16.3189 265.51 15.9889C268.64 15.6589 273.02 13.229 273.02 13.229C273.02 13.229 264.36 8.89895 261.26 9.40895Z" fill="#EDA40F"/>
<path d="M264.52 9.98892C264.52 9.98892 262.52 10.5589 261.86 10.8089C260.99 11.1289 258.44 12.3189 258.44 12.3189C258.44 12.3189 261.44 15.3189 264.63 15.6689C267.82 16.0189 272.56 13.0489 272.56 13.0489C272.56 13.0489 265.76 9.80892 264.52 9.98892Z" fill="#DB9405"/>
<path d="M232.36 127.829L234.85 75.2189C234.866 74.9266 234.97 74.6459 235.148 74.4139C235.327 74.1819 235.571 74.0093 235.85 73.9189L239.26 72.7889C239.486 72.5823 239.632 72.3017 239.67 71.9975C239.709 71.6933 239.638 71.3854 239.47 71.1289C239.378 70.9686 239.243 70.8371 239.08 70.7488C238.918 70.6606 238.734 70.619 238.55 70.6289L234.89 71.9689C234.231 72.2053 233.657 72.6316 233.241 73.1941C232.824 73.7565 232.584 74.4298 232.55 75.1289L230.03 127.009L232.36 127.829Z" fill="#D11F00"/>
<path d="M260.87 103.829L234.25 87.8989C234.25 87.8989 233.12 88.1989 233.18 89.1089C233.24 89.4133 233.367 89.7005 233.552 89.9496C233.737 90.1986 233.976 90.4034 234.25 90.5489L260.87 106.689V103.829Z" fill="#F22400"/>
<path d="M260.55 113.719L233.92 97.7888C233.92 97.7888 232.8 98.0888 232.86 98.9988C232.918 99.3026 233.044 99.5894 233.227 99.8385C233.41 100.088 233.647 100.293 233.92 100.439L260.55 116.589V113.719Z" fill="#F22400"/>
<path d="M260.67 144.759L263.16 92.1389C263.176 91.8466 263.28 91.5659 263.458 91.3339C263.637 91.1018 263.881 90.9293 264.16 90.8389L267.57 89.7089C267.796 89.5039 267.941 89.2251 267.979 88.9226C268.018 88.6201 267.947 88.3138 267.78 88.0589C267.694 87.8928 267.561 87.7563 267.397 87.6671C267.233 87.5779 267.046 87.5402 266.86 87.5589L263.19 88.8989C262.531 89.1382 261.958 89.5667 261.541 90.1306C261.125 90.6945 260.885 91.3688 260.85 92.0689L258.36 143.899L260.67 144.759Z" fill="#D11F00"/>
<path d="M265.96 87.6188L267.69 87.2788C267.98 87.5622 268.163 87.9364 268.21 88.3388C268.267 88.8059 268.183 89.2794 267.97 89.6988L266.76 90.0488C266.76 90.0488 266.84 87.6388 265.96 87.6188Z" fill="#2E2E2E"/>
<path d="M235.96 71.5789L236.71 71.4189C236.888 71.9106 237.012 72.4203 237.08 72.9389C237.029 73.1068 236.959 73.2679 236.87 73.4189L236.28 73.2989L235.96 71.5789Z" fill="#D11F00"/>
<path d="M256.15 147.669C256.816 147.201 257.582 146.894 258.387 146.773C259.193 146.651 260.015 146.718 260.79 146.969C261.977 147.534 263.111 148.203 264.18 148.969L254.36 166.259C254.36 166.259 252.58 165.159 251.31 164.499C250.04 163.839 249.12 162.199 249.12 159.889C249.251 157.443 249.956 155.063 251.177 152.94C252.398 150.817 254.102 149.011 256.15 147.669Z" fill="#040406"/>
<path d="M266.03 153.349C265.893 155.799 265.181 158.182 263.951 160.305C262.721 162.429 261.007 164.232 258.95 165.569C255.04 167.829 251.87 166.019 251.87 161.569C252.007 159.12 252.72 156.739 253.95 154.617C255.18 152.496 256.893 150.694 258.95 149.359C262.86 147.059 266.03 148.899 266.03 153.349Z" fill="#414143"/>
<path d="M265.8 153.789C265.673 156.061 265.012 158.271 263.87 160.24C262.729 162.208 261.139 163.88 259.23 165.119C255.6 167.219 252.65 165.539 252.65 161.379C252.779 159.105 253.442 156.893 254.585 154.923C255.728 152.952 257.319 151.279 259.23 150.039C262.86 147.949 265.8 149.619 265.8 153.789Z" fill="#2B2B2D"/>
<path d="M262.529 159.47C264.452 156.181 264.469 152.612 262.566 151.5C260.664 150.388 257.563 152.153 255.639 155.443C253.716 158.733 253.699 162.301 255.602 163.414C257.504 164.526 260.605 162.76 262.529 159.47Z" fill="#161618"/>
<path d="M262.023 159.231C263.749 156.279 263.767 153.08 262.065 152.085C260.363 151.09 257.585 152.676 255.859 155.627C254.134 158.579 254.115 161.778 255.817 162.773C257.52 163.768 260.298 162.182 262.023 159.231Z" fill="#D5D6D5"/>
<path d="M262.97 155.119C262.895 156.509 262.494 157.861 261.799 159.067C261.104 160.273 260.135 161.298 258.97 162.059C256.75 163.339 254.97 162.319 254.97 159.769C255.045 158.379 255.446 157.027 256.141 155.821C256.836 154.615 257.805 153.59 258.97 152.829C261.17 151.549 262.97 152.569 262.97 155.119Z" fill="#ADAFAE"/>
<path d="M255.96 159.059C256.015 158.089 256.297 157.146 256.783 156.305C257.27 155.465 257.947 154.75 258.76 154.219C260.31 153.329 261.57 154.049 261.57 155.819C261.515 156.79 261.233 157.734 260.744 158.575C260.256 159.416 259.576 160.13 258.76 160.659C257.21 161.559 255.96 160.839 255.96 159.059Z" fill="#555958"/>
<path d="M258.36 161.899C259.525 161.138 260.494 160.112 261.189 158.907C261.884 157.701 262.285 156.349 262.36 154.959C262.416 154.448 262.327 153.932 262.104 153.469C261.882 153.006 261.534 152.614 261.1 152.339C262.2 152.529 262.92 153.539 262.92 155.149C262.845 156.539 262.444 157.891 261.749 159.097C261.054 160.302 260.085 161.328 258.92 162.089C258.524 162.371 258.064 162.548 257.582 162.606C257.1 162.664 256.611 162.599 256.16 162.419C256.931 162.507 257.71 162.323 258.36 161.899Z" fill="#7E8180"/>
<path d="M255.66 158.899C255.714 157.928 255.997 156.984 256.486 156.143C256.974 155.302 257.654 154.588 258.47 154.059C260.02 153.159 261.28 153.879 261.28 155.659C261.223 156.629 260.939 157.573 260.451 158.413C259.963 159.254 259.284 159.968 258.47 160.499C256.92 161.419 255.66 160.699 255.66 158.899Z" fill="#8B8D8C"/>
<path d="M239.2 155.169L208.06 137.189V134.759L239.2 152.739V155.169Z" fill="#AC5922"/>
<path d="M260.86 142.769L239.2 152.729L234.96 150.289L209.45 135.559L208.06 134.759L222.37 129.009L229.73 124.789L235.59 128.169L260.86 142.769Z" fill="#EFD995"/>
<path d="M239.2 155.169L260.87 145.199V142.769L239.2 152.739V155.169Z" fill="#D9AF6A"/>
<path d="M235.96 150.419L234.96 147.719L209.45 132.999L218.85 129.719L222.37 126.439L236.24 113.719L235.84 124.899L235.96 150.419Z" fill="#AE7443"/>
<path d="M235.96 150.429L214.48 138.019L215.29 108.199L236.78 120.599L235.96 150.429Z" fill="#B76F3F"/>
<path d="M215.29 108.199L214.48 138.019L235.96 150.429L215.1 137.669L215.29 108.199Z" fill="#8C4320"/>
<path d="M223.5 143.299L224.32 113.409L227.73 115.379L226.91 145.469L223.5 143.299Z" fill="#9C480C"/>
<path d="M236.78 120.599L215.29 108.199L235.96 99.229L257.45 111.639L236.78 120.599Z" fill="#EFD995"/>
<path d="M255.86 111.639L236.84 119.609L215.29 108.199L236.78 120.599L257.45 111.639L235.96 99.229L255.86 111.639Z" fill="#FFEDB4"/>
<path d="M225.22 103.929L249.87 118.509L252.76 115.409L225.31 103.829L225.22 103.929Z" fill="#AB774D"/>
<path d="M229.19 102.119L238.23 107.189L234.24 108.929L225.32 103.829L229.19 102.119Z" fill="#E6E1E4"/>
<path d="M252.86 115.319L249.08 117.459L236.52 110.239L241.9 109.239L252.86 115.319Z" fill="#E6E1E4"/>
<path d="M227.44 115.249L248.83 106.309L248.78 106.629L227.73 115.379L227.44 115.249Z" fill="#C39055"/>
<path d="M241.9 109.239L237.82 110.979L234.24 108.929L238.23 107.189L241.9 109.239Z" fill="#F9F9F9"/>
<path d="M234.24 108.929L237.82 110.979L227.44 115.249L224.03 113.269L234.24 108.929Z" fill="#F1F1F1"/>
<path d="M248.84 106.309L241.9 109.239L238.23 107.189L245.06 104.159L248.84 106.309Z" fill="#F1F1F1"/>
<path d="M223.21 143.169L224.03 113.279L227.44 115.249L226.62 145.329L223.21 143.169Z" fill="#B3A4AD"/>
<path d="M235.96 150.429L257.45 140.939V111.639L236.78 120.599L235.96 150.429Z" fill="#D9AF6A"/>
<path d="M235.96 150.429L257.45 140.939V140.559L235.96 150.039V150.429Z" fill="#9D6F40"/>
<path d="M249.23 144.619L250.99 114.489L246.44 116.539L245.55 146.279L249.23 144.619Z" fill="#9C480C"/>
<path d="M249.37 144.709L251.13 114.399L246.58 116.449L245.69 146.369L249.37 144.709Z" fill="#D6D6D6"/>
<path d="M220.94 121.199L215.94 118.319V110.969L220.94 113.859V121.199ZM216.41 118.049L220.48 120.409V114.119L216.41 111.769V118.049Z" fill="#A45823"/>
<path d="M217.5 117.619L219.19 118.599V116.589L217.5 115.599V117.619Z" fill="#A45823"/>
<path d="M216.67 115.139L220.02 117.079L218.34 113.569L216.67 115.139Z" fill="#A45823"/>
<path d="M246.44 111.729L250.66 114.399L246.58 116.189V116.449L251.13 114.399L246.44 111.729Z" fill="#F1F1F1"/>
<path d="M239.42 126.599L245.08 124.069L245.17 119.259L239.62 121.499L239.51 121.789L239.42 126.599Z" fill="#9C480C"/>
<path d="M239.74 121.609L245.4 119.079L245.29 118.969L239.62 121.499L239.74 121.609Z" fill="#FEFEFE"/>
<path d="M239.64 126.419L239.74 121.609L239.62 121.499L239.53 126.309L239.64 126.419Z" fill="#8B8B8B"/>
<path d="M239.64 126.419L245.3 123.889L245.4 119.079L239.74 121.609L239.64 126.419Z" fill="#D6D6D6"/>
<path d="M240.04 122.309L245.06 120.059L245.07 119.749L240.04 122.009V122.309Z" fill="#6F6F6F"/>
<path d="M242.09 122.719L245.04 121.409V121.099L242.1 122.419L242.09 122.719Z" fill="#8E8E8E"/>
<path d="M239.99 125.669L241.53 124.989L241.58 122.399L240.04 123.089L239.99 125.669Z" fill="#8E8E8E"/>
<path d="M242.08 123.389L245.02 122.069L245.03 121.769L242.08 123.079V123.389Z" fill="#8E8E8E"/>
<path d="M242.06 124.049L245.01 122.729L245.02 122.429L242.07 123.739L242.06 124.049Z" fill="#8E8E8E"/>
<path d="M242.05 124.709L245 123.399V123.089L242.06 124.409L242.05 124.709Z" fill="#8E8E8E"/>
<path d="M243.02 152.729L243.46 140.359C243.481 139.809 243.661 139.277 243.979 138.828C244.297 138.379 244.738 138.032 245.25 137.829L254.93 134.019C255.05 133.97 255.18 133.952 255.308 133.967C255.437 133.982 255.56 134.028 255.665 134.103C255.771 134.178 255.856 134.278 255.913 134.394C255.97 134.511 255.996 134.64 255.99 134.769L255.52 147.669L253.05 148.799C253.93 149.234 254.843 149.602 255.78 149.899C256.97 149.979 257.36 150.019 257.45 147.019C257.54 143.549 257.77 138.709 257.86 134.599C257.867 134.204 257.778 133.814 257.599 133.461C257.421 133.109 257.159 132.806 256.836 132.578C256.514 132.35 256.141 132.205 255.749 132.154C255.357 132.104 254.959 132.15 254.59 132.289L245.01 135.899C244.06 136.259 243.237 136.891 242.644 137.716C242.052 138.542 241.716 139.524 241.68 140.539L241.21 154.249L239.77 154.909C240.35 155.381 240.958 155.819 241.59 156.219C241.77 156.219 242.88 156.609 242.95 155.549C243.02 154.489 243.02 152.729 243.02 152.729Z" fill="#F22400"/>
<path d="M265.36 88.089L264.67 88.339C264.665 88.0472 264.709 87.7566 264.8 87.479C265 86.859 266.15 86.569 266.8 87.709C267.254 88.5034 267.376 89.445 267.14 90.329C267.121 90.44 267.079 90.546 267.018 90.6405C266.957 90.735 266.877 90.8161 266.784 90.8787C266.69 90.9414 266.585 90.9844 266.474 91.0051C266.363 91.0258 266.25 91.0237 266.14 90.999C265.86 90.999 265.39 90.439 265.39 90.439L266.33 90.129C266.475 89.891 266.551 89.6177 266.551 89.339C266.551 89.0604 266.475 88.7871 266.33 88.549C266.249 88.3699 266.107 88.2253 265.929 88.1411C265.751 88.0569 265.55 88.0384 265.36 88.089Z" fill="#545454"/>
<path d="M236.36 71.099L238.08 70.759C238.374 71.04 238.562 71.4148 238.61 71.819C238.665 72.2861 238.581 72.759 238.37 73.179L237.16 73.529C237.16 73.529 237.25 71.119 236.36 71.099Z" fill="#2E2E2E"/>
<path d="M236.88 69.6489C236.602 70.5343 236.602 71.4836 236.88 72.3689C237.38 73.4289 238.03 75.2989 238.03 75.2989C238.03 75.2989 238.46 77.3789 239.73 76.6989C239.897 76.6509 240.049 76.56 240.171 76.4351C240.293 76.3102 240.379 76.1558 240.423 75.987C240.466 75.8182 240.465 75.6411 240.419 75.473C240.373 75.305 240.283 75.1519 240.16 75.0289C239.702 74.2365 239.429 73.3513 239.36 72.4389C239.49 71.5789 239.55 71.1489 239.55 71.1489C239.55 71.1489 240.25 70.9889 240.72 69.1489C240.844 68.7728 240.841 68.366 240.711 67.9917C240.581 67.6175 240.331 67.2966 240 67.0789C239.64 66.8389 237.75 65.5889 236.88 69.6489Z" fill="#FFD0A1"/>
<path d="M235.84 71.629L235.15 71.879C235.119 71.5694 235.149 71.2567 235.24 70.959C235.44 70.339 236.58 70.049 237.19 71.189C237.418 71.5811 237.566 72.0144 237.626 72.4641C237.687 72.9137 237.657 73.3708 237.54 73.809C237.518 73.9185 237.475 74.0226 237.413 74.1152C237.351 74.2079 237.271 74.2872 237.178 74.3487C237.085 74.4101 236.981 74.4524 236.871 74.473C236.761 74.4937 236.649 74.4923 236.54 74.469C236.27 74.469 235.8 73.919 235.8 73.919L236.74 73.599C236.87 73.357 236.933 73.0841 236.92 72.8093C236.908 72.5346 236.821 72.2684 236.67 72.039C236.36 71.379 235.84 71.629 235.84 71.629Z" fill="#545454"/>
</svg>
