<svg width="44" height="45" viewBox="0 0 44 45" fill="none" xmlns="http://www.w3.org/2000/svg">
<path d="M22 25.5C23.6569 25.5 25 24.1569 25 22.5C25 20.8431 23.6569 19.5 22 19.5C20.3431 19.5 19 20.8431 19 22.5C19 24.1569 20.3431 25.5 22 25.5Z" stroke="#292D32" stroke-width="1.5" stroke-miterlimit="10" stroke-linecap="round" stroke-linejoin="round"/>
<path d="M12 23.3799V21.6199C12 20.5799 12.85 19.7199 13.9 19.7199C15.71 19.7199 16.45 18.4399 15.54 16.8699C15.02 15.9699 15.33 14.7999 16.24 14.2799L17.97 13.2899C18.76 12.8199 19.78 13.0999 20.25 13.8899L20.36 14.0799C21.26 15.6499 22.74 15.6499 23.65 14.0799L23.76 13.8899C24.23 13.0999 25.25 12.8199 26.04 13.2899L27.77 14.2799C28.68 14.7999 28.99 15.9699 28.47 16.8699C27.56 18.4399 28.3 19.7199 30.11 19.7199C31.15 19.7199 32.01 20.5699 32.01 21.6199V23.3799C32.01 24.4199 31.16 25.2799 30.11 25.2799C28.3 25.2799 27.56 26.5599 28.47 28.1299C28.99 29.0399 28.68 30.1999 27.77 30.7199L26.04 31.7099C25.25 32.1799 24.23 31.8999 23.76 31.1099L23.65 30.9199C22.75 29.3499 21.27 29.3499 20.36 30.9199L20.25 31.1099C19.78 31.8999 18.76 32.1799 17.97 31.7099L16.24 30.7199C15.33 30.1999 15.02 29.0299 15.54 28.1299C16.45 26.5599 15.71 25.2799 13.9 25.2799C12.85 25.2799 12 24.4199 12 23.3799Z" stroke="#292D32" stroke-width="1.5" stroke-miterlimit="10" stroke-linecap="round" stroke-linejoin="round"/>
</svg>
