<svg width="109" height="65" viewBox="0 0 109 65" fill="none" xmlns="http://www.w3.org/2000/svg">
<path d="M0 36.1799L36.1799 0H108.101L71.9212 36.1799H0Z" fill="black"/>
<path d="M35.9606 20.8308L20.6116 36.1799H0L36.1799 0L61.6154 25.4355L51.3096 36.1799L35.9606 20.8308Z" fill="#FFAB00"/>
<path d="M72.1405 15.349L56.7915 0H87.4896L72.1405 15.349Z" fill="#FFAA00"/>
<path d="M9.7333 61.3726L8.09229 54.9463H3.16927L1.51574 61.3726H0L4.73512 43.0459H6.48886L11.2365 61.3726H9.7333ZM7.79165 53.606L6.11306 46.7413C6.0546 46.4657 5.99197 46.1901 5.92516 45.9145C5.8667 45.6389 5.81242 45.3717 5.76231 45.1128C5.71221 44.8539 5.65792 44.595 5.59946 44.3362C5.55771 44.6034 5.51178 44.8665 5.46167 45.1253C5.41156 45.3759 5.35728 45.6348 5.29882 45.902C5.24036 46.1692 5.17355 46.4448 5.09839 46.7288L3.44486 53.606H7.79165ZM13.2658 61.3726V43.0584H14.7064V60.0447H20.4061V61.3726H13.2658ZM26.4691 61.3726H25.016V44.3737H21.0951V43.0584H30.4025V44.3737H26.4691V61.3726ZM35.4758 52.5036L38.7829 43.0584H40.2986L36.2024 54.2448V61.3726H34.7492V54.2824L30.6405 43.0584H32.1562L35.4758 52.5036ZM52.7001 61.3726H50.9839L43.6808 45.426H43.6182C43.6349 45.7851 43.6474 46.1484 43.6558 46.5158C43.6725 46.8833 43.685 47.2674 43.6934 47.6683C43.7017 48.0608 43.7059 48.47 43.7059 48.8959V61.3726H42.3279V43.0584H44.0316L51.3347 58.8547H51.3973C51.389 58.4121 51.3764 57.9778 51.3597 57.5519C51.343 57.1176 51.3305 56.7043 51.3222 56.3117C51.3138 55.9192 51.3096 55.5685 51.3096 55.2595V43.0584H52.7001V61.3726Z" fill="#FFAB00"/>
<path d="M64.5379 52.5036L67.845 43.0584H69.3607L65.2645 54.2448V61.3726H63.8113V54.2824L59.7026 43.0584H61.2183L64.5379 52.5036ZM67.4817 37.4464V37.6469C67.298 37.9392 67.0683 38.2607 66.7927 38.6114C66.5171 38.9538 66.2165 39.3046 65.8908 39.6637C65.5734 40.0228 65.2561 40.361 64.9388 40.6783C64.6298 40.9957 64.3416 41.2754 64.0744 41.5176H63.1975V41.2295C63.5483 40.7869 63.8782 40.3568 64.1872 39.9393C64.4961 39.5134 64.7843 39.0916 65.0515 38.6741C65.3187 38.2565 65.5693 37.8473 65.8031 37.4464H67.4817ZM82.376 52.1904C82.376 53.4849 82.2716 54.7041 82.0628 55.8483C81.8541 56.984 81.5242 57.9862 81.0732 58.8547C80.6306 59.7148 80.0377 60.3913 79.2944 60.884C78.5512 61.3767 77.6451 61.6231 76.5761 61.6231C75.4988 61.6231 74.5844 61.3726 73.8328 60.8715C73.0812 60.3621 72.4799 59.6689 72.0289 58.792C71.5779 57.9152 71.2481 56.9089 71.0393 55.7731C70.8305 54.6373 70.7261 53.4389 70.7261 52.1779C70.7261 50.1152 70.9474 48.3907 71.39 47.0044C71.841 45.6097 72.5007 44.5616 73.3693 43.8601C74.2378 43.1503 75.3109 42.7954 76.5886 42.7954C77.9582 42.7954 79.0689 43.2046 79.9208 44.023C80.7726 44.8331 81.3948 45.9479 81.7873 47.3676C82.1798 48.779 82.376 50.3866 82.376 52.1904ZM72.2293 52.1904C72.2293 53.9191 72.3922 55.3889 72.7179 56.5999C73.0436 57.8024 73.5321 58.7211 74.1835 59.3557C74.8349 59.9904 75.6283 60.3078 76.5636 60.3078C77.5323 60.3078 78.334 59.9988 78.9687 59.3808C79.6034 58.7628 80.0753 57.8525 80.3843 56.65C80.7016 55.439 80.8603 53.9525 80.8603 52.1904C80.8603 49.5598 80.5053 47.5597 79.7955 46.1901C79.0856 44.8122 78.0167 44.1232 76.5886 44.1232C75.6116 44.1232 74.7973 44.4364 74.1459 45.0627C73.5029 45.689 73.0227 46.6035 72.7053 47.8061C72.388 49.0003 72.2293 50.4617 72.2293 52.1904ZM95.7295 52.0151C95.7295 54.0695 95.4874 55.794 95.003 57.1886C94.527 58.5749 93.8046 59.6188 92.8359 60.3203C91.8671 61.0218 90.6479 61.3726 89.178 61.3726H85.7457V43.0584H89.3284C90.7564 43.0584 91.9423 43.3966 92.886 44.0731C93.8297 44.7495 94.5395 45.7517 95.0155 47.0795C95.4915 48.4074 95.7295 50.0525 95.7295 52.0151ZM94.2263 52.0902C94.2263 50.42 94.051 49.0086 93.7002 47.8562C93.3578 46.7037 92.8192 45.8352 92.0843 45.2506C91.3494 44.6577 90.4015 44.3612 89.2407 44.3612H87.1863V60.0698H89.1029C90.8817 60.0698 92.1803 59.3975 92.9987 58.053C93.8171 56.7084 94.2263 54.7208 94.2263 52.0902ZM106.841 61.3726L105.2 54.9463H100.277L98.6232 61.3726H97.1075L101.843 43.0459H103.596L108.344 61.3726H106.841ZM104.899 53.606L103.221 46.7413C103.162 46.4657 103.099 46.1901 103.033 45.9145C102.974 45.6389 102.92 45.3717 102.87 45.1128C102.82 44.8539 102.765 44.595 102.707 44.3362C102.665 44.6034 102.619 44.8665 102.569 45.1253C102.519 45.3759 102.465 45.6348 102.406 45.902C102.348 46.1692 102.281 46.4448 102.206 46.7288L100.552 53.606H104.899Z" fill="black"/>
</svg>
