<svg width="44" height="45" viewBox="0 0 44 45" fill="none" xmlns="http://www.w3.org/2000/svg">
<path d="M26 12.5H18C14.5 12.5 13 14.5 13 17.5V27.5C13 30.5 14.5 32.5 18 32.5H26C29.5 32.5 31 30.5 31 27.5V17.5C31 14.5 29.5 12.5 26 12.5ZM18 22.75H22C22.41 22.75 22.75 23.09 22.75 23.5C22.75 23.91 22.41 24.25 22 24.25H18C17.59 24.25 17.25 23.91 17.25 23.5C17.25 23.09 17.59 22.75 18 22.75ZM26 28.25H18C17.59 28.25 17.25 27.91 17.25 27.5C17.25 27.09 17.59 26.75 18 26.75H26C26.41 26.75 26.75 27.09 26.75 27.5C26.75 27.91 26.41 28.25 26 28.25ZM28.5 19.75H26.5C24.98 19.75 23.75 18.52 23.75 17V15C23.75 14.59 24.09 14.25 24.5 14.25C24.91 14.25 25.25 14.59 25.25 15V17C25.25 17.69 25.81 18.25 26.5 18.25H28.5C28.91 18.25 29.25 18.59 29.25 19C29.25 19.41 28.91 19.75 28.5 19.75Z" fill="#DEDEDE"/>
</svg>
